<svg width="20" height="20" viewBox="0 0 20 20" fill="none" xmlns="http://www.w3.org/2000/svg">
<path d="M14.6443 2.57846L10.0002 7.22287C8.45219 5.6754 6.90372 4.12643 5.3555 2.57846C3.56448 0.787444 0.788272 3.56465 2.57779 5.35617C4.12626 6.90314 5.67523 8.45236 7.22195 10.0003C5.67452 11.549 4.12647 13.0971 2.57779 14.6445C0.788272 16.435 3.56473 19.2115 5.3555 17.4222C6.90347 15.8737 8.45194 14.325 9.99991 12.7775L14.6441 17.4222C16.4351 19.2127 19.212 16.4353 17.4218 14.6445C15.8733 13.096 14.3253 11.548 12.7764 9.99983C14.3251 8.45136 15.8731 6.90289 17.4218 5.35467C19.2123 3.56465 16.4353 0.787444 14.6441 2.57946" fill="tomato"/>
</svg>
