<svg width="30" height="30" viewBox="0 0 30 30" fill="none" xmlns="http://www.w3.org/2000/svg">
<path d="M7.5 13.125H17.8125V15H7.5V13.125ZM7.5 17.8125H19.6875V19.6875H7.5V17.8125Z" fill="#DBDBDB"/>
<path d="M25.0893 3.75H3.66071C3.18711 3.75 2.73291 3.93814 2.39802 4.27302C2.06314 4.60791 1.875 5.06211 1.875 5.53571V23.3929C1.875 23.8665 2.06314 24.3207 2.39802 24.6555C2.73291 24.9904 3.18711 25.1786 3.66071 25.1786H25.0893C25.5629 25.1786 26.0171 24.9904 26.352 24.6555C26.6869 24.3207 26.875 23.8665 26.875 23.3929V5.53571C26.875 5.06211 26.6869 4.60791 26.352 4.27302C26.0171 3.93814 25.5629 3.75 25.0893 3.75V3.75ZM25.0893 5.53571V7.32143H3.66071V5.53571H25.0893ZM3.66071 23.3929V9.10714H25.0893V23.3929H3.66071Z" fill="#DBDBDB"/>
</svg>
