<svg width="24" height="24" viewBox="0 0 24 24" fill="none" xmlns="http://www.w3.org/2000/svg">
    <path fill-rule="evenodd" clip-rule="evenodd" d="M7.33366 1.33398H4.66699C4.13656 1.33398 3.62785 1.5447 3.25278 1.91977C2.87771 2.29484 2.66699 2.80355 2.66699 3.33398V19.334C2.66699 19.8644 2.87771 20.3731 3.25278 20.7482C3.62785 21.1233 4.13656 21.334 4.66699 21.334H16.0003C16.5308 21.334 17.0395 21.1233 17.4145 20.7482C17.7896 20.3731 18.0003 19.8644 18.0003 19.334V3.33398C18.0003 2.80355 17.7896 2.29484 17.4145 1.91977C17.0395 1.5447 16.5308 1.33398 16.0003 1.33398H15.3337V2.66732H16.0003C16.1771 2.66732 16.3467 2.73756 16.4717 2.86258C16.5968 2.9876 16.667 3.15717 16.667 3.33398V19.334C16.667 19.5108 16.5968 19.6804 16.4717 19.8054C16.3467 19.9304 16.1771 20.0007 16.0003 20.0007H4.66699C4.49018 20.0007 4.32061 19.9304 4.19559 19.8054C4.07056 19.6804 4.00033 19.5108 4.00033 19.334V3.33398C4.00033 3.15717 4.07056 2.9876 4.19559 2.86258C4.32061 2.73756 4.49018 2.66732 4.66699 2.66732H7.33366V1.33398ZM8.66699 2.66732H14.0003V1.33398H8.66699V2.66732Z" fill="#DBDBDB"/>
    <path fill-rule="evenodd" clip-rule="evenodd" d="M5.3335 8.66667C5.3335 8.48986 5.40373 8.32029 5.52876 8.19526C5.65378 8.07024 5.82335 8 6.00016 8H14.6668C14.8436 8 15.0132 8.07024 15.1382 8.19526C15.2633 8.32029 15.3335 8.48986 15.3335 8.66667C15.3335 8.84348 15.2633 9.01305 15.1382 9.13807C15.0132 9.2631 14.8436 9.33333 14.6668 9.33333H6.00016C5.82335 9.33333 5.65378 9.2631 5.52876 9.13807C5.40373 9.01305 5.3335 8.84348 5.3335 8.66667Z" fill="#DBDBDB"/>
    <path fill-rule="evenodd" clip-rule="evenodd" d="M5.33301 12.0007C5.33301 11.8238 5.40325 11.6543 5.52827 11.5292C5.65329 11.4042 5.82286 11.334 5.99967 11.334H10.6663C10.8432 11.334 11.0127 11.4042 11.1377 11.5292C11.2628 11.6543 11.333 11.8238 11.333 12.0007C11.333 12.1775 11.2628 12.347 11.1377 12.4721C11.0127 12.5971 10.8432 12.6673 10.6663 12.6673H5.99967C5.82286 12.6673 5.65329 12.5971 5.52827 12.4721C5.40325 12.347 5.33301 12.1775 5.33301 12.0007Z" fill="#DBDBDB"/>
    <path fill-rule="evenodd" clip-rule="evenodd" d="M5.33301 15.3327C5.33301 15.1559 5.40325 14.9863 5.52827 14.8613C5.65329 14.7363 5.82286 14.666 5.99967 14.666H13.333C13.5098 14.666 13.6794 14.7363 13.8044 14.8613C13.9294 14.9863 13.9997 15.1559 13.9997 15.3327C13.9997 15.5095 13.9294 15.6791 13.8044 15.8041C13.6794 15.9291 13.5098 15.9993 13.333 15.9993H5.99967C5.82286 15.9993 5.65329 15.9291 5.52827 15.8041C5.40325 15.6791 5.33301 15.5095 5.33301 15.3327Z" fill="#DBDBDB"/>
    <path fill-rule="evenodd" clip-rule="evenodd" d="M1.33333 2.66602V19.3327C1.33333 20.2167 1.68452 21.0646 2.30964 21.6897C2.93477 22.3148 3.78261 22.666 4.66667 22.666H16V23.9993H4.66667C3.42899 23.9993 2.24201 23.5077 1.36684 22.6325C0.491666 21.7573 0 20.5704 0 19.3327V2.66602H1.33333Z" fill="#DBDBDB"/>
    <path fill-rule="evenodd" clip-rule="evenodd" d="M20 4.66602C20 4.13558 20.2107 3.62687 20.5858 3.2518C20.9609 2.87673 21.4696 2.66602 22 2.66602C22.5304 2.66602 23.0391 2.87673 23.4142 3.2518C23.7893 3.62687 24 4.13558 24 4.66602V18.2013L22 21.2013L20 18.2013V4.66602ZM22 3.99935C21.8232 3.99935 21.6536 4.06959 21.5286 4.19461C21.4036 4.31964 21.3333 4.4892 21.3333 4.66602V17.7973L22 18.7973L22.6667 17.7973V4.66602C22.6667 4.4892 22.5964 4.31964 22.4714 4.19461C22.3464 4.06959 22.1768 3.99935 22 3.99935Z" fill="#DBDBDB"/>
    <path fill-rule="evenodd" clip-rule="evenodd" d="M23.3332 7.33333H20.6665V6H23.3332V7.33333Z" fill="#DBDBDB"/>
    <path fill-rule="evenodd" clip-rule="evenodd" d="M13.3332 0C13.51 0 13.6796 0.070238 13.8046 0.195262C13.9296 0.320287 13.9998 0.489856 13.9998 0.666667V3.33333C13.9998 3.51014 13.9296 3.67971 13.8046 3.80474C13.6796 3.92976 13.51 4 13.3332 4C13.1564 4 12.9868 3.92976 12.8618 3.80474C12.7367 3.67971 12.6665 3.51014 12.6665 3.33333V0.666667C12.6665 0.489856 12.7367 0.320287 12.8618 0.195262C12.9868 0.070238 13.1564 0 13.3332 0Z" fill="#DBDBDB"/>
    <path fill-rule="evenodd" clip-rule="evenodd" d="M6.66667 0C6.84348 0 7.01305 0.070238 7.13807 0.195262C7.2631 0.320287 7.33333 0.489856 7.33333 0.666667V3.33333C7.33333 3.51014 7.2631 3.67971 7.13807 3.80474C7.01305 3.92976 6.84348 4 6.66667 4C6.48986 4 6.32029 3.92976 6.19526 3.80474C6.07024 3.67971 6 3.51014 6 3.33333V0.666667C6 0.489856 6.07024 0.320287 6.19526 0.195262C6.32029 0.070238 6.48986 0 6.66667 0Z" fill="#DBDBDB"/>
</svg>
