<svg width="22" height="24" viewBox="0 0 22 24" fill="none" xmlns="http://www.w3.org/2000/svg">
    <path d="M8.46154 8.46154C8.23712 8.46154 8.0219 8.55069 7.86322 8.70937C7.70453 8.86806 7.61538 9.08328 7.61538 9.30769C7.61538 9.53211 7.70453 9.74733 7.86322 9.90601C8.0219 10.0647 8.23712 10.1538 8.46154 10.1538H11.8462C12.0706 10.1538 12.2858 10.0647 12.4445 9.90601C12.6032 9.74733 12.6923 9.53211 12.6923 9.30769C12.6923 9.08328 12.6032 8.86806 12.4445 8.70937C12.2858 8.55069 12.0706 8.46154 11.8462 8.46154H8.46154ZM1.69231 0C1.24348 0 0.813035 0.178296 0.495665 0.495665C0.178296 0.813035 0 1.24348 0 1.69231V5.07692C0 5.52575 0.178296 5.9562 0.495665 6.27356C0.813035 6.59093 1.24348 6.76923 1.69231 6.76923V16.9231C1.69231 17.8207 2.0489 18.6816 2.68364 19.3164C3.31838 19.9511 4.17927 20.3077 5.07692 20.3077H15.2308C16.1284 20.3077 16.9893 19.9511 17.6241 19.3164C18.2588 18.6816 18.6154 17.8207 18.6154 16.9231V6.76923C19.0642 6.76923 19.4947 6.59093 19.812 6.27356C20.1294 5.9562 20.3077 5.52575 20.3077 5.07692V1.69231C20.3077 1.24348 20.1294 0.813035 19.812 0.495665C19.4947 0.178296 19.0642 0 18.6154 0H1.69231ZM3.38462 16.9231V6.76923H16.9231V16.9231C16.9231 17.3719 16.7448 17.8023 16.4274 18.1197C16.11 18.4371 15.6796 18.6154 15.2308 18.6154H5.07692C4.6281 18.6154 4.19765 18.4371 3.88028 18.1197C3.56291 17.8023 3.38462 17.3719 3.38462 16.9231ZM1.69231 1.69231H18.6154V5.07692H1.69231V1.69231ZM22 9.30769C22.0003 8.78253 21.8377 8.2702 21.5346 7.84132C21.2315 7.41245 20.8028 7.08813 20.3077 6.91308V18.6154C20.3077 19.513 19.9511 20.3739 19.3164 21.0087C18.6816 21.6434 17.8207 22 16.9231 22H5.53046C5.82752 22.5145 6.25477 22.9418 6.76928 23.2388C7.28379 23.5359 7.86743 23.6923 8.46154 23.6923H16.9231C18.2696 23.6923 19.5609 23.1574 20.513 22.2053C21.4651 21.2532 22 19.9619 22 18.6154V9.30769Z" fill="#464C52"/>
</svg>
