<svg width="30" height="30" viewBox="0 0 30 30" fill="none" xmlns="http://www.w3.org/2000/svg">
<path d="M30 8.90625C30 8.78906 29.9854 8.66699 29.9561 8.54004C29.9268 8.41309 29.8926 8.2959 29.8535 8.18848C29.8145 8.08105 29.7607 7.97852 29.6924 7.88086C29.624 7.7832 29.5459 7.69043 29.458 7.60254C29.3701 7.51465 29.2773 7.43652 29.1797 7.36816C29.082 7.2998 28.9746 7.24121 28.8574 7.19238C28.7402 7.14355 28.623 7.10449 28.5059 7.0752C28.3887 7.0459 28.2617 7.03125 28.125 7.03125H24.9316C25.8301 6.15234 26.2793 5.08789 26.2793 3.83789C26.2793 3.25195 26.1719 2.71484 25.957 2.22656C25.7422 1.73828 25.3564 1.31836 24.7998 0.966797C24.2432 0.615234 23.5547 0.439453 22.7344 0.439453C22.4023 0.439453 22.0654 0.473633 21.7236 0.541992C21.3818 0.610352 21.0547 0.712891 20.7422 0.849609C20.4297 0.986328 20.1221 1.1377 19.8193 1.30371C19.5166 1.46973 19.2236 1.66016 18.9404 1.875C18.6572 2.08984 18.3838 2.30957 18.1201 2.53418C17.8564 2.75879 17.6025 3.00293 17.3584 3.2666C17.1143 3.53027 16.8848 3.78418 16.6699 4.02832C16.4551 4.27246 16.2451 4.52637 16.04 4.79004C15.835 5.05371 15.6543 5.29297 15.498 5.50781C15.3418 5.72266 15.1953 5.94727 15.0586 6.18164C14.6484 5.55664 14.2041 4.95605 13.7256 4.37988C13.2471 3.80371 12.666 3.19824 11.9824 2.56348C11.2988 1.92871 10.5469 1.41602 9.72656 1.02539C8.90625 0.634766 8.0957 0.439453 7.29492 0.439453C6.47461 0.439453 5.78613 0.615234 5.22949 0.966797C4.67285 1.31836 4.28711 1.73828 4.07227 2.22656C3.85742 2.71484 3.75 3.25195 3.75 3.83789C3.75 5.08789 4.20898 6.16211 5.12695 7.06055H1.875C1.34766 7.06055 0.90332 7.24121 0.541992 7.60254C0.180664 7.96387 0 8.4082 0 8.93555V14.5312H1.9043V26.748C1.9043 27.2559 2.08496 27.6953 2.44629 28.0664C2.80762 28.4375 3.25195 28.623 3.7793 28.623H26.25C26.7773 28.623 27.2217 28.4375 27.583 28.0664C27.9443 27.6953 28.125 27.2559 28.125 26.748V14.5312H30V8.90625ZM22.7344 2.31445C23.8477 2.31445 24.4043 2.82227 24.4043 3.83789C24.4043 4.50195 24.1797 5.08301 23.7305 5.58105C23.2812 6.0791 22.7197 6.44531 22.0459 6.67969C21.3721 6.91406 20.6543 7.03125 19.8926 7.03125H16.7285C17.0996 6.48438 17.4951 5.96191 17.915 5.46387C18.335 4.96582 18.8086 4.46777 19.3359 3.96973C19.8633 3.47168 20.4248 3.07129 21.0205 2.76855C21.6162 2.46582 22.1875 2.31445 22.7344 2.31445ZM7.29492 2.31445C8.34961 2.31445 9.41895 2.79297 10.5029 3.75C11.5869 4.70703 12.5488 5.80078 13.3887 7.03125H10.2246C9.0332 7.03125 7.96875 6.73828 7.03125 6.15234C6.09375 5.56641 5.625 4.78516 5.625 3.80859C5.625 2.87109 6.12305 2.38281 7.11914 2.34375C7.17773 2.32422 7.23633 2.31445 7.29492 2.31445ZM28.125 12.6562H15.9375V8.90625H28.125V12.6562ZM1.875 8.90625H14.0625V12.6562H1.875V8.90625ZM3.7793 14.5312H14.0625V26.748H3.7793V14.5312ZM26.25 26.748H15.9375V14.5312H26.25V26.748Z" fill="white"/>
</svg>
