<svg width="20" height="20" viewBox="0 0 20 20" fill="none" xmlns="http://www.w3.org/2000/svg">
<path d="M17 17.998H16V6.00975H17C17.2812 6.00975 17.5182 6.10601 17.7109 6.29853C17.9036 6.49106 18 6.7278 18 7.00878V16.999C18 17.2696 17.9036 17.5037 17.7109 17.7015C17.5182 17.8992 17.2812 17.998 17 17.998ZM15 17.998H5V6.00975H6V5.01073C6 4.17821 6.29167 3.46797 6.875 2.88C7.45833 2.29203 8.16667 1.99805 9 1.99805H11C11.8333 1.99805 12.5417 2.29203 13.125 2.88C13.7083 3.46797 14 4.17821 14 5.01073V6.00975H15V17.998ZM12 5.01073C12 4.72975 11.901 4.49301 11.7031 4.30049C11.5052 4.10797 11.2708 4.01171 11 4.01171H9C8.71875 4.01171 8.48177 4.10797 8.28906 4.30049C8.09635 4.49301 8 4.72975 8 5.01073V6.00975H12V5.01073ZM2 16.999V7.00878C2 6.7278 2.09635 6.49106 2.28906 6.29853C2.48177 6.10601 2.71875 6.00975 3 6.00975H4V17.998H3C2.71875 17.998 2.48177 17.8992 2.28906 17.7015C2.09635 17.5037 2 17.2696 2 16.999Z" fill="#1189CD"/>
</svg>
