<svg width="15" height="26" viewBox="0 0 15 26" fill="none" xmlns="http://www.w3.org/2000/svg">
<path d="M0.924014 24.9322C0.572504 24.5806 0.375036 24.1038 0.375036 23.6066C0.375036 23.1094 0.572504 22.6326 0.924014 22.281L10.2053 12.9997L0.924014 3.71848C0.582466 3.36485 0.393476 2.89122 0.397747 2.3996C0.40202 1.90798 0.599212 1.43771 0.946855 1.09007C1.2945 0.742424 1.76477 0.545235 2.2564 0.540962C2.74802 0.536692 3.22165 0.725681 3.57528 1.06723L14.1822 11.6741C14.5337 12.0257 14.7312 12.5025 14.7312 12.9997C14.7312 13.4969 14.5337 13.9737 14.1822 14.3254L3.57528 24.9322C3.22366 25.2837 2.74683 25.4812 2.24965 25.4812C1.75246 25.4812 1.27563 25.2837 0.924014 24.9322Z" fill="black"/>
</svg>
