<svg width="15" height="26" viewBox="0 0 15 26" fill="none" xmlns="http://www.w3.org/2000/svg">
<path d="M14.076 1.06777C14.4275 1.41939 14.625 1.89622 14.625 2.3934C14.625 2.89058 14.4275 3.36741 14.076 3.71902L4.79468 13.0003L14.076 22.2815C14.4175 22.6352 14.6065 23.1088 14.6023 23.6004C14.598 24.092 14.4008 24.5623 14.0531 24.9099C13.7055 25.2576 13.2352 25.4548 12.7436 25.459C12.252 25.4633 11.7784 25.2743 11.4247 24.9328L0.817777 14.3259C0.466266 13.9743 0.268799 13.4975 0.268799 13.0003C0.268799 12.5031 0.466266 12.0263 0.817777 11.6746L11.4247 1.06777C11.7763 0.716265 12.2532 0.518799 12.7504 0.518799C13.2475 0.518799 13.7244 0.716265 14.076 1.06777Z" fill="black"/>
</svg>
