<svg width="24" height="22" viewBox="0 0 24 22" fill="none" xmlns="http://www.w3.org/2000/svg">
<path d="M11.9805 0.48502C12.8665 0.48502 13.7161 0.836965 14.3426 1.46343C14.9691 2.0899 15.321 2.93956 15.321 3.82552C15.321 4.71148 14.9691 5.56114 14.3426 6.18761C13.7161 6.81408 12.8665 7.16602 11.9805 7.16602C11.0943 7.16602 10.2445 6.814 9.61788 6.18739C8.99128 5.56078 8.63925 4.71092 8.63925 3.82477C8.63925 2.93862 8.99128 2.08876 9.61788 1.46215C10.2445 0.835544 11.0943 0.483521 11.9805 0.483521V0.48502ZM11.9805 1.98502C11.4924 1.98502 11.0242 2.17893 10.6791 2.52409C10.3339 2.86925 10.14 3.33739 10.14 3.82552C10.14 4.31365 10.3339 4.78179 10.6791 5.12695C11.0242 5.47211 11.4924 5.66602 11.9805 5.66602C12.4688 5.66602 12.9372 5.47203 13.2825 5.12673C13.6278 4.78143 13.8218 4.3131 13.8218 3.82477C13.8218 3.33644 13.6278 2.86811 13.2825 2.52281C12.9372 2.17751 12.4688 1.98352 11.9805 1.98352V1.98502Z" fill="#DBDBDB"/>
<path d="M1.524 13.25C1.524 13.4489 1.44498 13.6397 1.30433 13.7804C1.16368 13.921 0.972914 14 0.774002 14C0.57509 14 0.384324 13.921 0.243672 13.7804C0.103019 13.6397 0.0240021 13.4489 0.0240021 13.25V9.52103C0.0240505 9.15363 0.158936 8.79902 0.403075 8.52447C0.647213 8.24992 0.983625 8.07451 1.3485 8.03153L1.524 8.02103H5.6595C5.44125 8.39763 5.30813 8.81747 5.2695 9.25103L5.2575 9.52103H1.5225V13.25H1.524Z" fill="#DBDBDB"/>
<path d="M23.235 14C23.4339 14 23.6247 13.921 23.7653 13.7804C23.906 13.6397 23.985 13.4489 23.985 13.25V9.52103L23.9745 9.34703C23.9318 8.98188 23.7566 8.64511 23.482 8.40066C23.2074 8.15621 22.8526 8.02112 22.485 8.02103H18.309C18.528 8.40053 18.669 8.83553 18.702 9.29753L18.7095 9.52253H22.485V13.25C22.485 13.4489 22.564 13.6397 22.7047 13.7804C22.8453 13.921 23.0361 14 23.235 14Z" fill="#DBDBDB"/>
<path d="M15.7095 8.02103C16.0774 8.02075 16.4326 8.15568 16.7075 8.40016C16.9824 8.64464 17.1578 8.98162 17.2005 9.34703L17.2095 9.52103V13.25C17.2095 13.4489 17.1305 13.6397 16.9898 13.7804C16.8492 13.921 16.6584 14 16.4595 14C16.2606 14 16.0698 13.921 15.9292 13.7804C15.7885 13.6397 15.7095 13.4489 15.7095 13.25V9.52103H8.25751V13.25C8.25751 13.4489 8.17849 13.6397 8.03784 13.7804C7.89719 13.921 7.70642 14 7.50751 14C7.3086 14 7.11783 13.921 6.97718 13.7804C6.83653 13.6397 6.75751 13.4489 6.75751 13.25V9.52103C6.75756 9.15363 6.89244 8.79902 7.13658 8.52447C7.38072 8.24992 7.71713 8.07451 8.08201 8.03153L8.25751 8.02103H15.7095Z" fill="#DBDBDB"/>
<path d="M22.332 4.29502C22.332 3.53379 22.0296 2.80373 21.4913 2.26545C20.9531 1.72718 20.223 1.42477 19.4618 1.42477C18.7005 1.42477 17.9705 1.72718 17.4322 2.26545C16.8939 2.80373 16.5915 3.53379 16.5915 4.29502C16.5915 5.05626 16.8939 5.78632 17.4322 6.3246C17.9705 6.86287 18.7005 7.16527 19.4618 7.16527C20.223 7.16527 20.9531 6.86287 21.4913 6.3246C22.0296 5.78632 22.332 5.05626 22.332 4.29502ZM18.0915 4.29502C18.0915 3.93161 18.2359 3.58308 18.4928 3.32611C18.7498 3.06914 19.0983 2.92477 19.4618 2.92477C19.8252 2.92477 20.1737 3.06914 20.4307 3.32611C20.6876 3.58308 20.832 3.93161 20.832 4.29502C20.832 4.65844 20.6876 5.00697 20.4307 5.26394C20.1737 5.52091 19.8252 5.66527 19.4618 5.66527C19.0983 5.66527 18.7498 5.52091 18.4928 5.26394C18.2359 5.00697 18.0915 4.65844 18.0915 4.29502Z" fill="#DBDBDB"/>
<path d="M4.524 1.42551C5.28524 1.42551 6.01529 1.72791 6.55357 2.26618C7.09185 2.80446 7.39425 3.53452 7.39425 4.29576C7.39425 5.05699 7.09185 5.78705 6.55357 6.32533C6.01529 6.86361 5.28524 7.16601 4.524 7.16601C3.76276 7.16601 3.0327 6.86361 2.49442 6.32533C1.95615 5.78705 1.65375 5.05699 1.65375 4.29576C1.65375 3.53452 1.95615 2.80446 2.49442 2.26618C3.0327 1.72791 3.76276 1.42551 4.524 1.42551ZM4.524 2.92551C4.16058 2.92551 3.81206 3.06987 3.55508 3.32684C3.29811 3.58381 3.15375 3.93234 3.15375 4.29576C3.15375 4.65917 3.29811 5.0077 3.55508 5.26467C3.81206 5.52164 4.16058 5.66601 4.524 5.66601C4.88741 5.66601 5.23594 5.52164 5.49291 5.26467C5.74988 5.0077 5.89425 4.65917 5.89425 4.29576C5.89425 3.93234 5.74988 3.58381 5.49291 3.32684C5.23594 3.06987 4.88741 2.92551 4.524 2.92551Z" fill="#DBDBDB"/>
<path d="M0.75 15.5C0.551088 15.5 0.360322 15.579 0.21967 15.7197C0.0790178 15.8603 0 16.0511 0 16.25V17.75C0 18.7446 0.395088 19.6984 1.09835 20.4017C1.80161 21.1049 2.75544 21.5 3.75 21.5H20.25C21.2446 21.5 22.1984 21.1049 22.9016 20.4017C23.6049 19.6984 24 18.7446 24 17.75V16.25C24 16.0511 23.921 15.8603 23.7803 15.7197C23.6397 15.579 23.4489 15.5 23.25 15.5H0.75ZM1.5 17.75V17H22.5V17.75C22.5 18.3467 22.2629 18.919 21.841 19.341C21.419 19.7629 20.8467 20 20.25 20H3.75C3.15326 20 2.58097 19.7629 2.15901 19.341C1.73705 18.919 1.5 18.3467 1.5 17.75Z" fill="#DBDBDB"/>
</svg>
