<svg width="35" height="35" viewBox="0 0 35 35" fill="none" xmlns="http://www.w3.org/2000/svg">
    <path d="M29.0794 13.6742C28.2715 11.7769 27.0102 10.1068 25.4061 8.81066C23.8021 7.51453 21.9045 6.63196 19.8797 6.24044L21.7088 3.31404L19.8538 2.15466L17.4403 6.01615C14.982 6.02755 12.5808 6.75894 10.5335 8.11993C8.48626 9.48092 6.88257 11.4119 5.92061 13.6742C4.63207 13.6987 3.40458 14.2278 2.50199 15.1477C1.59939 16.0676 1.09375 17.305 1.09375 18.5937C1.09375 19.8825 1.59939 21.1198 2.50199 22.0397C3.40458 22.9597 4.63207 23.4887 5.92061 23.5132C6.88667 25.7849 8.49957 27.7222 10.5585 29.084C12.6174 30.4458 15.0315 31.1719 17.5 31.1719C19.9685 31.1719 22.3826 30.4458 24.4415 29.084C26.5004 27.7222 28.1133 25.7849 29.0794 23.5132C30.3679 23.4887 31.5954 22.9597 32.498 22.0397C33.4006 21.1198 33.9063 19.8825 33.9063 18.5937C33.9063 17.305 33.4006 16.0676 32.498 15.1477C31.5954 14.2278 30.3679 13.6987 29.0794 13.6742ZM30.9355 20.5085C30.4352 21.0202 29.7533 21.314 29.0378 21.3261L27.6211 21.3531L27.0665 22.6569C26.2685 24.5339 24.9361 26.1346 23.235 27.2598C21.534 28.385 19.5395 28.9849 17.5 28.9849C15.4605 28.9849 13.4661 28.385 11.7651 27.2598C10.064 26.1346 8.73156 24.5339 7.93359 22.6569L7.37892 21.3531L5.96217 21.3261C5.24635 21.3127 4.56437 21.019 4.06288 20.508C3.56139 19.997 3.28044 19.3097 3.28044 18.5937C3.28044 17.8778 3.56139 17.1904 4.06288 16.6795C4.56437 16.1685 5.24635 15.8747 5.96217 15.8613L7.37892 15.8344L7.93359 14.5305C8.73158 12.6536 10.0641 11.0529 11.7651 9.92777C13.4661 8.8026 15.4605 8.20266 17.5 8.20266C19.5395 8.20266 21.534 8.8026 23.235 9.92777C24.936 11.0529 26.2685 12.6536 27.0665 14.5305L27.6211 15.8344L29.0378 15.8613C29.5717 15.8714 30.091 16.0377 30.5314 16.3397C30.9718 16.6417 31.3141 17.066 31.516 17.5604C31.7179 18.0548 31.7705 18.5975 31.6673 19.1214C31.5641 19.6453 31.3097 20.1276 30.9355 20.5085Z" fill="#FD9B28"/>
    <path d="M11.4844 15.8594H14.2188V18.5938H11.4844V15.8594Z" fill="#FD9B28"/>
    <path d="M20.7812 15.8594H23.5156V18.5938H20.7812V15.8594Z" fill="#FD9B28"/>
    <path d="M17.5 26.25C18.2182 26.25 18.9293 26.1085 19.5928 25.8337C20.2563 25.5589 20.8592 25.1561 21.367 24.6482C21.8748 24.1404 22.2776 23.5375 22.5525 22.8741C22.8273 22.2106 22.9688 21.4994 22.9688 20.7812H12.0312C12.0312 21.4994 12.1727 22.2106 12.4475 22.8741C12.7224 23.5375 13.1252 24.1404 13.633 24.6482C14.6586 25.6738 16.0496 26.25 17.5 26.25Z" fill="#FD9B28"/>
</svg>
