<svg width="16" height="16" viewBox="0 0 16 16" fill="none" xmlns="http://www.w3.org/2000/svg">
<path d="M2.1679 0.523951L7.9999 6.35595L13.8079 0.547951C13.9097 0.439612 14.0323 0.352945 14.1684 0.293146C14.3045 0.233347 14.4513 0.201648 14.5999 0.199951C14.9182 0.199951 15.2234 0.326379 15.4484 0.551423C15.6735 0.776467 15.7999 1.08169 15.7999 1.39995C15.8027 1.54707 15.7754 1.69322 15.7197 1.82941C15.664 1.9656 15.581 2.08897 15.4759 2.19195L9.6079 7.99995L15.4759 13.868C15.6737 14.0614 15.7897 14.3235 15.7999 14.6C15.7999 14.9182 15.6735 15.2234 15.4484 15.4485C15.2234 15.6735 14.9182 15.8 14.5999 15.8C14.447 15.8063 14.2944 15.7808 14.1518 15.725C14.0093 15.6692 13.8799 15.5844 13.7719 15.4759L7.9999 9.64395L2.1799 15.464C2.07851 15.5687 1.95738 15.6523 1.82351 15.71C1.68963 15.7676 1.54566 15.7982 1.3999 15.8C1.08164 15.8 0.776418 15.6735 0.551374 15.4485C0.32633 15.2234 0.199902 14.9182 0.199902 14.6C0.197104 14.4528 0.224401 14.3067 0.280116 14.1705C0.335832 14.0343 0.418791 13.9109 0.523902 13.808L6.3919 7.99995L0.523902 2.13195C0.326124 1.93846 0.21015 1.67645 0.199902 1.39995C0.199902 1.08169 0.32633 0.776467 0.551374 0.551423C0.776418 0.326379 1.08164 0.199951 1.3999 0.199951C1.6879 0.203551 1.9639 0.319951 2.1679 0.523951Z" fill="#616161"/>
</svg>
