<svg width="30" height="30" viewBox="0 0 30 30" fill="none" xmlns="http://www.w3.org/2000/svg">
<path d="M18.4425 12.5C19.65 12.5 20.63 13.48 20.63 14.6875V18.75H20.625V19.0625C20.625 19.3111 20.5262 19.5496 20.3504 19.7254C20.1746 19.9012 19.9361 20 19.6875 20C19.4389 20 19.2004 19.9012 19.0246 19.7254C18.8488 19.5496 18.75 19.3111 18.75 19.0625V16.25H18.755V14.6875C18.755 14.6046 18.7221 14.5251 18.6635 14.4665C18.6049 14.4079 18.5254 14.375 18.4425 14.375H11.565C11.4821 14.375 11.4026 14.4079 11.344 14.4665C11.2854 14.5251 11.2525 14.6046 11.2525 14.6875V18.75H11.25V19.0625C11.25 19.3111 11.1512 19.5496 10.9754 19.7254C10.7996 19.9012 10.5611 20 10.3125 20C10.0639 20 9.8254 19.9012 9.64959 19.7254C9.47377 19.5496 9.375 19.3111 9.375 19.0625V16.25H9.3775V14.6875C9.3775 13.48 10.3562 12.5 11.565 12.5H18.4425Z" fill="#DBDBDB"/>
<path d="M25.625 14.6875V19.0625C25.625 19.3111 25.7238 19.5496 25.8996 19.7254C26.0754 19.9012 26.3139 20 26.5625 20C26.8111 20 27.0496 19.9012 27.2254 19.7254C27.4012 19.5496 27.5 19.3111 27.5 19.0625V14.6875C27.5 14.1073 27.2695 13.5509 26.8593 13.1407C26.4491 12.7305 25.8927 12.5 25.3125 12.5H21.0938C21.5225 13.0188 21.8025 13.665 21.8663 14.375H25.3125C25.3954 14.375 25.4749 14.4079 25.5335 14.4665C25.5921 14.5251 25.625 14.6046 25.625 14.6875Z" fill="#DBDBDB"/>
<path d="M2.5 19.0625C2.5 19.3111 2.59877 19.5496 2.77459 19.7254C2.9504 19.9012 3.18886 20 3.4375 20C3.68614 20 3.9246 19.9012 4.10041 19.7254C4.27623 19.5496 4.375 19.3111 4.375 19.0625V14.6875C4.375 14.6046 4.40792 14.5251 4.46653 14.4665C4.52513 14.4079 4.60462 14.375 4.6875 14.375H8.14125C8.20342 13.6863 8.47275 13.0326 8.91375 12.5H4.6875C4.10734 12.5 3.55094 12.7305 3.1407 13.1407C2.73047 13.5509 2.5 14.1073 2.5 14.6875V19.0625Z" fill="#DBDBDB"/>
<path d="M15 3.75C15.9946 3.75 16.9484 4.14509 17.6517 4.84835C18.3549 5.55161 18.75 6.50544 18.75 7.5C18.75 8.49456 18.3549 9.44839 17.6517 10.1517C16.9484 10.8549 15.9946 11.25 15 11.25C14.0054 11.25 13.0516 10.8549 12.3483 10.1517C11.6451 9.44839 11.25 8.49456 11.25 7.5C11.25 6.50544 11.6451 5.55161 12.3483 4.84835C13.0516 4.14509 14.0054 3.75 15 3.75ZM15 5.625C14.5027 5.625 14.0258 5.82254 13.6742 6.17417C13.3225 6.52581 13.125 7.00272 13.125 7.5C13.125 7.99728 13.3225 8.47419 13.6742 8.82583C14.0258 9.17746 14.5027 9.375 15 9.375C15.4973 9.375 15.9742 9.17746 16.3258 8.82583C16.6775 8.47419 16.875 7.99728 16.875 7.5C16.875 7.00272 16.6775 6.52581 16.3258 6.17417C15.9742 5.82254 15.4973 5.625 15 5.625Z" fill="#DBDBDB"/>
<path d="M23.125 5C23.9538 5 24.7487 5.32924 25.3347 5.91529C25.9208 6.50134 26.25 7.2962 26.25 8.125C26.25 8.9538 25.9208 9.74866 25.3347 10.3347C24.7487 10.9208 23.9538 11.25 23.125 11.25C22.2962 11.25 21.5013 10.9208 20.9153 10.3347C20.3292 9.74866 20 8.9538 20 8.125C20 7.2962 20.3292 6.50134 20.9153 5.91529C21.5013 5.32924 22.2962 5 23.125 5ZM23.125 6.875C22.7935 6.875 22.4755 7.0067 22.2411 7.24112C22.0067 7.47554 21.875 7.79348 21.875 8.125C21.875 8.45652 22.0067 8.77446 22.2411 9.00888C22.4755 9.2433 22.7935 9.375 23.125 9.375C23.4565 9.375 23.7745 9.2433 24.0089 9.00888C24.2433 8.77446 24.375 8.45652 24.375 8.125C24.375 7.79348 24.2433 7.47554 24.0089 7.24112C23.7745 7.0067 23.4565 6.875 23.125 6.875Z" fill="#DBDBDB"/>
<path d="M6.875 5C7.7038 5 8.49866 5.32924 9.08471 5.91529C9.67076 6.50134 10 7.2962 10 8.125C10 8.9538 9.67076 9.74866 9.08471 10.3347C8.49866 10.9208 7.7038 11.25 6.875 11.25C6.0462 11.25 5.25134 10.9208 4.66529 10.3347C4.07924 9.74866 3.75 8.9538 3.75 8.125C3.75 7.2962 4.07924 6.50134 4.66529 5.91529C5.25134 5.32924 6.0462 5 6.875 5ZM6.875 6.875C6.54348 6.875 6.22554 7.0067 5.99112 7.24112C5.7567 7.47554 5.625 7.79348 5.625 8.125C5.625 8.45652 5.7567 8.77446 5.99112 9.00888C6.22554 9.2433 6.54348 9.375 6.875 9.375C7.20652 9.375 7.52446 9.2433 7.75888 9.00888C7.9933 8.77446 8.125 8.45652 8.125 8.125C8.125 7.79348 7.9933 7.47554 7.75888 7.24112C7.52446 7.0067 7.20652 6.875 6.875 6.875Z" fill="#DBDBDB"/>
<path d="M3.4375 21.25C3.18886 21.25 2.9504 21.3488 2.77459 21.5246C2.59877 21.7004 2.5 21.9389 2.5 22.1875V22.8125C2.5 24.0557 2.99386 25.248 3.87294 26.1271C4.75201 27.0061 5.9443 27.5 7.1875 27.5H22.8125C24.0557 27.5 25.248 27.0061 26.1271 26.1271C27.0061 25.248 27.5 24.0557 27.5 22.8125V22.1875C27.5 21.9389 27.4012 21.7004 27.2254 21.5246C27.0496 21.3488 26.8111 21.25 26.5625 21.25H3.4375ZM7.1875 25.625C6.4957 25.625 5.82818 25.37 5.31255 24.9088C4.79693 24.4476 4.46937 23.8125 4.3925 23.125H25.6075C25.5306 23.8125 25.2031 24.4476 24.6874 24.9088C24.1718 25.37 23.5043 25.625 22.8125 25.625H7.1875Z" fill="#DBDBDB"/>
</svg>
