<svg width="20" height="20" viewBox="0 0 20 20" fill="none" xmlns="http://www.w3.org/2000/svg">
<path d="M10.6835 4.65002L10.0001 5.33502L9.31347 4.64836C8.6043 3.93828 7.67722 3.48693 6.68089 3.36669C5.68456 3.24644 4.67672 3.46427 3.81898 3.98524C2.96124 4.5062 2.3033 5.30013 1.95066 6.23969C1.59803 7.17925 1.57114 8.21002 1.87431 9.16669H4.79097L5.97431 6.66836C6.09048 6.423 6.27284 6.21494 6.50085 6.0676C6.72886 5.92025 6.99348 5.83948 7.2649 5.83437C7.53633 5.82926 7.80379 5.90002 8.03719 6.03867C8.27058 6.17733 8.46064 6.37838 8.58597 6.61919L10.236 9.79169L11.5501 8.07252C11.6814 7.901 11.849 7.76076 12.0411 7.66193C12.2331 7.56311 12.4446 7.50816 12.6605 7.50106C12.8763 7.49397 13.0911 7.5349 13.2892 7.6209C13.4872 7.7069 13.6638 7.83582 13.806 7.99835L14.8285 9.16669H18.1285C18.4292 8.20978 18.4004 7.17965 18.0466 6.24107C17.6927 5.30249 17.0344 4.50966 16.1768 3.98939C15.3192 3.46912 14.312 3.25146 13.3161 3.37123C12.3202 3.49099 11.3932 3.94126 10.6835 4.65002Z" fill="#F84A4A"/>
<path d="M9.55812 17.5625L4.07812 12.0834H5.71396C5.99023 12.0833 6.26081 12.0049 6.49421 11.857C6.7276 11.7092 6.91421 11.4981 7.03229 11.2484L7.35312 10.5709L8.70646 13.1725C8.81972 13.3902 8.98607 13.5758 9.19011 13.7121C9.39415 13.8484 9.62928 13.931 9.87373 13.9522C10.1182 13.9735 10.364 13.9328 10.5886 13.8338C10.8131 13.7348 11.009 13.5807 11.1581 13.3859L12.784 11.2592L13.069 11.5842C13.3456 11.9009 13.7465 12.0825 14.1665 12.0825H15.9248L10.4415 17.5625C10.3243 17.6796 10.1654 17.7453 9.99979 17.7453C9.83417 17.7453 9.67531 17.6796 9.55812 17.5625V17.5625Z" fill="#F84A4A"/>
<path d="M7.85033 7.01168C7.79781 6.90702 7.71694 6.81922 7.61695 6.75828C7.51695 6.69735 7.40185 6.66573 7.28475 6.66703C7.16766 6.66833 7.05329 6.70251 6.95468 6.76565C6.85606 6.8288 6.77717 6.91838 6.72699 7.02419L5.31866 9.99918H2.29199C2.12623 9.99918 1.96726 10.065 1.85005 10.1822C1.73284 10.2995 1.66699 10.4584 1.66699 10.6242C1.66699 10.7899 1.73284 10.9489 1.85005 11.0661C1.96726 11.1833 2.12623 11.2492 2.29199 11.2492H5.71449C5.83286 11.2492 5.94879 11.2156 6.04882 11.1523C6.14884 11.089 6.22883 10.9987 6.27949 10.8917L7.30783 8.72002L9.44116 12.9867C9.48912 13.0829 9.56109 13.1652 9.65013 13.2255C9.73916 13.2857 9.84225 13.322 9.94941 13.3308C10.0566 13.3396 10.1642 13.3206 10.2619 13.2757C10.3596 13.2307 10.444 13.1613 10.507 13.0742L12.7553 9.96085L13.697 11.0359C13.7555 11.103 13.8278 11.1568 13.9088 11.1938C13.9899 11.2307 14.0779 11.2499 14.167 11.25H17.7087C17.8744 11.25 18.0334 11.1842 18.1506 11.067C18.2678 10.9497 18.3337 10.7908 18.3337 10.625C18.3337 10.4593 18.2678 10.3003 18.1506 10.1831C18.0334 10.0659 17.8744 10 17.7087 10H14.4503L13.1787 8.54752C13.1168 8.47681 13.0398 8.42095 12.9534 8.3841C12.867 8.34726 12.7733 8.33037 12.6795 8.33469C12.5856 8.33901 12.494 8.36444 12.4113 8.40908C12.3286 8.45372 12.2571 8.51642 12.202 8.59252L10.0978 11.5059L7.85116 7.01252L7.85033 7.01168Z" fill="#F84A4A"/>
</svg>
