<?xml version="1.0" standalone="no"?>
<!DOCTYPE svg PUBLIC "-//W3C//DTD SVG 20010904//EN"
 "http://www.w3.org/TR/2001/REC-SVG-20010904/DTD/svg10.dtd">
<svg version="1.0" xmlns="http://www.w3.org/2000/svg"
 width="20" height="20" viewBox="0 0 512.000000 512.000000"
 preserveAspectRatio="xMidYMid meet">

<g transform="translate(0.000000,512.000000) scale(0.100000,-0.100000)"
fill="#000000" stroke="none">
<path d="M442 3105 c-242 -53 -420 -258 -439 -505 -32 -428 417 -728 807 -538
91 44 206 160 249 251 107 226 67 463 -108 638 -142 141 -319 195 -509 154z"/>
<path d="M2410 3104 c-283 -60 -474 -337 -432 -625 39 -268 282 -479 552 -479
231 0 448 158 528 384 36 102 36 250 0 352 -97 273 -370 428 -648 368z"/>
<path d="M4440 3105 c-107 -24 -186 -69 -271 -154 -54 -54 -85 -95 -108 -144
-107 -226 -67 -463 108 -638 121 -120 269 -178 426 -165 369 29 612 389 495
733 -91 266 -379 429 -650 368z"/>
</g>
</svg>
