<svg width="30" height="30" viewBox="0 0 30 30" fill="none" xmlns="http://www.w3.org/2000/svg">
<path d="M28.999 17.1104C29.0085 16.8886 28.9507 16.6691 28.8333 16.4816C28.716 16.2941 28.5447 16.1475 28.3426 16.0615L26.7896 15.5933C26.7064 15.3685 26.6232 15.1438 26.5215 14.9284L27.2425 13.5798C27.3508 13.3732 27.3904 13.1368 27.3554 12.9057C27.3204 12.6745 27.2128 12.461 27.0484 12.2968L25.7357 10.9763C25.5725 10.8113 25.3612 10.704 25.1331 10.6702C24.9049 10.6365 24.6721 10.6781 24.4692 10.789L23.1288 11.5007C22.8999 11.3884 22.6654 11.2884 22.4262 11.201L21.9824 9.72136C21.9084 9.50686 21.7692 9.3216 21.5849 9.19207C21.4006 9.06255 21.1806 8.9954 20.9563 9.00024H19.1074C18.8777 9.00005 18.6541 9.07457 18.4694 9.21281C18.2846 9.35106 18.1486 9.54574 18.0813 9.76818L17.6468 11.2104C17.4044 11.2973 17.1668 11.3973 16.935 11.5101L15.6222 10.7983C15.4203 10.6897 15.1895 10.6493 14.9633 10.683C14.7371 10.7167 14.5275 10.8227 14.365 10.9856L13.0245 12.2968C12.8581 12.4616 12.7491 12.6769 12.7141 12.9101C12.6791 13.1432 12.7199 13.3816 12.8304 13.5891L13.5145 14.8347C13.4071 15.0605 13.3114 15.2918 13.2279 15.5277L11.7673 15.9679C11.5452 16.0331 11.3502 16.1698 11.2117 16.3574C11.0732 16.545 10.9989 16.7732 11 17.0074V18.8804C11.0009 19.1131 11.0762 19.3391 11.2145 19.5248C11.3528 19.7105 11.5467 19.8459 11.7673 19.9106L13.2372 20.3508C13.3211 20.5804 13.4167 20.8055 13.5238 21.025L12.8027 22.3924C12.6944 22.5989 12.6548 22.8353 12.6898 23.0665C12.7248 23.2976 12.8325 23.5112 12.9968 23.6754L14.3095 24.9865C14.4716 25.153 14.6824 25.2621 14.9106 25.2975C15.1388 25.3329 15.3721 25.2928 15.576 25.1832L16.9442 24.4527C17.1568 24.5557 17.3787 24.64 17.6098 24.7243L18.0628 26.2414C18.1317 26.4621 18.2685 26.6547 18.453 26.7912C18.6376 26.9276 18.8604 27.0008 19.0889 27H20.9378C21.1675 27.0002 21.3911 26.9257 21.5759 26.7874C21.7606 26.6492 21.8966 26.4545 21.9639 26.232L22.3984 24.7524C22.6203 24.6774 22.8329 24.5838 23.0456 24.4808L24.4322 25.2206C24.6341 25.3292 24.865 25.3696 25.0912 25.336C25.3174 25.3023 25.527 25.1962 25.6895 25.0333L27.0022 23.7222C27.1686 23.5573 27.2776 23.3421 27.3126 23.1089C27.3476 22.8758 27.3068 22.6374 27.1963 22.4298L26.466 21.0719C26.5646 20.8596 26.654 20.6442 26.7341 20.4257L28.2317 19.9855C28.4538 19.9203 28.6488 19.7836 28.7873 19.596C28.9258 19.4084 29.0001 19.1802 28.999 18.946V17.1104ZM27.5199 18.6369L25.5693 19.2176L25.4584 19.6109C25.3443 19.9982 25.1893 20.3718 24.9961 20.7254L24.802 21.0812L25.7264 22.87L24.802 23.8065L22.9531 22.87L22.6111 23.0573C22.2581 23.249 21.8863 23.4028 21.5017 23.5162L21.1135 23.6285L20.5311 25.5859H19.3755L18.7931 23.6379L18.4048 23.5255C18.0171 23.4127 17.6422 23.2589 17.2862 23.0666L16.9442 22.8793L15.1508 23.8159L14.2263 22.8793L15.1508 21.0625L14.9474 20.7066C14.7619 20.3277 14.6193 19.9287 14.5222 19.5173L14.365 19.1708L12.5161 18.5808V17.3539L14.365 16.7827L14.4852 16.3987C14.6051 15.9972 14.7695 15.6108 14.9751 15.2468L15.197 14.8347L14.2726 13.1022L15.197 12.2218L16.9442 13.1584L17.2955 12.9617C17.665 12.7567 18.0556 12.5934 18.4603 12.4747L18.8393 12.3623L19.4217 10.4893H20.6975L21.2706 12.3623L21.6496 12.4747C22.0417 12.5958 22.4198 12.759 22.7775 12.9617L23.1288 13.1584L24.9037 12.2218L25.8281 13.1584L24.9037 14.9284L25.0978 15.2842C25.2917 15.644 25.4467 16.0239 25.56 16.4174L25.671 16.8107L27.5753 17.382L27.5199 18.6369Z" fill="white"/>
<path d="M19.92 14.0001C19.1325 14.0158 18.3671 14.2637 17.7199 14.7128C17.0728 15.1618 16.5725 15.792 16.282 16.5242C15.9915 17.2564 15.9236 18.0581 16.0869 18.8287C16.2501 19.5994 16.6373 20.3047 17.1997 20.8562C17.7622 21.4077 18.4749 21.7808 19.2486 21.9288C20.0223 22.0768 20.8224 21.993 21.5486 21.688C22.2749 21.383 22.8949 20.8704 23.331 20.2144C23.7671 19.5584 23.9998 18.7882 24 18.0004C23.9842 16.9305 23.5467 15.9101 22.7827 15.161C22.0187 14.4119 20.9899 13.9947 19.92 14.0001ZM19.92 20.4607C19.4416 20.4508 18.9768 20.3 18.5839 20.027C18.1909 19.7541 17.8872 19.3712 17.7109 18.9263C17.5347 18.4815 17.4936 17.9945 17.5929 17.5264C17.6923 17.0583 17.9276 16.63 18.2693 16.2951C18.6111 15.9602 19.0441 15.7337 19.514 15.6439C19.984 15.5541 20.47 15.6051 20.9111 15.7904C21.3522 15.9757 21.7288 16.2871 21.9937 16.6856C22.2586 17.0841 22.3999 17.5519 22.4 18.0304C22.3974 18.3535 22.3312 18.6729 22.2051 18.9704C22.0791 19.2679 21.8957 19.5376 21.6654 19.7642C21.4351 19.9908 21.1624 20.1698 20.8629 20.2911C20.5635 20.4123 20.2431 20.4733 19.92 20.4707V20.4607Z" fill="white"/>
<path d="M11.0529 25.4H2.91667V4.6H22.0833V10.912C22.5016 11.0145 22.8889 11.1902 23.2194 11.4275C23.5499 11.6647 23.816 11.9581 24 12.288V4.6C24 4.17565 23.7981 3.76869 23.4386 3.46863C23.0792 3.16857 22.5917 3 22.0833 3H2.91667C2.40833 3 1.92082 3.16857 1.56138 3.46863C1.20193 3.76869 1 4.17565 1 4.6V25.4C1 25.8243 1.20193 26.2313 1.56138 26.5314C1.92082 26.8314 2.40833 27 2.91667 27H12.7204L11.6663 26.136C11.4101 25.9237 11.2023 25.6743 11.0529 25.4Z" fill="white"/>
</svg>
