<svg width="25" height="25" viewBox="0 0 25 25" fill="none" xmlns="http://www.w3.org/2000/svg">
    <path d="M20.8333 4.16699H4.16665C3.02081 4.16699 2.09373 5.10449 2.09373 6.25033L2.08331 18.7503C2.08331 19.8962 3.02081 20.8337 4.16665 20.8337H20.8333C21.9791 20.8337 22.9166 19.8962 22.9166 18.7503V6.25033C22.9166 5.10449 21.9791 4.16699 20.8333 4.16699ZM20.4166 8.59407L13.0521 13.1982C12.7187 13.4066 12.2812 13.4066 11.9479 13.1982L4.58331 8.59407C4.47886 8.53544 4.3874 8.45622 4.31445 8.36121C4.2415 8.26621 4.18859 8.15739 4.15891 8.04134C4.12924 7.92529 4.12342 7.80442 4.14181 7.68606C4.1602 7.5677 4.20241 7.4543 4.2659 7.35272C4.32938 7.25115 4.41282 7.16351 4.51115 7.09511C4.60949 7.02672 4.72068 6.97898 4.838 6.9548C4.95531 6.93062 5.07632 6.9305 5.19368 6.95444C5.31105 6.97838 5.42234 7.02588 5.52081 7.09407L12.5 11.4587L19.4791 7.09407C19.5776 7.02588 19.6889 6.97838 19.8063 6.95444C19.9236 6.9305 20.0446 6.93062 20.162 6.9548C20.2793 6.97898 20.3905 7.02672 20.4888 7.09511C20.5871 7.16351 20.6706 7.25115 20.7341 7.35272C20.7975 7.4543 20.8398 7.5677 20.8582 7.68606C20.8765 7.80442 20.8707 7.92529 20.841 8.04134C20.8114 8.15739 20.7585 8.26621 20.6855 8.36121C20.6126 8.45622 20.5211 8.53544 20.4166 8.59407Z" fill="#616161" fill-opacity="0.7"/>
</svg>
