<svg width="25" height="25" viewBox="0 0 25 25" fill="none" xmlns="http://www.w3.org/2000/svg">
    <path d="M21.3541 0C22.0448 0 22.7072 0.274367 23.1956 0.762743C23.6839 1.25112 23.9583 1.9135 23.9583 2.60417V3.125C24.2346 3.125 24.4995 3.23475 24.6949 3.4301C24.8902 3.62545 25 3.8904 25 4.16667V8.33333C25 8.6096 24.8902 8.87455 24.6949 9.0699C24.4995 9.26525 24.2346 9.375 23.9583 9.375H18.75C18.4737 9.375 18.2088 9.26525 18.0134 9.0699C17.8181 8.87455 17.7083 8.6096 17.7083 8.33333V4.16667C17.7083 3.8904 17.8181 3.62545 18.0134 3.4301C18.2088 3.23475 18.4737 3.125 18.75 3.125V2.60417C18.75 1.9135 19.0243 1.25112 19.5127 0.762743C20.0011 0.274367 20.6635 0 21.3541 0V0ZM12.5 11.4583L4.16665 6.25V8.33333L12.5 13.5417L16.8541 10.8229C17.3854 11.2188 18.0416 11.4583 18.75 11.4583H22.9166V18.75C22.9166 19.3025 22.6972 19.8324 22.3065 20.2231C21.9158 20.6138 21.3858 20.8333 20.8333 20.8333H4.16665C3.61411 20.8333 3.08421 20.6138 2.69351 20.2231C2.30281 19.8324 2.08331 19.3025 2.08331 18.75V6.25C2.08331 5.69747 2.30281 5.16756 2.69351 4.77686C3.08421 4.38616 3.61411 4.16667 4.16665 4.16667H15.625V8.33333C15.625 8.70833 15.6875 9.0625 15.8125 9.375L12.5 11.4583ZM21.3541 1.04167C20.9397 1.04167 20.5423 1.20629 20.2493 1.49931C19.9563 1.79234 19.7916 2.18977 19.7916 2.60417V3.125H22.9166V2.60417C22.9166 2.18977 22.752 1.79234 22.459 1.49931C22.166 1.20629 21.7685 1.04167 21.3541 1.04167Z" fill="#616161" fill-opacity="0.7"/>
</svg>
