<svg width="24" height="23" viewBox="0 0 24 23" fill="none" xmlns="http://www.w3.org/2000/svg">
    <path d="M13.5 12C14.2956 12 15.0587 12.3161 15.6213 12.8787C16.1839 13.4413 16.5 14.2044 16.5 15V17.25C16.5 20.331 13.368 22.5 8.25 22.5C3.132 22.5 0 20.331 0 17.25V15C0 14.2044 0.31607 13.4413 0.87868 12.8787C1.44129 12.3161 2.20435 12 3 12H13.5ZM13.5 13.5H3C2.60218 13.5 2.22064 13.658 1.93934 13.9393C1.65804 14.2206 1.5 14.6022 1.5 15V17.25C1.5 19.3605 3.8685 21 8.25 21C12.6315 21 15 19.3605 15 17.25V15C15 14.6022 14.842 14.2206 14.5607 13.9393C14.2794 13.658 13.8978 13.5 13.5 13.5ZM21 12C21.7956 12 22.5587 12.3161 23.1213 12.8787C23.6839 13.4413 24 14.2044 24 15V15.75C24 18.8835 21.648 21 17.25 21C17.0385 21 16.83 20.9955 16.629 20.985C16.941 20.622 17.202 20.232 17.412 19.8135L17.5575 19.494H17.616C20.964 19.3965 22.5 17.94 22.5 15.75V15C22.5 14.6022 22.342 14.2206 22.0607 13.9393C21.7794 13.658 21.3978 13.5 21 13.5H17.7435C17.5472 12.9467 17.2445 12.4371 16.8525 12H21ZM8.25 0C8.93944 -1.02735e-08 9.62213 0.135795 10.2591 0.399632C10.896 0.66347 11.4748 1.05018 11.9623 1.53769C12.4498 2.0252 12.8365 2.60395 13.1004 3.24091C13.3642 3.87787 13.5 4.56056 13.5 5.25C13.5 5.93944 13.3642 6.62213 13.1004 7.25909C12.8365 7.89605 12.4498 8.4748 11.9623 8.96231C11.4748 9.44982 10.896 9.83653 10.2591 10.1004C9.62213 10.3642 8.93944 10.5 8.25 10.5C6.85761 10.5 5.52226 9.94688 4.53769 8.96231C3.55312 7.97775 3 6.64239 3 5.25C3 3.85761 3.55312 2.52226 4.53769 1.53769C5.52226 0.553123 6.85761 2.07482e-08 8.25 0ZM18.75 3C19.7446 3 20.6984 3.39509 21.4016 4.09835C22.1049 4.80161 22.5 5.75544 22.5 6.75C22.5 7.74456 22.1049 8.69839 21.4016 9.40165C20.6984 10.1049 19.7446 10.5 18.75 10.5C17.7554 10.5 16.8016 10.1049 16.0984 9.40165C15.3951 8.69839 15 7.74456 15 6.75C15 5.75544 15.3951 4.80161 16.0984 4.09835C16.8016 3.39509 17.7554 3 18.75 3ZM8.25 1.5C7.25544 1.5 6.30161 1.89509 5.59835 2.59835C4.89509 3.30161 4.5 4.25544 4.5 5.25C4.5 6.24456 4.89509 7.19839 5.59835 7.90165C6.30161 8.60491 7.25544 9 8.25 9C9.24456 9 10.1984 8.60491 10.9017 7.90165C11.6049 7.19839 12 6.24456 12 5.25C12 4.25544 11.6049 3.30161 10.9017 2.59835C10.1984 1.89509 9.24456 1.5 8.25 1.5ZM18.75 4.5C18.1533 4.5 17.581 4.73705 17.159 5.15901C16.7371 5.58097 16.5 6.15326 16.5 6.75C16.5 7.34674 16.7371 7.91903 17.159 8.34099C17.581 8.76295 18.1533 9 18.75 9C19.3467 9 19.919 8.76295 20.341 8.34099C20.7629 7.91903 21 7.34674 21 6.75C21 6.15326 20.7629 5.58097 20.341 5.15901C19.919 4.73705 19.3467 4.5 18.75 4.5Z" fill="#DBDBDB"/>
</svg>
