<svg width="30" height="28" viewBox="0 0 30 28" fill="none" xmlns="http://www.w3.org/2000/svg">
<path d="M3.68572 16.27L16.4143 16.2714C17.1279 16.2712 17.8152 16.5407 18.3385 17.0259C18.8618 17.5112 19.1823 18.1763 19.2358 18.8879L19.2429 19.1V21.2214C19.2414 26.1714 13.9874 27.5857 10.05 27.5857C6.20032 27.5857 1.0905 26.2337 0.864219 21.5467L0.857147 21.2214V19.0986C0.857147 17.6079 2.0112 16.386 3.47358 16.2771L3.68572 16.2714V16.27ZM19.554 16.2714H26.3143C27.8049 16.2714 29.0269 17.4255 29.1344 18.8879L29.1429 19.1V20.5143C29.1414 24.8448 25.1008 26.1714 22.0714 26.1714C21.0453 26.1739 20.0248 26.0203 19.0449 25.716C19.5201 25.1701 19.9033 24.5464 20.1791 23.8393C20.8004 23.9781 21.4349 24.0488 22.0714 24.05L22.449 24.0415C23.8421 23.9807 26.8135 23.5281 27.0115 20.8042L27.0214 20.5143V19.1C27.0212 18.9346 26.9631 18.7744 26.8572 18.6473C26.7513 18.5202 26.6043 18.4342 26.4416 18.4042L26.3143 18.3929H20.585C20.4681 17.7005 20.1787 17.0488 19.7435 16.4977L19.554 16.2714H26.3143H19.554ZM3.68572 18.3914L3.54429 18.4056C3.40855 18.4338 3.28383 18.5006 3.18506 18.5979C3.08773 18.6961 3.02092 18.8204 2.99272 18.9557L2.97858 19.0986V21.2214C2.97858 22.6484 3.615 23.6568 4.98262 24.3923C6.15082 25.0216 7.81543 25.4021 9.60168 25.4572L10.05 25.4643L10.4983 25.4572C12.2846 25.4021 13.9478 25.0216 15.1174 24.3923C16.3987 23.7021 17.0394 22.7729 17.1144 21.4831L17.1214 21.22V19.1C17.1212 18.9346 17.0631 18.7744 16.9572 18.6473C16.8513 18.5202 16.7043 18.4342 16.5416 18.4042L16.4143 18.3929L3.68572 18.3914ZM10.05 0.714287C11.7379 0.714287 13.3567 1.38481 14.5502 2.57834C15.7438 3.77188 16.4143 5.39066 16.4143 7.07857C16.4143 8.76649 15.7438 10.3853 14.5502 11.5788C13.3567 12.7723 11.7379 13.4429 10.05 13.4429C8.36209 13.4429 6.74331 12.7723 5.54977 11.5788C4.35624 10.3853 3.68572 8.76649 3.68572 7.07857C3.68572 5.39066 4.35624 3.77188 5.54977 2.57834C6.74331 1.38481 8.36209 0.714287 10.05 0.714287ZM22.7786 3.54286C24.0914 3.54286 25.3504 4.06438 26.2788 4.99268C27.2071 5.92099 27.7286 7.18004 27.7286 8.49286C27.7286 9.80568 27.2071 11.0647 26.2788 11.993C25.3504 12.9213 24.0914 13.4429 22.7786 13.4429C21.4658 13.4429 20.2067 12.9213 19.2784 11.993C18.3501 11.0647 17.8286 9.80568 17.8286 8.49286C17.8286 7.18004 18.3501 5.92099 19.2784 4.99268C20.2067 4.06438 21.4658 3.54286 22.7786 3.54286ZM10.05 2.83572C7.71078 2.83572 5.80715 4.73934 5.80715 7.07857C5.80715 9.4178 7.71078 11.3214 10.05 11.3214C12.3892 11.3214 14.2929 9.4178 14.2929 7.07857C14.2929 4.73934 12.3892 2.83572 10.05 2.83572ZM22.7786 5.66429C21.2186 5.66429 19.95 6.9329 19.95 8.49286C19.95 10.0528 21.2186 11.3214 22.7786 11.3214C24.3385 11.3214 25.6071 10.0528 25.6071 8.49286C25.6071 6.9329 24.3385 5.66429 22.7786 5.66429Z" fill="#DBDBDB"/>
</svg>
