<svg width="24" height="24" viewBox="0 0 24 24" fill="none" xmlns="http://www.w3.org/2000/svg">
    <path fill-rule="evenodd" clip-rule="evenodd" d="M0 3.1C0 1.9408 0.9408 1 2.1 1H8.0652C8.7612 1 9.4092 1.3432 9.8016 1.918L11.4864 4.3936C11.5139 4.43423 11.5509 4.46751 11.5942 4.49052C11.6375 4.51353 11.6858 4.52558 11.7348 4.5256H21.9C23.0592 4.5256 24 5.4652 24 6.6256V20.5C24 21.057 23.7788 21.5911 23.3849 21.9849C22.9911 22.3787 22.457 22.6 21.9 22.6H2.1C1.54305 22.6 1.0089 22.3787 0.615076 21.9849C0.221249 21.5911 0 21.057 0 20.5V3.1Z" fill="#7B61FF"/>
</svg>
