<svg width="20" height="20" viewBox="0 0 20 20" fill="#F84A4A" xmlns="http://www.w3.org/2000/svg">
    <path d="M10.6832 4.64959L9.99989 5.33459L9.31323 4.64793C8.60406 3.93785 7.67697 3.4865 6.68065 3.36626C5.68432 3.24602 4.67648 3.46384 3.81873 3.98481C2.96099 4.50578 2.30305 5.2997 1.95042 6.23926C1.59779 7.17882 1.5709 8.20959 1.87406 9.16626H4.79073L5.97406 6.66793C6.09024 6.42257 6.2726 6.21451 6.50061 6.06717C6.72862 5.91983 6.99323 5.83906 7.26466 5.83395C7.53608 5.82884 7.80355 5.89959 8.03694 6.03825C8.27034 6.1769 8.4604 6.37795 8.58573 6.61876L10.2357 9.79126L11.5499 8.07209C11.6811 7.90057 11.8488 7.76033 12.0408 7.6615C12.2328 7.56268 12.4444 7.50773 12.6602 7.50064C12.8761 7.49354 13.0908 7.53447 13.2889 7.62047C13.487 7.70647 13.6635 7.83539 13.8057 7.99793L14.8282 9.16626H18.1282C18.429 8.20935 18.4001 7.17923 18.0463 6.24064C17.6925 5.30206 17.0342 4.50923 16.1766 3.98896C15.319 3.46869 14.3117 3.25104 13.3158 3.3708C12.32 3.49057 11.393 3.94083 10.6832 4.64959Z" fill="#F84A4A"/>
    <path d="M9.55812 17.562L4.07812 12.0828H5.71396C5.99023 12.0828 6.26081 12.0043 6.49421 11.8565C6.7276 11.7087 6.91421 11.4976 7.03229 11.2478L7.35312 10.5703L8.70646 13.172C8.81972 13.3896 8.98607 13.5752 9.19011 13.7115C9.39415 13.8478 9.62928 13.9304 9.87373 13.9517C10.1182 13.973 10.364 13.9322 10.5886 13.8332C10.8131 13.7342 11.009 13.5801 11.1581 13.3853L12.784 11.2586L13.069 11.5836C13.3456 11.9003 13.7465 12.082 14.1665 12.082H15.9248L10.4415 17.562C10.3243 17.679 10.1654 17.7448 9.99979 17.7448C9.83417 17.7448 9.67531 17.679 9.55812 17.562Z" fill="#F84A4A"/>
    <path d="M7.84984 7.01168C7.79732 6.90702 7.71645 6.81922 7.61646 6.75828C7.51646 6.69735 7.40136 6.66573 7.28427 6.66703C7.16717 6.66833 7.0528 6.70251 6.95419 6.76565C6.85557 6.8288 6.77668 6.91838 6.7265 7.02419L5.31817 9.99918H2.2915C2.12574 9.99918 1.96677 10.065 1.84956 10.1822C1.73235 10.2995 1.6665 10.4584 1.6665 10.6242C1.6665 10.7899 1.73235 10.9489 1.84956 11.0661C1.96677 11.1833 2.12574 11.2492 2.2915 11.2492H5.714C5.83237 11.2492 5.94831 11.2156 6.04833 11.1523C6.14835 11.089 6.22834 10.9987 6.279 10.8917L7.30734 8.72002L9.44067 12.9867C9.48863 13.0829 9.5606 13.1652 9.64964 13.2255C9.73868 13.2857 9.84176 13.322 9.94893 13.3308C10.0561 13.3396 10.1637 13.3206 10.2614 13.2757C10.3591 13.2307 10.4435 13.1613 10.5065 13.0742L12.7548 9.96085L13.6965 11.0359C13.7551 11.103 13.8273 11.1568 13.9083 11.1938C13.9894 11.2307 14.0774 11.2499 14.1665 11.25H17.7082C17.8739 11.25 18.0329 11.1842 18.1501 11.067C18.2673 10.9497 18.3332 10.7908 18.3332 10.625C18.3332 10.4593 18.2673 10.3003 18.1501 10.1831C18.0329 10.0659 17.8739 10 17.7082 10H14.4498L13.1782 8.54752C13.1163 8.47681 13.0393 8.42095 12.9529 8.3841C12.8665 8.34726 12.7728 8.33037 12.679 8.33469C12.5851 8.33901 12.4935 8.36444 12.4108 8.40908C12.3281 8.45372 12.2566 8.51642 12.2015 8.59252L10.0973 11.5059L7.85067 7.01252L7.84984 7.01168Z" fill="#F84A4A"/>
</svg>
