<svg width="20" height="20" viewBox="0 0 20 20" fill="none" xmlns="http://www.w3.org/2000/svg">
    <path d="M10.6833 4.64959L10 5.33459L9.31335 4.64793C8.60418 3.93785 7.6771 3.4865 6.68077 3.36626C5.68444 3.24602 4.6766 3.46384 3.81886 3.98481C2.96112 4.50578 2.30317 5.2997 1.95054 6.23926C1.59791 7.17882 1.57102 8.20959 1.87418 9.16626H4.79085L5.97418 6.66793C6.09036 6.42257 6.27272 6.21451 6.50073 6.06717C6.72874 5.91983 6.99335 5.83906 7.26478 5.83395C7.53621 5.82884 7.80367 5.89959 8.03707 6.03825C8.27046 6.1769 8.46052 6.37795 8.58585 6.61876L10.2358 9.79126L11.55 8.07209C11.6812 7.90057 11.8489 7.76033 12.0409 7.6615C12.2329 7.56268 12.4445 7.50773 12.6604 7.50064C12.8762 7.49354 13.0909 7.53447 13.289 7.62047C13.4871 7.70647 13.6636 7.83539 13.8058 7.99793L14.8284 9.16626H18.1283C18.4291 8.20935 18.4002 7.17923 18.0464 6.24064C17.6926 5.30206 17.0343 4.50923 16.1767 3.98896C15.3191 3.46869 14.3118 3.25104 13.316 3.3708C12.3201 3.49057 11.3931 3.94083 10.6833 4.64959Z" fill="white"/>
    <path d="M9.55832 17.562L4.07832 12.0828H5.71416C5.99043 12.0828 6.26101 12.0043 6.49441 11.8565C6.7278 11.7087 6.9144 11.4976 7.03249 11.2478L7.35332 10.5703L8.70666 13.172C8.81991 13.3896 8.98627 13.5752 9.1903 13.7115C9.39434 13.8478 9.62947 13.9304 9.87392 13.9517C10.1184 13.973 10.3642 13.9322 10.5888 13.8332C10.8133 13.7342 11.0092 13.5801 11.1583 13.3853L12.7842 11.2586L13.0692 11.5836C13.3458 11.9003 13.7467 12.082 14.1667 12.082H15.925L10.4417 17.562C10.3245 17.679 10.1656 17.7448 9.99999 17.7448C9.83436 17.7448 9.67551 17.679 9.55832 17.562Z" fill="white"/>
    <path d="M7.85001 7.01071C7.79749 6.90605 7.71662 6.81824 7.61663 6.75731C7.51663 6.69637 7.40153 6.66475 7.28443 6.66605C7.16734 6.66736 7.05297 6.70153 6.95436 6.76468C6.85574 6.82782 6.77685 6.9174 6.72667 7.02321L5.31834 9.99821H2.29167C2.12591 9.99821 1.96694 10.0641 1.84973 10.1813C1.73252 10.2985 1.66667 10.4574 1.66667 10.6232C1.66667 10.789 1.73252 10.9479 1.84973 11.0652C1.96694 11.1824 2.12591 11.2482 2.29167 11.2482H5.71417C5.83254 11.2482 5.94847 11.2146 6.0485 11.1514C6.14852 11.0881 6.22851 10.9977 6.27917 10.8907L7.30751 8.71904L9.44084 12.9857C9.4888 13.0819 9.56077 13.1642 9.64981 13.2245C9.73884 13.2848 9.84193 13.3211 9.94909 13.3299C10.0563 13.3387 10.1639 13.3197 10.2616 13.2747C10.3592 13.2297 10.4437 13.1603 10.5067 13.0732L12.755 9.95988L13.6967 11.0349C13.7552 11.102 13.8275 11.1558 13.9085 11.1928C13.9896 11.2297 14.0776 11.2489 14.1667 11.249H17.7083C17.8741 11.249 18.0331 11.1832 18.1503 11.066C18.2675 10.9488 18.3333 10.7898 18.3333 10.624C18.3333 10.4583 18.2675 10.2993 18.1503 10.1821C18.0331 10.0649 17.8741 9.99904 17.7083 9.99904H14.45L13.1783 8.54654C13.1165 8.47583 13.0395 8.41997 12.9531 8.38313C12.8666 8.34628 12.773 8.32939 12.6792 8.33371C12.5853 8.33804 12.4936 8.36346 12.411 8.4081C12.3283 8.45274 12.2568 8.51544 12.2017 8.59154L10.0975 11.5049L7.85084 7.01154L7.85001 7.01071Z" fill="white"/>
</svg>
