<svg width="25" height="26" viewBox="0 0 25 26" fill="none" xmlns="http://www.w3.org/2000/svg">
<path d="M8.66625 24.1694C3.66563 23.5994 0.75 20.1307 0.75 16.75V15.8125C0.75 15.0666 1.04632 14.3512 1.57376 13.8238C2.10121 13.2964 2.81658 13 3.5625 13H7.5C7.19336 13.5993 6.94654 14.2273 6.76312 14.875H3.5625C3.31386 14.875 3.0754 14.9738 2.89959 15.1496C2.72377 15.3254 2.625 15.5639 2.625 15.8125V16.75C2.625 18.865 4.27875 21.1244 7.31625 22C7.67625 22.78 8.13188 23.5075 8.66625 24.1694ZM15.0488 7.50442C15.3558 6.51933 15.3602 5.46479 15.0614 4.47718C14.7626 3.48956 14.1744 2.6143 13.3728 1.96458C12.5713 1.31486 11.5932 0.920572 10.5651 0.8327C9.53708 0.744829 8.50629 0.967419 7.60609 1.47168C6.70589 1.97595 5.97768 2.7387 5.51564 3.66128C5.0536 4.58387 4.87898 5.62386 5.01436 6.64675C5.14974 7.66965 5.5889 8.62841 6.27504 9.39903C6.96117 10.1697 7.86274 10.7167 8.86312 10.9694C9.45485 10.281 10.1344 9.67334 10.8844 9.16192C10.1145 9.34592 9.30396 9.24539 8.60233 8.87885C7.9007 8.51232 7.35523 7.90449 7.06648 7.16742C6.77773 6.43036 6.76517 5.61376 7.03112 4.86816C7.29707 4.12257 7.8236 3.49826 8.51363 3.11032C9.20366 2.72238 10.0107 2.59698 10.7859 2.75723C11.5611 2.91748 12.2523 3.35258 12.7319 3.98231C13.2116 4.61204 13.4474 5.39394 13.396 6.18387C13.3445 6.9738 13.0092 7.7185 12.4519 8.28067C13.2793 7.90796 14.1525 7.64693 15.0488 7.50442ZM9.44063 16.6C9.92481 16.4762 10.3794 16.2568 10.7775 15.9548C11.1757 15.6528 11.5095 15.2742 11.7593 14.8413C12.0091 14.4085 12.1699 13.93 12.2321 13.4342C12.2944 12.9383 12.2569 12.435 12.1219 11.9538L11.8294 10.9094C12.3056 10.5438 12.8231 10.2307 13.3706 9.97754L14.0025 10.6488C14.3529 11.0206 14.7756 11.3169 15.2447 11.5195C15.7138 11.7221 16.2193 11.8266 16.7302 11.8268C17.2412 11.827 17.7467 11.7228 18.2159 11.5205C18.6851 11.3183 19.1081 11.0223 19.4587 10.6507L20.0681 10.0057C20.625 10.2682 21.15 10.5963 21.6319 10.9769L21.3956 11.77C21.2494 12.2595 21.2046 12.7736 21.2642 13.281C21.3237 13.7883 21.4863 14.2782 21.7419 14.7204C21.9976 15.1627 22.3409 15.548 22.7508 15.8529C23.1607 16.1577 23.6285 16.3756 24.1256 16.4932L24.7819 16.6469C24.8571 17.28 24.8634 17.9194 24.8006 18.5538L23.9363 18.775C23.4523 18.8989 22.9979 19.1182 22.5999 19.4201C22.2018 19.722 21.8681 20.1004 21.6184 20.533C21.3686 20.9657 21.2078 21.4439 21.1454 21.9396C21.083 22.4352 21.1203 22.9384 21.255 23.4194L21.5456 24.4638C21.0694 24.8294 20.5519 25.1444 20.0044 25.3975L19.3725 24.7263C19.0222 24.3543 18.5996 24.0579 18.1306 23.8552C17.6616 23.6524 17.1561 23.5477 16.6452 23.5473C16.1342 23.547 15.6286 23.651 15.1594 23.8531C14.6901 24.0552 14.2671 24.3511 13.9163 24.7225L13.3088 25.3675C12.7516 25.1044 12.2264 24.7785 11.7431 24.3963L11.9794 23.605C12.1259 23.1155 12.1709 22.6011 12.1115 22.0936C12.0521 21.586 11.8896 21.096 11.6339 20.6535C11.3783 20.211 11.0349 19.8254 10.6248 19.5205C10.2148 19.2155 9.7467 18.9976 9.24938 18.88L8.59313 18.7263C8.51805 18.0938 8.51177 17.4551 8.57437 16.8213L9.44063 16.6ZM18.5625 17.6875C18.5625 17.1903 18.365 16.7133 18.0133 16.3617C17.6617 16.0101 17.1848 15.8125 16.6875 15.8125C16.1902 15.8125 15.7133 16.0101 15.3617 16.3617C15.01 16.7133 14.8125 17.1903 14.8125 17.6875C14.8125 18.1848 15.01 18.6617 15.3617 19.0134C15.7133 19.365 16.1902 19.5625 16.6875 19.5625C17.1848 19.5625 17.6617 19.365 18.0133 19.0134C18.365 18.6617 18.5625 18.1848 18.5625 17.6875Z" fill="#DBDBDB"/>
</svg>
