<svg width="30" height="30" viewBox="0 0 30 30" fill="none" xmlns="http://www.w3.org/2000/svg">
<g clip-path="url(#clip0_39:117)">
<path d="M17.894 9.46962C17.894 9.83932 17.7471 10.1939 17.4857 10.4553C17.2243 10.7167 16.8697 10.8636 16.5 10.8636C16.1303 10.8636 15.7758 10.7167 15.5144 10.4553C15.2529 10.1939 15.1061 9.83932 15.1061 9.46962C15.1061 9.09993 15.2529 8.74537 15.5144 8.48396C15.7758 8.22254 16.1303 8.07568 16.5 8.07568C16.8697 8.07568 17.2243 8.22254 17.4857 8.48396C17.7471 8.74537 17.894 9.09993 17.894 9.46962Z" fill="white"/>
<path d="M15.4545 13.3031V20.2728C15.4545 20.5501 15.5647 20.816 15.7607 21.012C15.9568 21.2081 16.2227 21.3182 16.5 21.3182C16.7773 21.3182 17.0432 21.2081 17.2392 21.012C17.4353 20.816 17.5454 20.5501 17.5454 20.2728V13.3031C17.5454 13.0258 17.4353 12.7599 17.2392 12.5638C17.0432 12.3678 16.7773 12.2576 16.5 12.2576C16.2227 12.2576 15.9568 12.3678 15.7607 12.5638C15.5647 12.7599 15.4545 13.0258 15.4545 13.3031Z" fill="white"/>
<path d="M5 5.98485C5 5.06061 5.36715 4.17422 6.02069 3.52069C6.67422 2.86715 7.56061 2.5 8.48485 2.5H24.5152C24.9728 2.5 25.4259 2.59014 25.8487 2.76527C26.2715 2.9404 26.6557 3.19709 26.9793 3.52069C27.3029 3.84429 27.5596 4.22845 27.7347 4.65125C27.9099 5.07406 28 5.52721 28 5.98485V25.8485C28 26.1258 27.8899 26.3917 27.6938 26.5877C27.4977 26.7838 27.2318 26.8939 26.9545 26.8939H7.09091C7.09091 27.2636 7.23777 27.6182 7.49918 27.8796C7.7606 28.141 8.11515 28.2879 8.48485 28.2879H26.9545C27.2318 28.2879 27.4977 28.398 27.6938 28.5941C27.8899 28.7901 28 29.0561 28 29.3333C28 29.6106 27.8899 29.8765 27.6938 30.0726C27.4977 30.2686 27.2318 30.3788 26.9545 30.3788H8.48485C7.56061 30.3788 6.67422 30.0116 6.02069 29.3581C5.36715 28.7046 5 27.8182 5 26.8939V5.98485ZM25.9091 24.803V5.98485C25.9091 5.61515 25.7622 5.2606 25.5008 4.99918C25.2394 4.73777 24.8848 4.59091 24.5152 4.59091H8.48485C8.11515 4.59091 7.7606 4.73777 7.49918 4.99918C7.23777 5.2606 7.09091 5.61515 7.09091 5.98485V24.803H25.9091Z" fill="white"/>
</g>
<defs>
<clipPath id="clip0_39:117">
<rect width="30" height="30" fill="white"/>
</clipPath>
</defs>
</svg>
