<svg width="24" height="24" viewBox="0 0 24 24" fill="none" xmlns="http://www.w3.org/2000/svg">
<path d="M15.6173 4.125L13.7762 3.315L12.0866 4.125L10.278 3.315L8.57762 4.125L6 3V21L8.57762 19.875L10.278 20.6512L12.0866 19.875L13.7762 20.6512L15.6173 19.875L18 21V3L15.6173 4.125ZM16.6354 18.8737L15.639 18.4125L13.8087 19.1888L12.1083 18.3787L10.2888 19.155L8.61011 18.3787L7.36462 18.9075V5.0925L8.61011 5.62125L10.2888 4.845L12.1083 5.62125L13.8087 4.845L15.639 5.62125L16.6354 5.16V18.8737Z" fill="#808080"/>
<path d="M10 11.5973H14V12.4293H10V11.5973ZM10 13.1681H14V14H10V13.1681ZM10 10H14V10.8319H10V10Z" fill="#808080"/>
</svg>
