<svg width="24" height="24" viewBox="0 0 24 24" fill="none" xmlns="http://www.w3.org/2000/svg">
    <path d="M21.3571 12.5V16.9231H1.64286V2.76923H9.85714V1H1.64286C1.20714 1 0.789277 1.1864 0.481182 1.5182C0.173086 1.84999 0 2.3 0 2.76923V16.9231C0 17.3923 0.173086 17.8423 0.481182 18.1741C0.789277 18.5059 1.20714 18.6923 1.64286 18.6923H8.21429V22.2308H4.92857V24H18.0714V22.2308H14.7857V18.6923H21.3571C21.7929 18.6923 22.2107 18.5059 22.5188 18.1741C22.8269 17.8423 23 17.3923 23 16.9231V12.5H21.3571ZM13.1429 22.2308H9.85714V18.6923H13.1429V22.2308Z" fill="#464C52"/>
    <path d="M23 6.85714V5.14286H21.1991C21.0886 4.6063 20.8756 4.09612 20.5717 3.64029L21.8489 2.36314L20.6369 1.15114L19.3597 2.42829C18.9039 2.12444 18.3937 1.9114 17.8571 1.80086V0H16.1429V1.80086C15.6063 1.9114 15.0961 2.12444 14.6403 2.42829L13.3631 1.15114L12.1511 2.36314L13.4283 3.64029C13.1244 4.09612 12.9114 4.6063 12.8009 5.14286H11V6.85714H12.8009C12.9114 7.3937 13.1244 7.90388 13.4283 8.35971L12.1511 9.63686L13.3631 10.8489L14.6403 9.57171C15.0961 9.87556 15.6063 10.0886 16.1429 10.1991V12H17.8571V10.1991C18.3937 10.0886 18.9039 9.87556 19.3597 9.57171L20.6369 10.8489L21.8489 9.63686L20.5717 8.35971C20.8756 7.90388 21.0886 7.3937 21.1991 6.85714H23ZM17 8.57143C16.4914 8.57143 15.9943 8.42062 15.5714 8.13806C15.1485 7.85551 14.8189 7.45391 14.6243 6.98404C14.4297 6.51418 14.3788 5.99715 14.478 5.49834C14.5772 4.99953 14.8221 4.54135 15.1817 4.18173C15.5413 3.8221 15.9995 3.5772 16.4983 3.47798C16.9971 3.37876 17.5142 3.42968 17.984 3.62431C18.4539 3.81894 18.8555 4.14852 19.1381 4.57139C19.4206 4.99426 19.5714 5.49142 19.5714 6C19.5707 6.68178 19.2996 7.33543 18.8175 7.81752C18.3354 8.29961 17.6818 8.57075 17 8.57143Z" fill="#464C52"/>
</svg>
