<svg width="194" height="56" viewBox="0 0 194 56" fill="none" xmlns="http://www.w3.org/2000/svg">
<rect x="37" y="38" width="119" height="18"/>
<path d="M7 3H10L20.5 21L31 3H34.5V29H31V10L21.5 26H20.5H19.5L10.5 10.5V29H7V3Z" fill="white"/>
<path d="M59.5206 25.5803L57.5 23.5C49.7057 28.815 45.8722 23.4873 45.0206 20.0803L60.5206 20.0803C61.0206 14.5801 58.5744 12.0801 56.5206 10.58C54.8879 9.38759 49.4389 7.71841 45.5206 10.5803C41.6022 13.4421 41.5 17 41.5 19C41.9766 27.1768 47.711 29 52 29C55.4312 29 58.5675 26.7727 59.5206 25.5803Z" fill="white"/>
<path d="M57.0173 17.5H45.0173C44.8506 15.6667 45.8173 12 51.0173 12C56.2173 12 57.184 15.6667 57.0173 17.5Z" fill="#212529"/>
<path d="M88.5864 7.5944C85.6492 5.1145 77.6311 1.34378 71.2671 6.80152C68.455 9.2131 65.1239 16.193 70.288 23.1688C71.7566 25.1527 77.7336 29.6015 87.6073 24.9537C87.6073 22.1763 87.6073 17.514 87.6073 15.5301" stroke="white" stroke-width="3.5"/>
<path d="M104.453 9C106.941 9 109.037 9.63281 110.243 10.75C111.743 12.25 112.243 13.25 112.743 16.25V28.75H109.243L109.24 26.129C108.656 26.8908 108.831 27.0632 107.743 27.75C106.797 28.3466 106.743 28.3438 105.243 28.8438C104.743 29.0104 104.243 29.0938 102.953 29.0938C101.743 29.0938 99.476 28.6546 98.7427 28.25C97.8365 27.75 96.7388 27.1632 96.1626 26.129C95.5864 25.0949 95.5864 24.75 95.5864 23.4821C95.5864 21.4 96.2778 19.8004 97.9282 18.6832C99.5786 17.5661 101.866 17.6016 105.243 17.5H109.03C109.03 17.5 109.464 15.0027 106.953 12.8125C106.243 12.1934 103.743 12.25 103.743 12.25C103.743 12.25 102.453 12.0949 100.953 12.5949C99.9624 12.9122 98.5513 13.7824 97.6626 14.214L96.1626 11.6373C96.9526 10.5949 99.2339 9.84277 100.453 9.5C102.43 9 103.107 9 104.453 9ZM108.953 20.0949H105.953C103.35 20.1964 101.519 19.8458 100.453 20.5949C99.3862 21.3439 99.2495 22.0801 99.2495 23.4821C99.2495 24.1886 99.4526 24.5949 99.9526 25.0949C100.765 25.9074 101.759 26.0949 102.953 26.0949C104.806 26.0949 105.772 26.1232 106.953 25.0949C108.133 24.0665 109.03 22.9108 109.03 20.8541L108.953 20.0949Z" fill="white"/>
<path d="M119.743 3H123.243V13.5H140.243V3H143.743V29H140.243V17H123.243V29H119.743V3Z" fill="#FD9B28"/>
<path d="M168.205 10V29.1191H165.158V26.8721C164.727 27.5957 164.743 27.5 164.243 28C163.743 28.5 162.606 28.8779 161.743 29.1191C160.892 29.373 159.229 29.5 158.265 29.5C156.614 29.5 155.23 29.2334 154.113 28.7002C152.996 28.167 152.152 27.3418 151.581 26.2246C151.022 25.1074 150.743 23.6729 150.743 21.9209V10H154.243V21.9209C154.243 23.6602 154.418 24.6367 155.205 25.5C156.205 26.376 157.205 26.8721 158.722 26.8721C160.271 26.8721 161.502 26.5801 162.416 25.9961C163.343 25.4121 163.799 24.6299 164.205 23.5C164.416 22.1875 164.416 21.1504 164.416 19.5V10H168.205Z" fill="white"/>
<path d="M178.705 0V7C178.705 7.85059 178.756 8.2002 178.705 9C178.667 9.7998 178.73 10.0459 178.705 10.4902C179.705 9.5 179.763 9.38574 180.842 8.73828C181.921 8.09082 183.298 7.76709 184.974 7.76709C187.589 7.76709 189.671 8.6748 191.22 10.4902C192.782 12.293 193.562 14.978 193.562 18.5454C193.562 20.894 193.207 22.8745 192.496 24.4868C191.785 26.0991 190.782 27.3179 189.487 28.1431C188.192 28.9683 186.663 29.3809 184.898 29.3809C183.248 29.3809 181.889 29.0762 180.823 28.4668C179.769 27.8447 179.276 27.3887 178.705 26.5V26.2007V29H175.205V0H178.705ZM184.46 11C182.949 11 181.705 11.5 180.823 12.5C180.062 13.5 179.513 14.1353 179.062 15.5C178.784 16.3443 178.686 17.2983 178.705 18.5C178.728 19.9753 179.329 22.6035 180.205 24C181.081 25.3838 182.149 26.2007 184.46 26.2007C186.402 26.2007 187.598 25.4219 188.562 24C189.54 22.5781 190.062 21.1406 190.062 18.5C190.062 15.8086 189.027 13.8584 188.062 12.5C187.871 12.2306 186.428 11 184.46 11Z" fill="white"/>
<line x1="1.5" y1="3" x2="1.5" y2="29" stroke="#FD9B28" stroke-width="3"/>
</svg>
