<svg width="28" height="28" viewBox="0 0 35 35" fill="none" xmlns="http://www.w3.org/2000/svg">
<path d="M31.9376 27.3486L31.607 27.0569C30.6692 26.2214 29.8484 25.2632 29.1667 24.2083C28.4222 22.7525 27.976 21.1626 27.8542 19.5319V14.7292C27.8607 12.168 26.9316 9.69254 25.2416 7.76803C23.5516 5.84351 21.217 4.60236 18.6764 4.27778V3.02361C18.6764 2.67938 18.5397 2.34925 18.2963 2.10584C18.0529 1.86244 17.7228 1.72569 17.3785 1.72569C17.0343 1.72569 16.7042 1.86244 16.4608 2.10584C16.2174 2.34925 16.0806 2.67938 16.0806 3.02361V4.29722C13.5628 4.64521 11.2564 5.89386 9.58862 7.81191C7.92083 9.72996 7.00465 12.1874 7.00978 14.7292V19.5319C6.88801 21.1626 6.44178 22.7525 5.69728 24.2083C5.0273 25.2606 4.21969 26.2186 3.29589 27.0569L2.96533 27.3486V30.0903H31.9376V27.3486Z" fill="#212529"/>
<path d="M14.8944 31.1111C14.9797 31.7274 15.285 32.292 15.7541 32.7007C16.2232 33.1093 16.8244 33.3344 17.4465 33.3344C18.0686 33.3344 18.6698 33.1093 19.1389 32.7007C19.6079 32.292 19.9133 31.7274 19.9986 31.1111H14.8944Z" fill="#212529"/>
</svg>
