<svg width="26" height="23" viewBox="0 0 26 23" fill="none" xmlns="http://www.w3.org/2000/svg">
<path d="M8.17143 21.5429H23.0286V18.5714H8.17143V21.5429ZM8.17143 12.6286H17.0857V9.65714H8.17143V12.6286ZM8.17143 0.742857V3.71429H26V0.742857H8.17143ZM2.22857 1.23932e-07C1.93581 9.76712e-05 1.64594 0.0578569 1.37551 0.169981C1.10507 0.282104 0.859368 0.446397 0.652426 0.653476C0.445484 0.860556 0.281356 1.10637 0.169412 1.37688C0.057469 1.64739 -9.74296e-05 1.9373 1.2378e-07 2.23006C9.76772e-05 2.52281 0.0578573 2.81269 0.169981 3.08312C0.282105 3.35356 0.446397 3.59926 0.653476 3.8062C0.860556 4.01314 1.10637 4.17727 1.37688 4.28922C1.64739 4.40116 1.9373 4.45873 2.23006 4.45863C2.82131 4.45843 3.38826 4.22337 3.8062 3.80515C4.22414 3.38694 4.45883 2.81982 4.45863 2.22857C4.45843 1.63732 4.22337 1.07036 3.80515 0.652426C3.38694 0.234488 2.81982 -0.000196882 2.22857 1.23932e-07ZM2.22857 8.91429C1.93581 8.91438 1.64594 8.97214 1.37551 9.08427C1.10507 9.19639 0.859368 9.36068 0.652426 9.56776C0.445484 9.77484 0.281355 10.0207 0.169412 10.2912C0.0574686 10.5617 -9.74296e-05 10.8516 1.2378e-07 11.1443C9.76772e-05 11.4371 0.0578573 11.727 0.169981 11.9974C0.282105 12.2678 0.446397 12.5135 0.653476 12.7205C0.860556 12.9274 1.10637 13.0916 1.37688 13.2035C1.64739 13.3154 1.9373 13.373 2.23006 13.3729C2.82131 13.3727 3.38826 13.1377 3.8062 12.7194C4.22414 12.3012 4.45883 11.7341 4.45863 11.1429C4.45843 10.5516 4.22337 9.98465 3.80515 9.56671C3.38694 9.14877 2.81982 8.91409 2.22857 8.91429ZM2.22857 17.8286C1.93581 17.8287 1.64594 17.8864 1.37551 17.9986C1.10507 18.1107 0.859368 18.275 0.652426 18.482C0.445484 18.6891 0.281355 18.9349 0.169412 19.2055C0.0574686 19.476 -9.74296e-05 19.7659 1.2378e-07 20.0586C9.76772e-05 20.3514 0.0578573 20.6413 0.169981 20.9117C0.282105 21.1821 0.446397 21.4278 0.653476 21.6348C0.860556 21.8417 1.10637 22.0058 1.37688 22.1178C1.64739 22.2297 1.9373 22.2873 2.23006 22.2872C2.82131 22.287 3.38826 22.0519 3.8062 21.6337C4.22414 21.2155 4.45883 20.6484 4.45863 20.0571C4.45843 19.4659 4.22337 18.8989 3.80515 18.481C3.38694 18.0631 2.81982 17.8284 2.22857 17.8286Z" fill="#DBDBDB"/>
</svg>
