<svg width="20" height="20" viewBox="0 0 20 20" fill="none" xmlns="http://www.w3.org/2000/svg">
<path d="M9.86984 9.09532C9.86359 9.13282 9.89953 9.18282 9.9714 9.27657C10.1542 9.51407 10.2089 9.86875 10.2823 10.1547C10.3886 10.575 10.4698 11.0328 10.5136 11.4609C10.5542 11.8703 10.6167 12.25 10.6167 12.6641V13.9578C10.6167 14.8797 10.4605 15.8047 10.3323 16.7031C10.287 17.0156 10.1917 17.3563 10.1136 17.6641C10.0808 17.7922 10.0761 17.9281 10.0464 18.0547C10.0417 18.075 10.0355 18.0953 10.0308 18.1156C9.83546 18.7234 9.89484 19.2594 10.0277 19.3953C10.2542 19.6281 10.5714 19.7938 10.8558 19.8688C11.5042 20.0406 12.2417 20.0438 12.8652 19.7781C13.4464 19.5313 13.3136 19.0313 13.4136 18.4891C13.4714 18.1703 13.5058 17.8188 13.5058 17.4797C13.5058 16.7 13.5323 15.9141 13.4605 15.1438C13.3683 14.1438 13.2198 13.1438 13.0011 12.15C12.8652 11.5344 12.7558 10.9594 12.5073 10.3719C12.3855 10.0813 12.2573 9.82657 12.0948 9.55938C11.9402 9.30625 11.8605 9.06563 11.6073 8.90313C11.5464 8.86407 11.1761 8.53907 11.1073 8.56563C10.7652 8.70157 10.423 8.83594 10.0808 8.97188C9.94327 9.02657 9.87609 9.05157 9.86984 9.09532Z" fill="#58C247"/>
<path d="M19.0027 10.175C18.9277 9.13596 18.5637 8.00939 17.709 7.35471C17.3059 7.04689 16.7215 6.81721 16.2387 6.67658C14.9496 6.30314 13.4355 6.54221 12.1184 7.05627C12.4277 6.78439 12.7449 6.51721 13.0809 6.28596C13.4277 6.04689 13.7824 5.82814 14.159 5.63596C14.2574 5.58596 14.3293 5.57033 14.3168 5.44846C14.3105 5.38439 14.2777 5.32502 14.2527 5.26096C14.1715 5.06252 14.034 4.91877 13.9184 4.73908C13.7934 4.54846 13.5902 4.33283 13.6168 4.09221C13.7168 4.05783 13.9387 4.20783 14.0355 4.24689C14.2137 4.32033 14.3793 4.40158 14.5512 4.48752C14.6949 4.55939 14.8402 4.62971 14.9809 4.70783C15.0605 4.75314 15.1699 4.85939 15.2605 4.87502C15.4121 4.90314 15.573 4.74221 15.6996 4.67971C15.7918 4.63439 15.8262 4.64221 15.7871 4.53439C15.7215 4.35158 15.6355 4.19846 15.5637 4.02346C15.4887 3.83908 15.4199 3.63908 15.4449 3.43596C15.584 3.38752 15.8949 3.64377 16.0027 3.71252C16.1121 3.78127 16.2324 3.85783 16.3324 3.94377C16.4168 4.01564 16.4668 4.14846 16.5902 4.13752C16.6574 4.13283 16.7168 4.07189 16.7762 4.04846C16.8809 4.00783 16.9387 3.95314 17.0355 3.90002C17.2246 3.79533 17.4262 3.69064 17.6215 3.59689C17.8543 3.48596 17.8418 3.43752 17.6855 3.23439C17.598 3.12033 17.4809 3.02658 17.3746 2.93127C17.0871 2.67658 16.8184 2.51252 16.473 2.35471C16.3465 2.29689 16.2043 2.28908 16.0809 2.22502C15.9652 2.16721 15.859 2.14377 15.7277 2.12346C15.448 2.07658 15.1637 2.05158 14.8793 2.04221C13.0652 1.98283 11.4043 3.27502 10.7152 4.93127C10.6918 4.48908 10.709 4.04064 10.709 3.59846C10.709 3.44846 10.698 3.31252 10.7246 3.16564C10.7434 3.06096 10.7949 2.68908 10.7012 2.63596C10.5699 2.56252 9.44648 2.57814 9.51836 2.42971C9.58711 2.28752 9.85742 2.24221 9.99023 2.19846C10.1559 2.14377 10.3246 2.10627 10.4855 2.03908C10.6043 1.99064 10.7746 2.00002 10.873 1.91408C10.9496 1.84689 10.9418 1.71877 10.9621 1.62971C10.9902 1.50158 11.3434 0.0468939 11.2199 0.0140814C11.1496 -0.00466865 11.0168 0.0468939 10.9434 0.0562689C10.834 0.0718939 10.7215 0.110956 10.6152 0.142206C10.4652 0.185956 10.3059 0.228144 10.1621 0.292206C9.8418 0.434394 9.52773 0.600019 9.23398 0.793769C9.08867 0.889081 8.94805 0.990644 8.81523 1.10002C8.18867 1.61564 7.72461 2.28127 7.56836 3.10158C7.42617 3.84377 7.68711 4.57971 8.0543 5.22346C7.71211 4.99846 7.35586 4.79377 6.98711 4.62033C5.74492 4.03752 4.1793 4.20471 3.0043 4.87502C2.59805 5.10627 2.18711 5.41564 1.85742 5.74846C1.54492 6.06408 1.09961 6.73439 1.01211 7.17971C0.994922 7.27033 0.980859 7.36408 0.966797 7.45627C0.973047 7.45627 0.980859 7.45783 0.987109 7.45783C1.14492 7.47033 2.8043 7.68283 2.83086 7.50471C2.85117 7.36721 2.96992 7.23439 3.02773 7.11096C3.19805 6.74846 3.72148 6.04377 4.21523 6.15158C4.23555 6.25783 4.16992 6.33283 4.1293 6.42971C4.06523 6.58439 4.0043 6.73908 3.94023 6.89377C3.85898 7.09221 3.77148 7.26408 3.79961 7.48127C4.00273 7.50627 4.22461 7.48439 4.4293 7.48439C4.60742 7.48439 4.78555 7.50314 4.96367 7.48127C4.96836 7.48127 5.10273 7.06096 5.12461 7.00314C5.19648 6.82814 5.31055 6.68596 5.43555 6.54533C5.50273 6.47033 5.66992 6.27658 5.78398 6.31564C5.80742 6.32346 5.71836 7.14064 5.71211 7.20158C5.69648 7.32658 5.65742 7.44689 5.67305 7.57346C6.07148 7.67971 6.48867 7.66252 6.89492 7.70314C7.07305 7.72189 7.25273 7.75314 7.43086 7.78752C7.41992 7.78752 7.40898 7.78908 7.39805 7.78908C6.85273 7.83283 6.30898 7.92502 5.78555 8.08439C4.74492 8.40002 3.72773 8.92502 3.00742 9.74377C2.31211 10.5344 1.90586 12.0125 1.99805 13.0485C2.03398 13.4391 2.03242 13.5406 2.10586 13.9266C2.15273 14.1735 2.19805 14.4688 2.33711 14.6844C2.39023 14.7688 2.58398 15.1266 2.7168 15.0235C2.81211 14.95 2.86367 14.8016 2.93398 14.7031C3.12305 14.4406 3.32148 14.186 3.50898 13.9219C3.59336 13.8031 3.89336 13.5172 3.83555 13.3641C3.76836 13.1891 3.74961 12.9875 3.72773 12.8031C3.69648 12.5375 3.68086 12.2656 3.70273 11.9985C3.71211 11.8828 3.72773 11.7656 3.7668 11.6563C3.78398 11.6078 3.87305 11.4188 3.94023 11.4406C3.97148 11.45 3.97461 11.5906 3.97773 11.6156C3.99023 11.7219 3.99961 11.8281 4.00898 11.9344C4.01992 12.061 4.01836 12.1844 4.04492 12.3094C4.07617 12.4594 4.12773 12.6031 4.17305 12.75C4.19805 12.8313 4.23086 12.9453 4.30117 13C4.38242 13.0625 4.4668 12.9578 4.52148 12.9031C4.66523 12.761 4.80742 12.6094 4.94023 12.4625C4.99805 12.3985 5.04023 12.3203 5.09648 12.2516C5.11367 12.2313 5.15117 12.2125 5.16211 12.1891C5.18242 12.1453 5.14648 12.0469 5.13711 12C5.11836 11.9156 5.08555 11.8328 5.07148 11.7469C5.04023 11.5641 5.05273 11.3813 5.07148 11.1985C5.08242 11.0875 5.05898 10.7953 5.16211 10.7219C5.24023 10.6656 5.22305 10.7953 5.22305 10.8406C5.22305 11.0719 5.27461 11.2953 5.34805 11.5141C5.3793 11.6063 5.40742 11.7188 5.47305 11.7938C5.56367 11.8953 5.65273 11.7703 5.72461 11.7047C5.95117 11.4953 6.17773 11.286 6.40742 11.0797C6.45586 11.036 6.50586 10.9922 6.55586 10.9485C6.66055 10.861 6.76836 10.7766 6.87461 10.6906C6.64023 11.0438 6.45586 11.4281 6.34805 11.836C6.2168 12.325 6.1418 12.9625 6.21992 13.4641C6.29023 13.9203 6.45742 14.4375 6.71367 14.8266C6.91523 15.1313 7.2543 15.4641 7.58555 15.6266C7.80586 15.7344 8.0168 15.0797 8.06367 14.9594C8.13398 14.7719 8.18555 14.5735 8.26523 14.3891C8.32773 14.2422 8.50273 13.9766 8.40742 13.8188C8.3668 13.7485 8.31211 13.6875 8.27148 13.611C8.04336 13.1875 7.73242 12.811 7.7918 12.2922C7.85117 12.3047 7.91055 12.4047 7.94336 12.4578C8.01992 12.586 8.08555 12.7235 8.17305 12.8438C8.25899 12.9625 8.31836 13.1016 8.42461 13.211C8.49492 13.2828 8.55273 13.3781 8.64805 13.4235C8.77305 13.4828 8.79805 13.3313 8.82305 13.2438C8.86523 13.0906 8.9543 12.961 9.01367 12.8156C9.06992 12.6797 9.14805 12.5531 9.20742 12.4172C9.26211 12.2922 9.37617 12.1375 9.35117 11.9938C9.33711 11.9141 9.26211 11.8485 9.22461 11.775C9.17461 11.6688 9.12461 11.5625 9.08086 11.4531C9.04805 11.3672 9.01836 11.2781 8.99492 11.1906C8.98242 11.1453 8.98242 11.0516 8.95742 11.0219C9.00898 11.1031 9.1418 11.1719 9.21367 11.2406C9.2793 11.3016 9.50742 11.575 9.61523 11.5094C9.76367 11.4188 9.80586 11.2125 9.87305 11.0656C9.96211 10.8625 10.0762 10.6766 10.1574 10.4735C10.259 10.2141 10.4199 10.0078 10.5715 9.77971C10.6762 9.62033 10.8059 9.48596 10.9074 9.32658C10.9652 9.23596 11.1059 9.08752 11.1402 8.97814C11.8324 9.14533 12.5465 9.27658 13.2246 9.49846C13.4965 9.58596 13.7621 9.69689 14.0309 9.79533C14.2262 9.86721 14.434 9.88596 14.6324 9.94846C14.7449 9.98439 14.873 10.0781 14.9496 9.94377C15.0043 9.84533 15.0184 9.7219 15.0715 9.61564C15.1402 9.47814 15.1762 9.34064 15.2105 9.19221C15.2387 9.08127 15.2434 8.95002 15.2871 8.84689C15.3168 8.77971 15.359 8.62189 15.4152 8.57658C15.5355 8.48127 15.5621 8.69064 15.5918 8.78908C15.6887 9.12033 15.6652 9.50158 15.6574 9.84377C15.6527 10.0016 15.5949 10.1578 15.6137 10.3141C15.6855 10.3125 15.759 10.3656 15.8262 10.3875C15.9355 10.425 16.0543 10.4485 16.1668 10.4766C16.234 10.4922 16.3668 10.5547 16.4309 10.5469C16.5168 10.536 16.509 10.461 16.5527 10.3922C16.6684 10.2156 16.7496 10.0094 16.823 9.80783C16.9168 9.55314 16.934 9.27033 17.0684 9.03127C17.073 9.02189 17.1668 9.24221 17.173 9.26252C17.223 9.41564 17.2574 9.5344 17.2777 9.69065C17.2887 9.76877 17.3121 9.8469 17.3246 9.92502C17.3449 10.0547 17.3434 10.1828 17.3434 10.3172C17.3434 10.5375 17.3199 10.775 17.3465 10.9922C17.509 11.0156 17.659 11.1406 17.8121 11.1922C17.9293 11.2313 18.9105 11.5969 18.9105 11.6266C18.9074 11.536 18.9512 11.4406 18.9605 11.35C18.9715 11.2313 18.984 11.1172 19.009 10.9985C19.0574 10.7344 19.023 10.4438 19.0027 10.175Z" fill="#58C247"/>
<path d="M7.26546 10.9328C7.22015 10.9609 7.19202 11.0234 7.16702 11.0719C7.02327 11.3438 6.91234 11.6359 6.83421 11.9344C6.71859 12.3781 6.67952 12.8453 6.74359 13.3C6.78421 13.5984 6.87327 13.8906 6.99827 14.1656C7.06234 14.3047 7.13421 14.4375 7.21546 14.5672C7.28577 14.6781 7.35609 14.8938 7.52015 14.7766C7.60921 14.7141 7.75296 14.4781 7.7139 14.3609C7.62327 14.0938 7.44827 13.8547 7.34515 13.5875C7.23421 13.3016 7.1889 12.9906 7.17483 12.6844C7.1639 12.4266 7.1764 12.1672 7.20765 11.9109C7.2264 11.7609 7.24984 11.6141 7.27952 11.4656C7.29515 11.3859 7.31233 11.3063 7.33108 11.2281C7.34358 11.1719 7.4264 10.8328 7.26546 10.9328Z" fill="#58C247"/>
<path d="M6.22919 8.32814C6.2161 8.31918 6.20116 8.31326 6.18548 8.31083C6.16979 8.30839 6.15377 8.3095 6.13857 8.31408C5.85732 8.39064 5.58076 8.49533 5.31201 8.61251C4.90732 8.78908 4.51826 9.00314 4.16201 9.26564C3.75419 9.56408 3.38857 9.92658 3.11357 10.3531C2.79013 10.8578 2.58701 11.4313 2.50576 12.025C2.44326 12.4938 2.45419 12.9735 2.52607 13.4406C2.54794 13.5797 2.57607 13.7188 2.60888 13.8563C2.63232 13.9563 2.64951 14.1094 2.72607 14.1797C2.79482 14.2406 2.82607 14.1828 2.87451 14.1281C2.95732 14.036 3.04638 13.9469 3.12294 13.85C3.18076 13.7781 3.17919 13.6813 3.15732 13.5938C3.11826 13.4469 3.08857 13.2969 3.06669 13.1453C3.03544 12.9266 3.01826 12.7047 3.01826 12.4828C3.01826 12.2125 3.04482 11.9422 3.09794 11.6766C3.15886 11.3725 3.257 11.077 3.39013 10.7969C3.54326 10.475 3.74326 10.1781 3.97919 9.91251C4.26201 9.59533 4.59326 9.32189 4.95107 9.09376C5.16216 8.95956 5.38133 8.8385 5.60732 8.73126C5.73076 8.67189 5.85576 8.6172 5.98232 8.56564C6.05107 8.53751 6.23232 8.50939 6.25888 8.42501C6.26982 8.38126 6.25576 8.34689 6.22919 8.32814Z" fill="#58C247"/>
<path d="M1.8176 6.86562C1.76291 6.75469 1.86135 6.64219 1.93791 6.52656C2.26916 6.01875 2.71447 5.58281 3.23166 5.26562C3.69885 4.97812 4.22228 4.79375 4.76135 4.70312C4.93635 4.67344 5.11135 4.65937 5.28635 4.64844C5.34416 4.64531 5.96603 4.59062 5.81916 4.78906C5.7801 4.84062 5.67853 4.84219 5.62072 4.84687C5.46447 4.86094 5.30822 4.88437 5.1551 4.91719C4.85353 4.98125 4.55978 5.07656 4.27853 5.20156C3.90041 5.36875 3.54416 5.59062 3.2301 5.86094C3.00197 6.05625 2.80353 6.28281 2.62228 6.52187C2.51603 6.6625 2.42853 6.90156 2.25041 6.97031C2.15041 7.00937 1.95666 7.00937 1.87228 6.93594C1.84728 6.9125 1.82853 6.88906 1.8176 6.86562Z" fill="#58C247"/>
<path d="M9.04386 1.54529C9.02511 1.53591 9.00011 1.53435 8.97042 1.54529C8.90324 1.56716 8.78917 1.70779 8.74074 1.75935C8.40011 2.12654 8.20636 2.64841 8.13917 3.13904C8.09855 3.42497 8.11574 3.71716 8.17824 3.99997C8.20949 4.14216 8.25324 4.28279 8.30636 4.41872C8.33449 4.4906 8.35167 4.55466 8.41105 4.60466C8.46574 4.6531 8.52355 4.64997 8.58449 4.6156C8.62511 4.59216 8.68917 4.5531 8.72042 4.51716C8.78917 4.43747 8.70011 4.3156 8.67355 4.23591C8.59386 4.00154 8.49386 3.77029 8.46574 3.52341C8.43761 3.27497 8.47199 3.01404 8.52824 2.77029C8.59074 2.49685 8.6923 2.23279 8.83136 1.9906C8.89855 1.87341 8.9798 1.76872 9.0548 1.65779C9.08761 1.60466 9.07667 1.56247 9.04386 1.54529Z" fill="#58C247"/>
</svg>
