<svg width="30" height="30" viewBox="0 0 30 30" fill="none" xmlns="http://www.w3.org/2000/svg">
    <path d="M22.5 10.3875C22.05 9.875 21.5875 9.3625 21.1 8.875L20.7375 8.5375L20.9125 8.3875C21.5238 7.86276 21.9594 7.16315 22.1606 6.38305C22.3618 5.60295 22.3188 4.77992 22.0375 4.025C21.6299 3.17372 20.9845 2.45867 20.1793 1.96623C19.3741 1.47379 18.4435 1.22503 17.5 1.25V3.75C17.9448 3.74381 18.3831 3.85639 18.7698 4.07612C19.1566 4.29585 19.4777 4.61478 19.7 5C19.9125 5.5 19.7 6.05 19.1125 6.6375C19.025 6.7375 18.925 6.8 18.8375 6.8875C15.0875 3.875 10.975 2.175 8.96252 4.1875C8.75172 4.403 8.57849 4.65228 8.45002 4.925V5.05L8.22502 5.7125L2.71252 22.0875C2.50401 22.7046 2.44552 23.3625 2.54189 24.0066C2.63827 24.6508 2.88673 25.2628 3.26671 25.7918C3.64668 26.3208 4.14723 26.7517 4.7269 27.0488C5.30657 27.3458 5.94867 27.5005 6.60002 27.5C7.02532 27.4959 7.44725 27.4241 7.85002 27.2875L25 21.6C25.2108 21.5215 25.3965 21.3877 25.5375 21.2125L25.8 20.9875C27.5875 19.1875 26.4375 15.725 24.0375 12.3625C25.4626 11.5308 27.1035 11.1434 28.75 11.25V8.75C26.5467 8.62878 24.3608 9.20147 22.5 10.3875ZM7.12502 24.9125C6.84128 25.0064 6.53702 25.0196 6.24621 24.9506C5.9554 24.8817 5.68948 24.7332 5.47814 24.5219C5.2668 24.3105 5.11836 24.0446 5.04938 23.7538C4.98041 23.463 4.99361 23.1587 5.08752 22.875L6.78752 17.75C8.00075 20.0636 9.86497 21.9713 12.15 23.2375L7.12502 24.9125ZM15.875 22C13.9859 21.4997 12.2626 20.509 10.8797 19.1283C9.49675 17.7475 8.50332 16.0258 8.00002 14.1375L9.25002 10.3875L9.32502 10.5C9.46252 10.775 9.63752 11.0625 9.81252 11.35C9.98752 11.6375 10.0125 11.7125 10.1375 11.9C10.2625 12.0875 10.55 12.5 10.775 12.8125C11 13.125 11.0125 13.1625 11.15 13.3375C11.2875 13.5125 11.6875 14.025 11.975 14.3625L12.3375 14.8C12.7625 15.2875 13.2125 15.7625 13.6875 16.25C14.1625 16.7375 14.5375 17.05 14.9375 17.5L15.35 17.85L16.325 18.6375L16.7875 18.9875C17.1375 19.2375 17.475 19.4875 17.825 19.7125L18.2125 19.9625C18.6625 20.2375 19.1125 20.5 19.55 20.725H19.6125L15.875 22ZM24.0125 19.2125H23.9375C23.075 19.6875 19.4875 18.5 15.45 14.45C15.025 14.025 14.625 13.6125 14.2625 13.2L13.9 12.7625L13.2375 11.9625L12.875 11.4625C12.7125 11.225 12.5375 11 12.3875 10.775L12.0625 10.25L11.7 9.6625C11.6 9.4875 11.525 9.325 11.4375 9.1625C11.35 9 11.25 8.8375 11.175 8.6625C11.108 8.51604 11.0495 8.36578 11 8.2125C10.9375 8.05 10.8625 7.8875 10.8125 7.7375C10.7625 7.5875 10.75 7.5 10.7125 7.35C10.675 7.2 10.65 7.075 10.625 6.95C10.6188 6.84176 10.6188 6.73325 10.625 6.625C10.613 6.52537 10.613 6.42464 10.625 6.325L10.7625 5.9375C11.2125 5.4875 13.55 5.9375 16.675 8.3125C16.1453 8.55158 15.579 8.69949 15 8.75V11.25C16.3278 11.1736 17.6161 10.77 18.75 10.075L19.35 10.65C19.875 11.175 20.3625 11.7125 20.825 12.25C20.1095 13.5439 19.8456 15.0394 20.075 16.5L22.575 16.0125C22.5014 15.5487 22.5014 15.0763 22.575 14.6125C22.9565 15.191 23.2949 15.7968 23.5875 16.425C24.2875 18.075 24.2375 19 24.0125 19.2125Z" fill="#FD9B28"/>
</svg>
