<svg width="30" height="30" viewBox="0 0 30 30" fill="none" xmlns="http://www.w3.org/2000/svg">
<path d="M25.2222 2H5.77778C4.25 2 3 3.25 3 4.77778V24.2222C3 25.75 4.25 27 5.77778 27H25.2222C26.75 27 28 25.75 28 24.2222V4.77778C28 3.25 26.75 2 25.2222 2ZM25.2222 24.2222H5.77778V4.77778H25.2222V24.2222Z" fill="#DBDBDB"/>
<path d="M8.5625 8.4H14.8125V10.275H8.5625V8.4ZM17 18.4375H23.25V20.3125H17V18.4375ZM17 15.3125H23.25V17.1875H17V15.3125ZM10.75 21.25H12.625V18.75H15.125V16.875H12.625V14.375H10.75V16.875H8.25V18.75H10.75V21.25ZM18.3625 12.4375L20.125 10.675L21.8875 12.4375L23.2125 11.1125L21.45 9.3375L23.2125 7.575L21.8875 6.25L20.125 8.0125L18.3625 6.25L17.0375 7.575L18.8 9.3375L17.0375 11.1125L18.3625 12.4375Z" fill="#DBDBDB"/>
</svg>
