<svg width="20" height="20" viewBox="0 0 20 20" fill="none" xmlns="http://www.w3.org/2000/svg">
    <path d="M14.375 10C14.8723 10 15.3492 10.1975 15.7008 10.5492C16.0525 10.9008 16.25 11.3777 16.25 11.875V12.5C16.25 14.9637 13.925 17.5 10 17.5C6.075 17.5 3.75 14.9637 3.75 12.5V11.875C3.75 11.3777 3.94754 10.9008 4.29917 10.5492C4.65081 10.1975 5.12772 10 5.625 10H14.375ZM10 1.875C10.9117 1.875 11.786 2.23716 12.4307 2.88182C13.0753 3.52648 13.4375 4.40082 13.4375 5.3125C13.4375 6.22418 13.0753 7.09852 12.4307 7.74318C11.786 8.38784 10.9117 8.75 10 8.75C9.08832 8.75 8.21398 8.38784 7.56932 7.74318C6.92466 7.09852 6.5625 6.22418 6.5625 5.3125C6.5625 4.40082 6.92466 3.52648 7.56932 2.88182C8.21398 2.23716 9.08832 1.875 10 1.875Z" fill="#F97878"/>
</svg>
