<svg width="24" height="24" viewBox="0 0 24 24" fill="none" xmlns="http://www.w3.org/2000/svg">
    <path d="M9.75 3.09355e-07C9.28451 -0.00024372 8.8304 0.143892 8.45026 0.412542C8.07012 0.681193 7.78266 1.06113 7.6275 1.5H5.25C4.65326 1.5 4.08097 1.73705 3.65901 2.15901C3.23705 2.58097 3 3.15326 3 3.75V21.75C3 22.3467 3.23705 22.919 3.65901 23.341C4.08097 23.7629 4.65326 24 5.25 24H18.75C19.3467 24 19.919 23.7629 20.341 23.341C20.7629 22.919 21 22.3467 21 21.75V3.75C21 3.15326 20.7629 2.58097 20.341 2.15901C19.919 1.73705 19.3467 1.5 18.75 1.5H16.3725C16.2173 1.06113 15.9299 0.681193 15.5497 0.412542C15.1696 0.143892 14.7155 -0.00024372 14.25 3.09355e-07H9.75ZM9 2.25C9 2.05109 9.07902 1.86032 9.21967 1.71967C9.36032 1.57902 9.55109 1.5 9.75 1.5H14.25C14.4489 1.5 14.6397 1.57902 14.7803 1.71967C14.921 1.86032 15 2.05109 15 2.25C15 2.44891 14.921 2.63968 14.7803 2.78033C14.6397 2.92098 14.4489 3 14.25 3H9.75C9.55109 3 9.36032 2.92098 9.21967 2.78033C9.07902 2.63968 9 2.44891 9 2.25ZM5.25 3H7.6275C7.78266 3.43887 8.07012 3.81881 8.45026 4.08746C8.8304 4.35611 9.28451 4.50024 9.75 4.5H14.25C14.7155 4.50024 15.1696 4.35611 15.5497 4.08746C15.9299 3.81881 16.2173 3.43887 16.3725 3H18.75C18.9489 3 19.1397 3.07902 19.2803 3.21967C19.421 3.36032 19.5 3.55109 19.5 3.75V21.75C19.5 21.9489 19.421 22.1397 19.2803 22.2803C19.1397 22.421 18.9489 22.5 18.75 22.5H5.25C5.05109 22.5 4.86032 22.421 4.71967 22.2803C4.57902 22.1397 4.5 21.9489 4.5 21.75V3.75C4.5 3.55109 4.57902 3.36032 4.71967 3.21967C4.86032 3.07902 5.05109 3 5.25 3ZM16.5 15C16.5 14.8011 16.421 14.6103 16.2803 14.4697C16.1397 14.329 15.9489 14.25 15.75 14.25C15.5511 14.25 15.3603 14.329 15.2197 14.4697C15.079 14.6103 15 14.8011 15 15V18.75C15 18.9489 15.079 19.1397 15.2197 19.2803C15.3603 19.421 15.5511 19.5 15.75 19.5C15.9489 19.5 16.1397 19.421 16.2803 19.2803C16.421 19.1397 16.5 18.9489 16.5 18.75V15ZM12 10.5C12.1989 10.5 12.3897 10.579 12.5303 10.7197C12.671 10.8603 12.75 11.0511 12.75 11.25V18.75C12.75 18.9489 12.671 19.1397 12.5303 19.2803C12.3897 19.421 12.1989 19.5 12 19.5C11.8011 19.5 11.6103 19.421 11.4697 19.2803C11.329 19.1397 11.25 18.9489 11.25 18.75V11.25C11.25 11.0511 11.329 10.8603 11.4697 10.7197C11.6103 10.579 11.8011 10.5 12 10.5ZM9 8.25C9 8.05109 8.92098 7.86032 8.78033 7.71967C8.63968 7.57902 8.44891 7.5 8.25 7.5C8.05109 7.5 7.86032 7.57902 7.71967 7.71967C7.57902 7.86032 7.5 8.05109 7.5 8.25V18.75C7.5 18.9489 7.57902 19.1397 7.71967 19.2803C7.86032 19.421 8.05109 19.5 8.25 19.5C8.44891 19.5 8.63968 19.421 8.78033 19.2803C8.92098 19.1397 9 18.9489 9 18.75V8.25Z" fill="#DBDBDB"/>
</svg>
