<svg width="25" height="25" viewBox="0 0 25 25" fill="none" xmlns="http://www.w3.org/2000/svg">
    <path d="M21.24 17.5597C21.1982 17.3017 21.0365 17.0812 20.7942 16.9502L17.2105 14.8387L17.181 14.8222C17.0307 14.747 16.8648 14.7084 16.6967 14.7097C16.3965 14.7097 16.1097 14.8234 15.9107 15.0229L14.853 16.0812C14.8077 16.1242 14.6602 16.1864 14.6155 16.1887C14.6032 16.1877 13.3847 16.0999 11.1415 13.8564C8.90223 11.6177 8.80723 10.3954 8.80648 10.3954C8.80773 10.3329 8.86923 10.1859 8.91298 10.1404L9.81498 9.23868C10.1327 8.92018 10.228 8.39218 10.0395 7.98318L8.04748 4.23493C7.90273 3.93693 7.62148 3.75293 7.30948 3.75293C7.08873 3.75293 6.87573 3.84443 6.70923 4.01068L4.25048 6.46393C4.01473 6.69843 3.81173 7.10843 3.76748 7.43843C3.74598 7.59618 3.30973 11.3617 8.47223 16.5249C12.855 20.9072 16.2725 21.2477 17.2162 21.2477C17.3312 21.2492 17.4461 21.2432 17.5602 21.2299C17.8892 21.1859 18.2987 20.9834 18.533 20.7487L20.9897 18.2922C21.1902 18.0907 21.2817 17.8244 21.24 17.5597V17.5597Z" fill="#616161" fill-opacity="0.7"/>
</svg>
