<svg width="27" height="27" viewBox="0 0 27 27" fill="none" xmlns="http://www.w3.org/2000/svg">
<path d="M13.625 1.4375C13.625 1.18886 13.5262 0.950403 13.3504 0.774587C13.1746 0.598772 12.9361 0.5 12.6875 0.5C12.4389 0.5 12.2004 0.598772 12.0246 0.774587C11.8488 0.950403 11.75 1.18886 11.75 1.4375V1.75H4.5625C3.48506 1.75 2.45175 2.17801 1.68988 2.93988C0.928012 3.70175 0.5 4.73506 0.5 5.8125V17.6875C0.5 18.7649 0.928012 19.7983 1.68988 20.5601C2.45175 21.322 3.48506 21.75 4.5625 21.75H7.56L5.71625 23.9625C5.55712 24.1536 5.48043 24.4001 5.50305 24.6478C5.52567 24.8955 5.64575 25.124 5.83687 25.2831C6.028 25.4423 6.2745 25.5189 6.52217 25.4963C6.76983 25.4737 6.99837 25.3536 7.1575 25.1625L10 21.75H13.035C13.0107 21.5426 12.9986 21.3339 12.9987 21.125V20.5C12.9987 20.2862 13.02 20.0775 13.0612 19.875H4.56125C3.98109 19.875 3.42469 19.6445 3.01445 19.2343C2.60422 18.8241 2.37375 18.2677 2.37375 17.6875V5.8125C2.37375 4.605 3.35375 3.625 4.56125 3.625H21.4363C22.6438 3.625 23.6238 4.605 23.6238 5.8125V10.4438C24.1557 10.9178 24.5722 11.5072 24.8415 12.1669C25.1108 12.8266 25.2257 13.5391 25.1775 14.25H25.5V5.8125C25.5 5.27901 25.3949 4.75073 25.1908 4.25785C24.9866 3.76496 24.6874 3.31712 24.3101 2.93988C23.9329 2.56264 23.485 2.2634 22.9922 2.05924C22.4993 1.85508 21.971 1.75 21.4375 1.75H13.625V1.4375ZM23.9237 14.25C23.979 13.6518 23.876 13.0496 23.625 12.5037C23.2771 11.7454 22.6654 11.1395 21.9037 10.7989C21.1421 10.4583 20.2826 10.4064 19.4855 10.6528C18.6884 10.8991 18.0081 11.427 17.5714 12.1379C17.1348 12.8488 16.9716 13.6943 17.1123 14.5166C17.253 15.339 17.6879 16.0821 18.3361 16.6075C18.9842 17.1328 19.8013 17.4045 20.635 17.3718C21.4687 17.3392 22.262 17.0045 22.8671 16.4301C23.4722 15.8557 23.8478 15.0808 23.9237 14.25ZM24.875 18.625C25.3723 18.625 25.8492 18.8225 26.2008 19.1742C26.5525 19.5258 26.75 20.0027 26.75 20.5V21.125C26.75 23.5888 24.425 26.125 20.5 26.125C16.9062 26.125 14.655 24 14.3 21.75C14.2671 21.5433 14.2503 21.3343 14.25 21.125V20.5C14.2495 20.2536 14.2977 20.0096 14.3917 19.7819C14.4858 19.5542 14.6239 19.3473 14.7981 19.1731C14.9723 18.9989 15.1792 18.8608 15.4069 18.7667C15.6346 18.6727 15.8786 18.6245 16.125 18.625H24.875ZM5.5 7.6875C5.5 7.43886 5.59877 7.2004 5.77459 7.02459C5.9504 6.84877 6.18886 6.75 6.4375 6.75H11.4375C11.6861 6.75 11.9246 6.84877 12.1004 7.02459C12.2762 7.2004 12.375 7.43886 12.375 7.6875C12.375 7.93614 12.2762 8.1746 12.1004 8.35041C11.9246 8.52623 11.6861 8.625 11.4375 8.625H6.4375C6.18886 8.625 5.9504 8.52623 5.77459 8.35041C5.59877 8.1746 5.5 7.93614 5.5 7.6875ZM6.4375 10.5C6.18886 10.5 5.9504 10.5988 5.77459 10.7746C5.59877 10.9504 5.5 11.1889 5.5 11.4375C5.5 11.6861 5.59877 11.9246 5.77459 12.1004C5.9504 12.2762 6.18886 12.375 6.4375 12.375H14.5625C14.8111 12.375 15.0496 12.2762 15.2254 12.1004C15.4012 11.9246 15.5 11.6861 15.5 11.4375C15.5 11.1889 15.4012 10.9504 15.2254 10.7746C15.0496 10.5988 14.8111 10.5 14.5625 10.5H6.4375ZM5.5 15.1875C5.5 14.9389 5.59877 14.7004 5.77459 14.5246C5.9504 14.3488 6.18886 14.25 6.4375 14.25H13.3125C13.5611 14.25 13.7996 14.3488 13.9754 14.5246C14.1512 14.7004 14.25 14.9389 14.25 15.1875C14.25 15.4361 14.1512 15.6746 13.9754 15.8504C13.7996 16.0262 13.5611 16.125 13.3125 16.125H6.4375C6.18886 16.125 5.9504 16.0262 5.77459 15.8504C5.59877 15.6746 5.5 15.4361 5.5 15.1875Z" fill="#DBDBDB"/>
</svg>
