<svg width="23" height="24" viewBox="0 0 23 24" fill="none" xmlns="http://www.w3.org/2000/svg">
    <path d="M8.62213 0.552298C9.0179 0.196709 9.53117 0 10.0632 0C10.5953 0 11.1085 0.196709 11.5043 0.552298L19.4106 7.65498C19.6355 7.8573 19.8154 8.10469 19.9385 8.38108C20.0616 8.65747 20.1251 8.95667 20.125 9.25924V10.6306C19.6807 10.3734 19.1938 10.1981 18.6875 10.1131V9.2578C18.6875 9.15691 18.6662 9.05715 18.6251 8.96502C18.584 8.87289 18.524 8.79044 18.4489 8.72305L10.5426 1.61892C10.4107 1.50053 10.2397 1.43504 10.0625 1.43504C9.88526 1.43504 9.71427 1.50053 9.58238 1.61892L1.67612 8.72305C1.60087 8.7906 1.54071 8.87328 1.49959 8.96568C1.45847 9.05807 1.43731 9.1581 1.4375 9.25924V19.3994C1.4375 19.59 1.51323 19.7728 1.64802 19.9076C1.78281 20.0424 1.96563 20.1181 2.15625 20.1181H5.75C5.94062 20.1181 6.12344 20.0424 6.25823 19.9076C6.39302 19.7728 6.46875 19.59 6.46875 19.3994V14.3681C6.46875 13.7962 6.69593 13.2478 7.1003 12.8434C7.50468 12.439 8.05313 12.2119 8.625 12.2119H11.5C12.0719 12.2119 12.6203 12.439 13.0247 12.8434C13.4291 13.2478 13.6562 13.7962 13.6562 14.3681V17.5421C13.087 17.7915 12.5919 18.1836 12.2188 18.6806V14.3681C12.2188 14.1775 12.143 13.9947 12.0082 13.8599C11.8734 13.7251 11.6906 13.6494 11.5 13.6494H8.625C8.43438 13.6494 8.25156 13.7251 8.11677 13.8599C7.98197 13.9947 7.90625 14.1775 7.90625 14.3681V19.3994C7.90625 19.9712 7.67907 20.5197 7.2747 20.9241C6.87032 21.3284 6.32187 21.5556 5.75 21.5556H2.15625C1.58438 21.5556 1.03593 21.3284 0.631551 20.9241C0.227176 20.5197 0 19.9712 0 19.3994V9.25924C0 8.64686 0.25875 8.06467 0.715875 7.65498L8.62213 0.552298ZM20.8438 14.3681C20.8438 15.1306 20.5408 15.8619 20.0017 16.401C19.4625 16.9402 18.7312 17.2431 17.9688 17.2431C17.2063 17.2431 16.475 16.9402 15.9358 16.401C15.3967 15.8619 15.0938 15.1306 15.0938 14.3681C15.0938 13.6056 15.3967 12.8743 15.9358 12.3352C16.475 11.796 17.2063 11.4931 17.9688 11.4931C18.7312 11.4931 19.4625 11.796 20.0017 12.3352C20.5408 12.8743 20.8438 13.6056 20.8438 14.3681ZM23 20.8369C23 22.6265 21.5625 24.4306 17.9688 24.4306C14.375 24.4306 12.9375 22.6337 12.9375 20.8369C12.9375 20.265 13.1647 19.7165 13.5691 19.3122C13.9734 18.9078 14.5219 18.6806 15.0938 18.6806H20.8438C21.4156 18.6806 21.9641 18.9078 22.3684 19.3122C22.7728 19.7165 23 20.265 23 20.8369Z" fill="#464C52"/>
</svg>
