<svg width="17" height="17" viewBox="0 0 17 17" fill="none" xmlns="http://www.w3.org/2000/svg">
<path d="M16.6846 16.668C16.4743 16.8783 16.2225 16.9834 15.9292 16.9834C15.6359 16.9834 15.3841 16.8783 15.1738 16.668L11.8867 13.3809C10.5586 14.3659 9.07552 14.8584 7.4375 14.8584C6.43034 14.8584 5.46745 14.6619 4.54883 14.269C3.63021 13.8761 2.83887 13.3477 2.1748 12.6836C1.51074 12.0195 0.982259 11.231 0.589355 10.3179C0.196452 9.40479 0 8.44189 0 7.4292C0 6.4165 0.196452 5.45085 0.589355 4.53223C0.982259 3.61361 1.51074 2.82503 2.1748 2.1665C2.83887 1.50798 3.63021 0.982259 4.54883 0.589355C5.46745 0.196452 6.43034 0 7.4375 0C8.44466 0 9.40755 0.196452 10.3262 0.589355C11.2448 0.982259 12.0361 1.50798 12.7002 2.1665C13.3643 2.82503 13.8927 3.61361 14.2856 4.53223C14.6785 5.45085 14.875 6.41374 14.875 7.4209C14.875 9.06999 14.3825 10.5531 13.3975 11.8701L16.6846 15.1572C16.8949 15.3675 17 15.6193 17 15.9126C17 16.2059 16.8949 16.4577 16.6846 16.668ZM7.4375 2.125C6.47461 2.125 5.58643 2.36019 4.77295 2.83057C3.95947 3.30094 3.31478 3.94564 2.83887 4.76465C2.36296 5.58366 2.125 6.47184 2.125 7.4292C2.125 8.38656 2.36296 9.27474 2.83887 10.0938C3.31478 10.9128 3.95947 11.5575 4.77295 12.0278C5.58643 12.4982 6.47461 12.7334 7.4375 12.7334C8.40039 12.7334 9.28857 12.4982 10.1021 12.0278C10.9155 11.5575 11.5602 10.9128 12.0361 10.0938C12.512 9.27474 12.75 8.38656 12.75 7.4292C12.75 6.47184 12.512 5.58366 12.0361 4.76465C11.5602 3.94564 10.9155 3.30094 10.1021 2.83057C9.28857 2.36019 8.40039 2.125 7.4375 2.125Z" fill="#616161"/>
</svg>
