<svg width="28" height="28" viewBox="0 0 28 28" fill="none" xmlns="http://www.w3.org/2000/svg">
<path d="M16.5 3.08625C16.5 2.21 15.79 1.5 14.9137 1.5H13.0875C12.21 1.5 11.5 2.21 11.5 3.08625C11.5 3.80875 11.005 4.42875 10.3312 4.69375C10.225 4.73625 10.1188 4.78125 10.015 4.82625C9.35125 5.11375 8.5625 5.02625 8.05 4.515C7.75255 4.21776 7.34925 4.0508 6.92875 4.0508C6.50825 4.0508 6.10495 4.21776 5.8075 4.515L4.515 5.8075C4.21776 6.10495 4.0508 6.50825 4.0508 6.92875C4.0508 7.34925 4.21776 7.75255 4.515 8.05V8.05C5.0275 8.5625 5.115 9.35 4.825 10.015C4.77944 10.1197 4.73568 10.2251 4.69375 10.3312C4.42875 11.005 3.80875 11.5 3.08625 11.5C2.21 11.5 1.5 12.21 1.5 13.0863V14.9137C1.5 15.79 2.21 16.5 3.08625 16.5C3.80875 16.5 4.42875 16.995 4.69375 17.6688C4.73625 17.775 4.78125 17.8812 4.825 17.985C5.11375 18.6487 5.02625 19.4375 4.515 19.95C4.21776 20.2474 4.0508 20.6507 4.0508 21.0712C4.0508 21.4918 4.21776 21.8951 4.515 22.1925L5.8075 23.485C6.10495 23.7822 6.50825 23.9492 6.92875 23.9492C7.34925 23.9492 7.75255 23.7822 8.05 23.485C8.5625 22.9725 9.35 22.885 10.015 23.1738C10.1188 23.22 10.225 23.2637 10.3312 23.3062C11.005 23.5712 11.5 24.1913 11.5 24.9138C11.5 25.79 12.21 26.5 13.0863 26.5H14.9137C15.79 26.5 16.5 25.79 16.5 24.9138C16.5 24.1913 16.995 23.5713 17.6688 23.305C17.775 23.2638 17.8812 23.22 17.985 23.175C18.6487 22.885 19.4375 22.9737 19.9488 23.485C20.0961 23.6324 20.2709 23.7493 20.4634 23.829C20.6559 23.9088 20.8623 23.9498 21.0706 23.9498C21.279 23.9498 21.4853 23.9088 21.6778 23.829C21.8703 23.7493 22.0452 23.6324 22.1925 23.485L23.485 22.1925C23.7822 21.8951 23.9492 21.4918 23.9492 21.0712C23.9492 20.6507 23.7822 20.2474 23.485 19.95V19.95C22.9725 19.4375 22.885 18.65 23.1738 17.985C23.22 17.8812 23.2637 17.775 23.3062 17.6688C23.5712 16.995 24.1913 16.5 24.9138 16.5C25.79 16.5 26.5 15.79 26.5 14.9137V13.0875C26.5 12.2113 25.79 11.5013 24.9138 11.5013C24.1913 11.5013 23.5713 11.0062 23.305 10.3325C23.2631 10.2263 23.2194 10.1209 23.1738 10.0162C22.8863 9.3525 22.9737 8.56375 23.485 8.05125C23.7822 7.7538 23.9492 7.3505 23.9492 6.93C23.9492 6.5095 23.7822 6.1062 23.485 5.80875L22.1925 4.51625C21.8951 4.21901 21.4918 4.05205 21.0712 4.05205C20.6507 4.05205 20.2474 4.21901 19.95 4.51625V4.51625C19.4375 5.02875 18.65 5.11625 17.985 4.8275C17.8804 4.78151 17.7749 4.73734 17.6688 4.695C16.995 4.42875 16.5 3.80875 16.5 3.0875V3.08625Z" stroke="#DBDBDB" stroke-width="2"/>
<path d="M19 14C19 15.3261 18.4732 16.5979 17.5355 17.5355C16.5979 18.4732 15.3261 19 14 19C12.6739 19 11.4021 18.4732 10.4645 17.5355C9.52678 16.5979 9 15.3261 9 14C9 12.6739 9.52678 11.4021 10.4645 10.4645C11.4021 9.52678 12.6739 9 14 9C15.3261 9 16.5979 9.52678 17.5355 10.4645C18.4732 11.4021 19 12.6739 19 14V14Z" stroke="#DBDBDB" stroke-width="2"/>
</svg>
