<svg width="20" height="20" viewBox="0 0 20 20" fill="#F84A4A" xmlns="http://www.w3.org/2000/svg">
<path d="M7.085 3C7.18844 2.70742 7.38008 2.45413 7.63351 2.27503C7.88694 2.09593 8.18967 1.99984 8.5 2H11.5C11.8103 1.99984 12.1131 2.09593 12.3665 2.27503C12.6199 2.45413 12.8116 2.70742 12.915 3H14.5C14.8978 3 15.2794 3.15804 15.5607 3.43934C15.842 3.72064 16 4.10218 16 4.5V9.003C15.2861 9.0309 14.5942 9.25738 14.002 9.657C13.208 9.12685 12.2453 8.91048 11.3008 9.04984C10.3563 9.18921 9.4972 9.67437 8.89011 10.4112C8.28302 11.1481 7.97122 12.0842 8.01517 13.0379C8.05913 13.9917 8.45571 14.8951 9.128 15.573L11.555 18H5.5C5.10218 18 4.72064 17.842 4.43934 17.5607C4.15804 17.2794 4 16.8978 4 16.5V4.5C4 4.10218 4.15804 3.72064 4.43934 3.43934C4.72064 3.15804 5.10218 3 5.5 3H7.085ZM8.5 3C8.36739 3 8.24021 3.05268 8.14645 3.14645C8.05268 3.24022 8 3.36739 8 3.5C8 3.63261 8.05268 3.75979 8.14645 3.85355C8.24021 3.94732 8.36739 4 8.5 4H11.5C11.6326 4 11.7598 3.94732 11.8536 3.85355C11.9473 3.75979 12 3.63261 12 3.5C12 3.36739 11.9473 3.24022 11.8536 3.14645C11.7598 3.05268 11.6326 3 11.5 3H8.5ZM13.649 18.68C13.6952 18.7268 13.7503 18.7639 13.811 18.7893C13.8716 18.8146 13.9367 18.8276 14.0025 18.8276C14.0683 18.8276 14.1334 18.8146 14.194 18.7893C14.2547 18.7639 14.3098 18.7268 14.356 18.68L18.17 14.866C18.4347 14.6013 18.6446 14.2871 18.7879 13.9413C18.9311 13.5955 19.0048 13.2248 19.0048 12.8505C19.0048 12.4762 18.9311 12.1055 18.7879 11.7597C18.6446 11.4139 18.4347 11.0997 18.17 10.835C17.9053 10.5703 17.5911 10.3604 17.2453 10.2171C16.8995 10.0739 16.5288 10.0002 16.1545 10.0002C15.7802 10.0002 15.4095 10.0739 15.0637 10.2171C14.7179 10.3604 14.4037 10.5703 14.139 10.835L14.003 10.971L13.866 10.835C13.6013 10.5703 13.2871 10.3604 12.9413 10.2171C12.5955 10.0739 12.2248 10.0002 11.8505 10.0002C11.4762 10.0002 11.1055 10.0739 10.7597 10.2171C10.4139 10.3604 10.0997 10.5703 9.835 10.835C9.57032 11.0997 9.36037 11.4139 9.21712 11.7597C9.07388 12.1055 9.00015 12.4762 9.00015 12.8505C9.00015 13.2248 9.07388 13.5955 9.21712 13.9413C9.36037 14.2871 9.57032 14.6013 9.835 14.866L13.649 18.68Z" fill="#F84A4A"/>
</svg>
