<svg width="25" height="25" viewBox="0 0 25 25" fill="none" xmlns="http://www.w3.org/2000/svg">
    <path d="M21.5747 14.126C21.6748 13.5767 21.7285 13.0151 21.7285 12.4536C21.7285 11.2085 21.4844 10 21.0034 8.86475C20.5396 7.76611 19.8731 6.77979 19.0259 5.93262C18.1858 5.09039 17.19 4.41957 16.0938 3.95752C14.9561 3.47656 13.75 3.23242 12.5049 3.23242C11.919 3.23242 11.3306 3.28857 10.7593 3.39844C9.96881 2.97955 9.088 2.75998 8.19338 2.75879C6.73586 2.75879 5.36379 3.32764 4.33351 4.35791C3.82512 4.86369 3.42203 5.46523 3.14755 6.12776C2.87307 6.79028 2.73264 7.50064 2.73439 8.21777C2.73439 9.14551 2.97365 10.0586 3.42043 10.8643C3.33009 11.3867 3.28127 11.9214 3.28127 12.4536C3.28127 13.6987 3.52541 14.9072 4.00636 16.0425C4.47023 17.1411 5.1343 18.1274 5.98146 18.9746C6.82863 19.8218 7.81496 20.4858 8.9136 20.9497C10.0513 21.4307 11.2573 21.6748 12.5025 21.6748C13.0445 21.6748 13.5865 21.626 14.1187 21.5308C14.9365 21.9922 15.8594 22.2388 16.8042 22.2388C18.2617 22.2388 19.6338 21.6724 20.6641 20.6396C21.6968 19.6094 22.2632 18.2373 22.2632 16.7798C22.2657 15.8521 22.0264 14.9365 21.5747 14.126ZM12.5415 18.103C9.26516 18.103 7.80031 16.4917 7.80031 15.2856C7.80031 14.6655 8.25686 14.2334 8.88674 14.2334C10.2881 14.2334 9.92678 16.2476 12.5415 16.2476C13.8819 16.2476 14.6216 15.52 14.6216 14.7754C14.6216 14.3286 14.4019 13.8306 13.5181 13.6133L10.603 12.8857C8.25686 12.2974 7.82961 11.0278 7.82961 9.83643C7.82961 7.36084 10.1612 6.43066 12.3511 6.43066C14.3677 6.43066 16.7456 7.54639 16.7456 9.03076C16.7456 9.66797 16.1939 10.0366 15.564 10.0366C14.3677 10.0366 14.5874 8.38135 12.1778 8.38135C10.9815 8.38135 10.3198 8.92334 10.3198 9.69727C10.3198 10.4712 11.2647 10.7178 12.085 10.9058L14.2432 11.3843C16.6065 11.9116 17.2046 13.291 17.2046 14.5898C17.2046 16.5991 15.6592 18.103 12.5415 18.103Z" fill="#616161" fill-opacity="0.7"/>
</svg>
