<svg width="25" height="25" viewBox="0 0 25 25" fill="none" xmlns="http://www.w3.org/2000/svg">
<path fill-rule="evenodd" clip-rule="evenodd" d="M0.892857 25H25V23.2143H1.78571V0H0V24.1071L0.892857 25ZM3.57143 20.5357V6.25L4.46429 5.35714H8.03571L8.92857 6.25V20.5357L8.03571 21.4286H4.46429L3.57143 20.5357ZM7.14286 19.6429V7.14286H5.35714V19.6429H7.14286ZM17.8571 2.67857V20.5357L18.75 21.4286H22.3214L23.2143 20.5357V2.67857L22.3214 1.78571H18.75L17.8571 2.67857ZM21.4286 3.57143V19.6429H19.6429V3.57143H21.4286ZM10.7143 20.5357V9.82143L11.6071 8.92857H15.1786L16.0714 9.82143V20.5357L15.1786 21.4286H11.6071L10.7143 20.5357ZM14.2857 19.6429V10.7143H12.5V19.6429H14.2857Z" fill="#DBDBDB"/>
</svg>
