<svg width="24" height="24" viewBox="0 0 24 24" fill="none" xmlns="http://www.w3.org/2000/svg">
<path d="M6.17073 11.2195C7.80731 11.2195 9.37686 11.8696 10.5341 13.0269C11.6913 14.1841 12.3415 15.7537 12.3415 17.3902C12.3415 19.0268 11.6913 20.5964 10.5341 21.7536C9.37686 22.9108 7.80731 23.561 6.17073 23.561C4.53415 23.561 2.9646 22.9108 1.80737 21.7536C0.650129 20.5964 0 19.0268 0 17.3902C0 15.7537 0.650129 14.1841 1.80737 13.0269C2.9646 11.8696 4.53415 11.2195 6.17073 11.2195ZM17.6696 0C18.3391 0 18.9812 0.265962 19.4546 0.739377C19.928 1.21279 20.194 1.85488 20.194 2.52439V19.9146C20.194 20.5841 19.928 21.2262 19.4546 21.6996C18.9812 22.1731 18.3391 22.439 17.6696 22.439H11.4316C11.9106 21.942 12.319 21.3754 12.641 20.7572L17.6696 20.7561C17.8928 20.7561 18.1068 20.6674 18.2646 20.5096C18.4224 20.3518 18.5111 20.1378 18.5111 19.9146V2.52439C18.5111 2.30122 18.4224 2.08719 18.2646 1.92939C18.1068 1.77158 17.8928 1.68293 17.6696 1.68293H5.89024C5.66707 1.68293 5.45304 1.77158 5.29524 1.92939C5.13743 2.08719 5.04878 2.30122 5.04878 2.52439V10.1828C4.47075 10.2721 3.90566 10.4311 3.36585 10.6563V2.52439C3.36585 1.85488 3.63182 1.21279 4.10523 0.739377C4.57865 0.265962 5.22073 0 5.89024 0H17.6696ZM6.17073 20.0605C6.07636 20.0567 5.9822 20.072 5.8939 20.1055C5.8056 20.1391 5.72497 20.1901 5.65687 20.2555C5.58876 20.3209 5.53458 20.3994 5.49756 20.4863C5.46055 20.5732 5.44147 20.6667 5.44147 20.7611C5.44147 20.8556 5.46055 20.9491 5.49756 21.036C5.53458 21.1228 5.58876 21.2014 5.65687 21.2668C5.72497 21.3322 5.8056 21.3832 5.8939 21.4167C5.9822 21.4503 6.07636 21.4656 6.17073 21.4618C6.35171 21.4546 6.52286 21.3776 6.64834 21.247C6.77383 21.1164 6.84391 20.9423 6.84391 20.7611C6.84391 20.58 6.77383 20.4059 6.64834 20.2753C6.52286 20.1447 6.35171 20.0677 6.17073 20.0605ZM6.17073 13.4668C4.99493 13.4668 4.07941 14.3834 4.09176 15.6591C4.09324 15.8079 4.15377 15.9499 4.26003 16.0541C4.36628 16.1583 4.50956 16.2159 4.65834 16.2144C4.80712 16.213 4.94922 16.1524 5.05337 16.0462C5.15752 15.9399 5.2152 15.7966 5.21371 15.6479C5.20698 14.9994 5.61761 14.5887 6.17073 14.5887C6.70029 14.5887 7.12776 15.0285 7.12776 15.6546C7.12776 15.9059 7.04361 16.0921 6.7721 16.4141L6.6599 16.5409L6.36259 16.8663C5.81956 17.4744 5.60976 17.8671 5.60976 18.5133C5.60976 18.6621 5.66886 18.8048 5.77406 18.91C5.87927 19.0152 6.02195 19.0743 6.17073 19.0743C6.31951 19.0743 6.4622 19.0152 6.5674 18.91C6.6726 18.8048 6.73171 18.6621 6.73171 18.5133C6.73171 18.2519 6.81698 18.0612 7.09522 17.7336L7.20741 17.6045L7.50585 17.2792C8.04215 16.6789 8.24971 16.2896 8.24971 15.6546C8.24971 14.416 7.32746 13.4668 6.17073 13.4668ZM22.1585 14.5876C22.3619 14.5876 22.5583 14.6613 22.7116 14.7949C22.8648 14.9286 22.9645 15.1132 22.9921 15.3146L23 15.4291V17.1098C23 17.3131 22.9264 17.5096 22.7927 17.6628C22.659 17.816 22.4744 17.9157 22.273 17.9434L22.1585 17.9512H21.3171V14.5876H22.1585ZM22.1585 10.0998C22.3619 10.0998 22.5583 10.1735 22.7116 10.3071C22.8648 10.4408 22.9645 10.6254 22.9921 10.8268L23 10.9413V12.622C23 12.8253 22.9264 13.0217 22.7927 13.175C22.659 13.3282 22.4744 13.4279 22.273 13.4556L22.1585 13.4634H21.3171V10.0998H22.1585ZM22.1585 5.612C22.3619 5.61201 22.5583 5.68565 22.7116 5.8193C22.8648 5.95295 22.9645 6.13757 22.9921 6.33902L23 6.45346V8.13415C23 8.33749 22.9264 8.53394 22.7927 8.68719C22.659 8.84044 22.4744 8.9401 22.273 8.96776L22.1585 8.97561H21.3171V5.612H22.1585ZM15.9867 3.36585C16.2099 3.36585 16.4239 3.45451 16.5817 3.61231C16.7395 3.77012 16.8281 3.98415 16.8281 4.20732V7.00995C16.8281 7.23312 16.7395 7.44715 16.5817 7.60496C16.4239 7.76276 16.2099 7.85141 15.9867 7.85141H7.57317C7.35 7.85141 7.13597 7.76276 6.97817 7.60496C6.82036 7.44715 6.73171 7.23312 6.73171 7.00995V4.20732C6.73171 3.98415 6.82036 3.77012 6.97817 3.61231C7.13597 3.45451 7.35 3.36585 7.57317 3.36585H15.9867ZM15.1452 5.04878H8.41463V6.16849H15.1452V5.04878Z" fill="#464C52"/>
</svg>
