<svg width="24" height="24" viewBox="0 0 24 24" fill="none" xmlns="http://www.w3.org/2000/svg">
    <path d="M9 18.6667L8 22.6667L6.66667 24H17.3333L16 22.6667L15 18.6667H9ZM0 13.3333H24H0ZM2.66667 18.6667H21.3333C22.0406 18.6667 22.7189 18.3857 23.219 17.8856C23.719 17.3855 24 16.7072 24 16V2.66667C24 1.95942 23.719 1.28115 23.219 0.781048C22.7189 0.280951 22.0406 0 21.3333 0H2.66667C1.95942 0 1.28115 0.280951 0.781048 0.781048C0.280951 1.28115 0 1.95942 0 2.66667V16C0 16.7072 0.280951 17.3855 0.781048 17.8856C1.28115 18.3857 1.95942 18.6667 2.66667 18.6667Z" stroke="#DBDBDB" stroke-width="2" stroke-linecap="round" stroke-linejoin="round"/>
</svg>
