<svg width="26" height="25" viewBox="0 0 26 25" fill="none" xmlns="http://www.w3.org/2000/svg">
<path d="M13 7.6875C13 7.43886 12.9012 7.2004 12.7254 7.02459C12.5496 6.84877 12.3111 6.75 12.0625 6.75C11.8139 6.75 11.5754 6.84877 11.3996 7.02459C11.2238 7.2004 11.125 7.43886 11.125 7.6875V13.9375C11.125 14.455 11.545 14.875 12.0625 14.875H16.4375C16.6861 14.875 16.9246 14.7762 17.1004 14.6004C17.2762 14.4246 17.375 14.1861 17.375 13.9375C17.375 13.6889 17.2762 13.4504 17.1004 13.2746C16.9246 13.0988 16.6861 13 16.4375 13H13V7.6875Z" fill="#DBDBDB"/>
<path d="M2.34499 9.37875C1.80194 8.93724 1.35762 8.38665 1.04079 7.7626C0.723958 7.13854 0.541669 6.45492 0.505717 5.75596C0.469765 5.05701 0.580951 4.35829 0.832081 3.70502C1.08321 3.05174 1.46869 2.45847 1.96358 1.96358C2.45847 1.46869 3.05174 1.08321 3.70502 0.832081C4.35829 0.580951 5.05701 0.469765 5.75596 0.505717C6.45492 0.541669 7.13854 0.723958 7.76259 1.04079C8.38665 1.35762 8.93724 1.80194 9.37874 2.34499C10.5451 1.94955 11.7685 1.74854 13 1.74999C14.2315 1.74856 15.4549 1.94957 16.6212 2.34499C17.0627 1.80194 17.6133 1.35762 18.2374 1.04079C18.8615 0.723958 19.5451 0.541669 20.244 0.505717C20.943 0.469765 21.6417 0.580951 22.295 0.832081C22.9482 1.08321 23.5415 1.46869 24.0364 1.96358C24.5313 2.45847 24.9168 3.05174 25.1679 3.70502C25.419 4.35829 25.5302 5.05701 25.4943 5.75596C25.4583 6.45492 25.276 7.13854 24.9592 7.7626C24.6424 8.38665 24.198 8.93724 23.655 9.37875C24.04 10.5162 24.25 11.7337 24.25 13C24.25 15.7687 23.25 18.305 21.59 20.265L23.975 22.65C24.0671 22.7358 24.141 22.8393 24.1922 22.9543C24.2435 23.0693 24.271 23.1935 24.2732 23.3193C24.2755 23.4452 24.2523 23.5703 24.2051 23.687C24.158 23.8037 24.0878 23.9098 23.9988 23.9988C23.9098 24.0878 23.8037 24.158 23.687 24.2052C23.5703 24.2523 23.4452 24.2755 23.3193 24.2732C23.1935 24.271 23.0693 24.2435 22.9543 24.1922C22.8393 24.141 22.7358 24.0671 22.65 23.975L20.265 21.59C18.2359 23.3111 15.6607 24.254 13 24.25C10.2312 24.25 7.69499 23.25 5.73499 21.59L3.34999 23.975C3.17228 24.1406 2.93722 24.2308 2.69434 24.2265C2.45146 24.2222 2.21973 24.1238 2.04797 23.952C1.8762 23.7803 1.77781 23.5485 1.77353 23.3056C1.76924 23.0628 1.85939 22.8277 2.02499 22.65L4.40999 20.265C2.6889 18.236 1.74599 15.6607 1.74999 13C1.74999 11.7337 1.95874 10.515 2.34499 9.37875ZM2.37499 5.49999C2.37499 6.28874 2.66749 7.00999 3.14999 7.55999C4.1773 5.70549 5.70549 4.1773 7.55999 3.14999C7.10835 2.75407 6.55218 2.49668 5.95805 2.40865C5.36392 2.32061 4.75701 2.40565 4.20996 2.65359C3.66291 2.90153 3.1989 3.30186 2.87347 3.80667C2.54804 4.31148 2.37497 4.89938 2.37499 5.49999ZM22.85 7.55999C23.3733 6.96349 23.6501 6.19025 23.6242 5.39717C23.5982 4.60409 23.2716 3.85056 22.7105 3.28946C22.1494 2.72837 21.3959 2.40174 20.6028 2.37584C19.8097 2.34994 19.0365 2.62671 18.44 3.14999C20.2945 4.1773 21.8227 5.70549 22.85 7.55999ZM3.62499 13C3.62499 15.4864 4.61271 17.871 6.37087 19.6291C8.12902 21.3873 10.5136 22.375 13 22.375C15.4864 22.375 17.871 21.3873 19.6291 19.6291C21.3873 17.871 22.375 15.4864 22.375 13C22.375 10.5136 21.3873 8.12902 19.6291 6.37087C17.871 4.61271 15.4864 3.62499 13 3.62499C10.5136 3.62499 8.12902 4.61271 6.37087 6.37087C4.61271 8.12902 3.62499 10.5136 3.62499 13Z" fill="#DBDBDB"/>
</svg>
