<svg width="29" height="23" viewBox="0 0 29 23" fill="none" xmlns="http://www.w3.org/2000/svg">
<path d="M25.1992 0.285721C26.0178 0.285721 26.8029 0.610904 27.3817 1.18973C27.9605 1.76856 28.2857 2.55362 28.2857 3.37221V19.1544C28.2857 19.973 27.9605 20.7581 27.3817 21.3369C26.8029 21.9157 26.0178 22.2409 25.1992 22.2409H3.94363C3.53831 22.2409 3.13696 22.1611 2.76249 22.006C2.38802 21.8509 2.04776 21.6235 1.76116 21.3369C1.47455 21.0503 1.2472 20.7101 1.09209 20.3356C0.936982 19.9611 0.857147 19.5598 0.857147 19.1544V3.37221C0.857147 2.55362 1.18233 1.76856 1.76116 1.18973C2.33999 0.610904 3.12505 0.285721 3.94363 0.285721H25.1992ZM25.1992 2.34338H3.94363C3.67077 2.34338 3.40908 2.45177 3.21614 2.64472C3.0232 2.83766 2.9148 3.09934 2.9148 3.37221V19.1544C2.9148 19.7224 3.37572 20.1833 3.94363 20.1833L7.71463 20.1819L7.716 16.404C7.71603 15.8016 7.94258 15.2211 8.3507 14.778C8.75881 14.3348 9.31864 14.0612 9.91907 14.0117L10.1166 14.0034H19.0263C19.6289 14.0035 20.2096 14.2302 20.6528 14.6386C21.096 15.047 21.3694 15.6072 21.4186 16.2079L21.4269 16.404L21.4255 20.1819H25.1992C25.4721 20.1819 25.7338 20.0735 25.9267 19.8806C26.1197 19.6876 26.2281 19.4259 26.2281 19.1531V3.37221C26.2281 3.09934 26.1197 2.83766 25.9267 2.64472C25.7338 2.45177 25.4721 2.34338 25.1992 2.34338ZM19.0263 16.0611H10.1166C10.0393 16.0612 9.96439 16.0874 9.90388 16.1355C9.84338 16.1835 9.80088 16.2506 9.78326 16.3258L9.77366 16.404L9.77229 20.1819H19.3678V16.404C19.3678 16.327 19.3418 16.2521 19.294 16.1917C19.2462 16.1312 19.1794 16.0886 19.1045 16.0707L19.0263 16.0611ZM14.5749 4.40104C15.6663 4.40104 16.7131 4.83461 17.4848 5.60638C18.2566 6.37815 18.6902 7.4249 18.6902 8.51635C18.6902 9.6078 18.2566 10.6545 17.4848 11.4263C16.7131 12.1981 15.6663 12.6317 14.5749 12.6317C13.4834 12.6317 12.4367 12.1981 11.6649 11.4263C10.8931 10.6545 10.4595 9.6078 10.4595 8.51635C10.4595 7.4249 10.8931 6.37815 11.6649 5.60638C12.4367 4.83461 13.4834 4.40104 14.5749 4.40104ZM14.5749 6.45869C14.0291 6.45869 13.5058 6.67548 13.1199 7.06137C12.734 7.44725 12.5172 7.97063 12.5172 8.51635C12.5172 9.06207 12.734 9.58545 13.1199 9.97133C13.5058 10.3572 14.0291 10.574 14.5749 10.574C15.1206 10.574 15.644 10.3572 16.0298 9.97133C16.4157 9.58545 16.6325 9.06207 16.6325 8.51635C16.6325 7.97063 16.4157 7.44725 16.0298 7.06137C15.644 6.67548 15.1206 6.45869 14.5749 6.45869Z" fill="#DBDBDB"/>
</svg>
