<svg width="20" height="20" viewBox="0 0 20 20" fill="#58C247" xmlns="http://www.w3.org/2000/svg">
<path d="M9.87033 9.09532C9.86408 9.13282 9.90001 9.18282 9.97189 9.27657C10.1547 9.51407 10.2094 9.86875 10.2828 10.1547C10.3891 10.575 10.4703 11.0328 10.5141 11.4609C10.5547 11.8703 10.6172 12.25 10.6172 12.6641V13.9578C10.6172 14.8797 10.461 15.8047 10.3328 16.7031C10.2875 17.0156 10.1922 17.3563 10.1141 17.6641C10.0813 17.7922 10.0766 17.9281 10.0469 18.0547C10.0422 18.075 10.036 18.0953 10.0313 18.1156C9.83595 18.7234 9.89533 19.2594 10.0281 19.3953C10.2547 19.6281 10.5719 19.7938 10.8563 19.8688C11.5047 20.0406 12.2422 20.0438 12.8656 19.7781C13.4469 19.5313 13.3141 19.0313 13.4141 18.4891C13.4719 18.1703 13.5063 17.8188 13.5063 17.4797C13.5063 16.7 13.5328 15.9141 13.461 15.1438C13.3688 14.1438 13.2203 13.1438 13.0016 12.15C12.8656 11.5344 12.7563 10.9594 12.5078 10.3719C12.386 10.0813 12.2578 9.82657 12.0953 9.55938C11.9406 9.30625 11.861 9.06563 11.6078 8.90313C11.5469 8.86407 11.1766 8.53907 11.1078 8.56563C10.7656 8.70157 10.4235 8.83594 10.0813 8.97188C9.94376 9.02657 9.87658 9.05157 9.87033 9.09532Z" fill="#58C247"/>
<path d="M19.0031 10.175C18.9281 9.13594 18.5641 8.00938 17.7094 7.35469C17.3063 7.04688 16.7219 6.81719 16.2391 6.67656C14.95 6.30313 13.4359 6.54219 12.1188 7.05625C12.4281 6.78438 12.7453 6.51719 13.0813 6.28594C13.4281 6.04688 13.7828 5.82813 14.1594 5.63594C14.2578 5.58594 14.3297 5.57031 14.3172 5.44844C14.3109 5.38438 14.2781 5.325 14.2531 5.26094C14.1719 5.0625 14.0344 4.91875 13.9188 4.73906C13.7938 4.54844 13.5906 4.33281 13.6172 4.09219C13.7172 4.05781 13.9391 4.20781 14.0359 4.24688C14.2141 4.32031 14.3797 4.40156 14.5516 4.4875C14.6953 4.55938 14.8406 4.62969 14.9813 4.70781C15.0609 4.75313 15.1703 4.85938 15.2609 4.875C15.4125 4.90313 15.5734 4.74219 15.7 4.67969C15.7922 4.63438 15.8266 4.64219 15.7875 4.53438C15.7219 4.35156 15.6359 4.19844 15.5641 4.02344C15.4891 3.83906 15.4203 3.63906 15.4453 3.43594C15.5844 3.3875 15.8953 3.64375 16.0031 3.7125C16.1125 3.78125 16.2328 3.85781 16.3328 3.94375C16.4172 4.01562 16.4672 4.14844 16.5906 4.1375C16.6578 4.13281 16.7172 4.07188 16.7766 4.04844C16.8813 4.00781 16.9391 3.95312 17.0359 3.9C17.225 3.79531 17.4266 3.69063 17.6219 3.59688C17.8547 3.48594 17.8422 3.4375 17.6859 3.23438C17.5984 3.12031 17.4813 3.02656 17.375 2.93125C17.0875 2.67656 16.8188 2.5125 16.4734 2.35469C16.3469 2.29688 16.2047 2.28906 16.0813 2.225C15.9656 2.16719 15.8594 2.14375 15.7281 2.12344C15.4484 2.07656 15.1641 2.05156 14.8797 2.04219C13.0656 1.98281 11.4047 3.275 10.7156 4.93125C10.6922 4.48906 10.7094 4.04063 10.7094 3.59844C10.7094 3.44844 10.6984 3.3125 10.725 3.16563C10.7438 3.06094 10.7953 2.68906 10.7016 2.63594C10.5703 2.5625 9.44688 2.57812 9.51876 2.42969C9.58751 2.2875 9.85782 2.24219 9.99063 2.19844C10.1563 2.14375 10.325 2.10625 10.4859 2.03906C10.6047 1.99063 10.775 2 10.8734 1.91406C10.95 1.84687 10.9422 1.71875 10.9625 1.62969C10.9906 1.50156 11.3438 0.0468748 11.2203 0.0140623C11.15 -0.00468772 11.0172 0.0468748 10.9438 0.0562498C10.8344 0.0718748 10.7219 0.110937 10.6156 0.142187C10.4656 0.185937 10.3063 0.228125 10.1625 0.292187C9.84219 0.434375 9.52813 0.6 9.23438 0.79375C9.08907 0.889062 8.94844 0.990625 8.81563 1.1C8.18907 1.61562 7.72501 2.28125 7.56876 3.10156C7.42657 3.84375 7.68751 4.57969 8.05469 5.22344C7.71251 4.99844 7.35626 4.79375 6.98751 4.62031C5.74532 4.0375 4.17969 4.20469 3.00469 4.875C2.59844 5.10625 2.18751 5.41563 1.85782 5.74844C1.54532 6.06406 1.10001 6.73438 1.01251 7.17969C0.995319 7.27031 0.981256 7.36406 0.967194 7.45625C0.973444 7.45625 0.981256 7.45781 0.987506 7.45781C1.14532 7.47031 2.80469 7.68281 2.83126 7.50469C2.85157 7.36719 2.97032 7.23438 3.02813 7.11094C3.19844 6.74844 3.72188 6.04375 4.21563 6.15156C4.23594 6.25781 4.17032 6.33281 4.12969 6.42969C4.06563 6.58438 4.00469 6.73906 3.94063 6.89375C3.85938 7.09219 3.77188 7.26406 3.80001 7.48125C4.00313 7.50625 4.22501 7.48438 4.42969 7.48438C4.60782 7.48438 4.78594 7.50313 4.96407 7.48125C4.96876 7.48125 5.10313 7.06094 5.12501 7.00313C5.19688 6.82813 5.31094 6.68594 5.43594 6.54531C5.50313 6.47031 5.67032 6.27656 5.78438 6.31563C5.80782 6.32344 5.71876 7.14063 5.71251 7.20156C5.69688 7.32656 5.65782 7.44688 5.67344 7.57344C6.07188 7.67969 6.48907 7.6625 6.89532 7.70313C7.07344 7.72188 7.25313 7.75313 7.43126 7.7875C7.42032 7.7875 7.40938 7.78906 7.39844 7.78906C6.85313 7.83281 6.30938 7.925 5.78594 8.08438C4.74532 8.4 3.72813 8.925 3.00782 9.74375C2.31251 10.5344 1.90626 12.0125 1.99844 13.0484C2.03438 13.4391 2.03282 13.5406 2.10626 13.9266C2.15313 14.1734 2.19844 14.4688 2.33751 14.6844C2.39063 14.7688 2.58438 15.1266 2.71719 15.0234C2.81251 14.95 2.86407 14.8016 2.93438 14.7031C3.12344 14.4406 3.32188 14.1859 3.50938 13.9219C3.59376 13.8031 3.89376 13.5172 3.83594 13.3641C3.76876 13.1891 3.75001 12.9875 3.72813 12.8031C3.69688 12.5375 3.68126 12.2656 3.70313 11.9984C3.71251 11.8828 3.72813 11.7656 3.76719 11.6563C3.78438 11.6078 3.87344 11.4188 3.94063 11.4406C3.97188 11.45 3.97501 11.5906 3.97813 11.6156C3.99063 11.7219 4.00001 11.8281 4.00938 11.9344C4.02032 12.0609 4.01876 12.1844 4.04532 12.3094C4.07657 12.4594 4.12813 12.6031 4.17344 12.75C4.19844 12.8313 4.23126 12.9453 4.30157 13C4.38282 13.0625 4.46719 12.9578 4.52188 12.9031C4.66563 12.7609 4.80782 12.6094 4.94063 12.4625C4.99844 12.3984 5.04063 12.3203 5.09688 12.2516C5.11407 12.2313 5.15157 12.2125 5.16251 12.1891C5.18282 12.1453 5.14688 12.0469 5.13751 12C5.11876 11.9156 5.08594 11.8328 5.07188 11.7469C5.04063 11.5641 5.05313 11.3813 5.07188 11.1984C5.08282 11.0875 5.05938 10.7953 5.16251 10.7219C5.24063 10.6656 5.22344 10.7953 5.22344 10.8406C5.22344 11.0719 5.27501 11.2953 5.34844 11.5141C5.37969 11.6063 5.40782 11.7188 5.47344 11.7938C5.56407 11.8953 5.65313 11.7703 5.72501 11.7047C5.95157 11.4953 6.17813 11.2859 6.40782 11.0797C6.45626 11.0359 6.50626 10.9922 6.55626 10.9484C6.66094 10.8609 6.76876 10.7766 6.87501 10.6906C6.64063 11.0438 6.45626 11.4281 6.34844 11.8359C6.21719 12.325 6.14219 12.9625 6.22032 13.4641C6.29063 13.9203 6.45782 14.4375 6.71407 14.8266C6.91563 15.1313 7.25469 15.4641 7.58594 15.6266C7.80626 15.7344 8.01719 15.0797 8.06407 14.9594C8.13438 14.7719 8.18594 14.5734 8.26563 14.3891C8.32813 14.2422 8.50313 13.9766 8.40782 13.8188C8.36719 13.7484 8.31251 13.6875 8.27188 13.6109C8.04376 13.1875 7.73282 12.8109 7.79219 12.2922C7.85157 12.3047 7.91094 12.4047 7.94376 12.4578C8.02032 12.5859 8.08594 12.7234 8.17344 12.8438C8.25938 12.9625 8.31876 13.1016 8.42501 13.2109C8.49532 13.2828 8.55313 13.3781 8.64844 13.4234C8.77344 13.4828 8.79844 13.3313 8.82344 13.2438C8.86563 13.0906 8.95469 12.9609 9.01407 12.8156C9.07032 12.6797 9.14844 12.5531 9.20782 12.4172C9.26251 12.2922 9.37657 12.1375 9.35157 11.9938C9.33751 11.9141 9.26251 11.8484 9.22501 11.775C9.17501 11.6688 9.12501 11.5625 9.08126 11.4531C9.04844 11.3672 9.01876 11.2781 8.99532 11.1906C8.98282 11.1453 8.98282 11.0516 8.95782 11.0219C9.00938 11.1031 9.14219 11.1719 9.21407 11.2406C9.27969 11.3016 9.50782 11.575 9.61563 11.5094C9.76407 11.4188 9.80626 11.2125 9.87344 11.0656C9.96251 10.8625 10.0766 10.6766 10.1578 10.4734C10.2594 10.2141 10.4203 10.0078 10.5719 9.77969C10.6766 9.62031 10.8063 9.48594 10.9078 9.32656C10.9656 9.23594 11.1063 9.0875 11.1406 8.97813C11.8328 9.14531 12.5469 9.27656 13.225 9.49844C13.4969 9.58594 13.7625 9.69688 14.0313 9.79531C14.2266 9.86719 14.4344 9.88594 14.6328 9.94844C14.7453 9.98438 14.8734 10.0781 14.95 9.94375C15.0047 9.84531 15.0188 9.72188 15.0719 9.61563C15.1406 9.47813 15.1766 9.34063 15.2109 9.19219C15.2391 9.08125 15.2438 8.95 15.2875 8.84688C15.3172 8.77969 15.3594 8.62188 15.4156 8.57656C15.5359 8.48125 15.5625 8.69063 15.5922 8.78906C15.6891 9.12031 15.6656 9.50156 15.6578 9.84375C15.6531 10.0016 15.5953 10.1578 15.6141 10.3141C15.6859 10.3125 15.7594 10.3656 15.8266 10.3875C15.9359 10.425 16.0547 10.4484 16.1672 10.4766C16.2344 10.4922 16.3672 10.5547 16.4313 10.5469C16.5172 10.5359 16.5094 10.4609 16.5531 10.3922C16.6688 10.2156 16.75 10.0094 16.8234 9.80781C16.9172 9.55313 16.9344 9.27031 17.0688 9.03125C17.0734 9.02188 17.1672 9.24219 17.1734 9.2625C17.2234 9.41563 17.2578 9.53438 17.2781 9.69063C17.2891 9.76875 17.3125 9.84688 17.325 9.925C17.3453 10.0547 17.3438 10.1828 17.3438 10.3172C17.3438 10.5375 17.3203 10.775 17.3469 10.9922C17.5094 11.0156 17.6594 11.1406 17.8125 11.1922C17.9297 11.2313 18.9109 11.5969 18.9109 11.6266C18.9078 11.5359 18.9516 11.4406 18.9609 11.35C18.9719 11.2313 18.9844 11.1172 19.0094 10.9984C19.0578 10.7344 19.0234 10.4438 19.0031 10.175Z" fill="#58C247"/>
<path d="M7.26561 10.9328C7.2203 10.9609 7.19218 11.0234 7.16718 11.0719C7.02343 11.3438 6.91249 11.6359 6.83436 11.9344C6.71874 12.3781 6.67968 12.8453 6.74374 13.3C6.78436 13.5984 6.87343 13.8906 6.99843 14.1656C7.06249 14.3047 7.13436 14.4375 7.21561 14.5672C7.28593 14.6781 7.35624 14.8938 7.5203 14.7766C7.60936 14.7141 7.75311 14.4781 7.71405 14.3609C7.62342 14.0938 7.44842 13.8547 7.3453 13.5875C7.23436 13.3016 7.18905 12.9906 7.17499 12.6844C7.16405 12.4266 7.17655 12.1672 7.2078 11.9109C7.22655 11.7609 7.24999 11.6141 7.27968 11.4656C7.2953 11.3859 7.31249 11.3063 7.33124 11.2281C7.34374 11.1719 7.42655 10.8328 7.26561 10.9328Z" fill="#58C247"/>
<path d="M6.22968 8.32812C6.21659 8.31916 6.20165 8.31325 6.18597 8.31081C6.17028 8.30838 6.15425 8.30949 6.13906 8.31406C5.85781 8.39062 5.58125 8.49531 5.3125 8.6125C4.90781 8.78906 4.51875 9.00312 4.1625 9.26562C3.75468 9.56406 3.38906 9.92656 3.11406 10.3531C2.79062 10.8578 2.5875 11.4312 2.50625 12.025C2.44375 12.4937 2.45468 12.9734 2.52656 13.4406C2.54843 13.5797 2.57656 13.7187 2.60937 13.8562C2.63281 13.9562 2.65 14.1094 2.72656 14.1797C2.79531 14.2406 2.82656 14.1828 2.875 14.1281C2.95781 14.0359 3.04687 13.9469 3.12343 13.85C3.18125 13.7781 3.17968 13.6812 3.15781 13.5937C3.11875 13.4469 3.08906 13.2969 3.06718 13.1453C3.03593 12.9266 3.01875 12.7047 3.01875 12.4828C3.01875 12.2125 3.04531 11.9422 3.09843 11.6766C3.15935 11.3725 3.25749 11.077 3.39062 10.7969C3.54375 10.475 3.74375 10.1781 3.97968 9.9125C4.2625 9.59531 4.59375 9.32187 4.95156 9.09375C5.16265 8.95955 5.38182 8.83848 5.60781 8.73125C5.73125 8.67187 5.85625 8.61719 5.98281 8.56562C6.05156 8.5375 6.23281 8.50937 6.25937 8.425C6.27031 8.38125 6.25624 8.34687 6.22968 8.32812Z" fill="#58C247"/>
<path d="M1.8172 6.86563C1.76251 6.75469 1.86095 6.64219 1.93751 6.52656C2.26876 6.01875 2.71407 5.58281 3.23126 5.26563C3.69845 4.97813 4.22189 4.79375 4.76095 4.70313C4.93595 4.67344 5.11095 4.65938 5.28595 4.64844C5.34376 4.64531 5.96564 4.59063 5.81876 4.78906C5.7797 4.84063 5.67814 4.84219 5.62032 4.84688C5.46407 4.86094 5.30782 4.88438 5.1547 4.91719C4.85314 4.98125 4.55939 5.07656 4.27814 5.20156C3.90001 5.36875 3.54376 5.59063 3.2297 5.86094C3.00157 6.05625 2.80314 6.28281 2.62189 6.52188C2.51564 6.6625 2.42814 6.90156 2.25001 6.97031C2.15001 7.00938 1.95626 7.00938 1.87189 6.93594C1.84689 6.9125 1.82814 6.88906 1.8172 6.86563Z" fill="#58C247"/>
<path d="M9.04374 1.54531C9.02499 1.53594 8.99999 1.53438 8.9703 1.54531C8.90311 1.56719 8.78905 1.70781 8.74061 1.75938C8.39999 2.12656 8.20624 2.64844 8.13905 3.13906C8.09843 3.425 8.11561 3.71719 8.17811 4C8.20936 4.14219 8.25311 4.28281 8.30624 4.41875C8.33436 4.49063 8.35155 4.55469 8.41093 4.60469C8.46561 4.65313 8.52343 4.65 8.58436 4.61563C8.62499 4.59219 8.68905 4.55313 8.7203 4.51719C8.78905 4.4375 8.69999 4.31563 8.67343 4.23594C8.59374 4.00156 8.49374 3.77031 8.46561 3.52344C8.43749 3.275 8.47186 3.01406 8.52811 2.77031C8.59061 2.49688 8.69218 2.23281 8.83124 1.99063C8.89843 1.87344 8.97968 1.76875 9.05468 1.65781C9.08749 1.60469 9.07655 1.5625 9.04374 1.54531Z" fill="#58C247"/>
</svg>
