<svg width="20" height="20" viewBox="0 0 20 20" fill="none" xmlns="http://www.w3.org/2000/svg">
    <path d="M9.87031 9.09568C9.86406 9.13318 9.9 9.18318 9.97188 9.27693C10.1547 9.51443 10.2094 9.86912 10.2828 10.1551C10.3891 10.5754 10.4703 11.0332 10.5141 11.4613C10.5547 11.8707 10.6172 12.2504 10.6172 12.6644V13.9582C10.6172 14.8801 10.4609 15.8051 10.3328 16.7035C10.2875 17.016 10.1922 17.3566 10.1141 17.6644C10.0813 17.7926 10.0766 17.9285 10.0469 18.0551C10.0422 18.0754 10.0359 18.0957 10.0313 18.116C9.83594 18.7238 9.89531 19.2597 10.0281 19.3957C10.2547 19.6285 10.5719 19.7941 10.8563 19.8691C11.5047 20.041 12.2422 20.0441 12.8656 19.7785C13.4469 19.5316 13.3141 19.0316 13.4141 18.4894C13.4719 18.1707 13.5063 17.8191 13.5063 17.4801C13.5063 16.7004 13.5328 15.9144 13.4609 15.1441C13.3688 14.1441 13.2203 13.1441 13.0016 12.1504C12.8656 11.5347 12.7563 10.9597 12.5078 10.3722C12.3859 10.0816 12.2578 9.82693 12.0953 9.55974C11.9406 9.30662 11.8609 9.06599 11.6078 8.90349C11.5469 8.86443 11.1766 8.53943 11.1078 8.56599C10.7656 8.70193 10.4234 8.83631 10.0813 8.97224C9.94375 9.02693 9.87656 9.05193 9.87031 9.09568Z" fill="white"/>
    <path d="M19.0031 10.1748C18.9281 9.13571 18.5641 8.00915 17.7094 7.35446C17.3062 7.04665 16.7219 6.81696 16.2391 6.67634C14.95 6.3029 13.4359 6.54196 12.1187 7.05603C12.4281 6.78415 12.7453 6.51696 13.0812 6.28571C13.4281 6.04665 13.7828 5.8279 14.1594 5.63571C14.2578 5.58571 14.3297 5.57009 14.3172 5.44821C14.3109 5.38415 14.2781 5.32477 14.2531 5.26071C14.1719 5.06227 14.0344 4.91853 13.9187 4.73884C13.7937 4.54821 13.5906 4.33259 13.6172 4.09196C13.7172 4.05759 13.9391 4.20759 14.0359 4.24665C14.2141 4.32009 14.3797 4.40134 14.5516 4.48728C14.6953 4.55915 14.8406 4.62946 14.9812 4.70759C15.0609 4.7529 15.1703 4.85915 15.2609 4.87478C15.4125 4.9029 15.5734 4.74196 15.7 4.67946C15.7922 4.63415 15.8266 4.64196 15.7875 4.53415C15.7219 4.35134 15.6359 4.19821 15.5641 4.02321C15.4891 3.83884 15.4203 3.63884 15.4453 3.43571C15.5844 3.38727 15.8953 3.64353 16.0031 3.71228C16.1125 3.78103 16.2328 3.85759 16.3328 3.94353C16.4172 4.0154 16.4672 4.14821 16.5906 4.13728C16.6578 4.13259 16.7172 4.07165 16.7766 4.04821C16.8812 4.00759 16.9391 3.9529 17.0359 3.89978C17.225 3.79509 17.4266 3.6904 17.6219 3.59665C17.8547 3.48571 17.8422 3.43728 17.6859 3.23415C17.5984 3.12009 17.4812 3.02634 17.375 2.93103C17.0875 2.67634 16.8187 2.51227 16.4734 2.35446C16.3469 2.29665 16.2047 2.28884 16.0812 2.22477C15.9656 2.16696 15.8594 2.14352 15.7281 2.12321C15.4484 2.07634 15.1641 2.05134 14.8797 2.04196C13.0656 1.98259 11.4047 3.27477 10.7156 4.93103C10.6922 4.48884 10.7094 4.0404 10.7094 3.59821C10.7094 3.44821 10.6984 3.31227 10.725 3.1654C10.7437 3.06071 10.7953 2.68884 10.7016 2.63571C10.5703 2.56228 9.44687 2.5779 9.51875 2.42946C9.5875 2.28727 9.85781 2.24196 9.99062 2.19821C10.1562 2.14352 10.325 2.10602 10.4859 2.03884C10.6047 1.9904 10.775 1.99977 10.8734 1.91384C10.95 1.84665 10.9422 1.71852 10.9625 1.62946C10.9906 1.50134 11.3437 0.0466497 11.2203 0.0138372C11.15 -0.00491279 11.0172 0.0466497 10.9437 0.0560247C10.8344 0.0716497 10.7219 0.110712 10.6156 0.141962C10.4656 0.185712 10.3062 0.2279 10.1625 0.291962C9.84219 0.43415 9.52812 0.599775 9.23437 0.793525C9.08906 0.888837 8.94844 0.9904 8.81562 1.09977C8.18906 1.6154 7.725 2.28102 7.56875 3.10134C7.42656 3.84353 7.6875 4.57946 8.05469 5.22321C7.7125 4.99821 7.35625 4.79353 6.9875 4.62009C5.74531 4.03727 4.17969 4.20446 3.00469 4.87478C2.59844 5.10603 2.1875 5.4154 1.85781 5.74821C1.54531 6.06384 1.1 6.73415 1.0125 7.17946C0.995311 7.27009 0.981248 7.36384 0.967186 7.45603C0.973436 7.45603 0.981248 7.45759 0.987498 7.45759C1.14531 7.47009 2.80469 7.68259 2.83125 7.50446C2.85156 7.36696 2.97031 7.23415 3.02812 7.11071C3.19844 6.74821 3.72187 6.04353 4.21562 6.15134C4.23594 6.25759 4.17031 6.33259 4.12969 6.42946C4.06562 6.58415 4.00469 6.73884 3.94062 6.89353C3.85937 7.09196 3.77187 7.26384 3.8 7.48103C4.00312 7.50603 4.225 7.48415 4.42969 7.48415C4.60781 7.48415 4.78594 7.5029 4.96406 7.48103C4.96875 7.48103 5.10312 7.06071 5.125 7.0029C5.19687 6.8279 5.31094 6.68571 5.43594 6.54509C5.50312 6.47009 5.67031 6.27634 5.78437 6.3154C5.80781 6.32321 5.71875 7.1404 5.7125 7.20134C5.69687 7.32634 5.65781 7.44665 5.67344 7.57321C6.07187 7.67946 6.48906 7.66228 6.89531 7.7029C7.07344 7.72165 7.25312 7.7529 7.43125 7.78728C7.42031 7.78728 7.40937 7.78884 7.39844 7.78884C6.85312 7.83259 6.30937 7.92478 5.78594 8.08415C4.74531 8.39978 3.72812 8.92478 3.00781 9.74353C2.3125 10.5342 1.90625 12.0123 1.99844 13.0482C2.03437 13.4388 2.03281 13.5404 2.10625 13.9263C2.15312 14.1732 2.19844 14.4685 2.3375 14.6842C2.39062 14.7685 2.58437 15.1263 2.71719 15.0232C2.8125 14.9498 2.86406 14.8013 2.93437 14.7029C3.12344 14.4404 3.32187 14.1857 3.50937 13.9217C3.59375 13.8029 3.89375 13.517 3.83594 13.3638C3.76875 13.1888 3.75 12.9873 3.72812 12.8029C3.69687 12.5373 3.68125 12.2654 3.70312 11.9982C3.7125 11.8826 3.72812 11.7654 3.76719 11.656C3.78437 11.6076 3.87344 11.4185 3.94062 11.4404C3.97187 11.4498 3.975 11.5904 3.97812 11.6154C3.99062 11.7217 4 11.8279 4.00937 11.9342C4.02031 12.0607 4.01875 12.1842 4.04531 12.3092C4.07656 12.4592 4.12812 12.6029 4.17344 12.7498C4.19844 12.831 4.23125 12.9451 4.30156 12.9998C4.38281 13.0623 4.46719 12.9576 4.52187 12.9029C4.66562 12.7607 4.80781 12.6092 4.94062 12.4623C4.99844 12.3982 5.04062 12.3201 5.09687 12.2513C5.11406 12.231 5.15156 12.2123 5.1625 12.1888C5.18281 12.1451 5.14687 12.0467 5.1375 11.9998C5.11875 11.9154 5.08594 11.8326 5.07187 11.7467C5.04062 11.5638 5.05312 11.381 5.07187 11.1982C5.08281 11.0873 5.05937 10.7951 5.1625 10.7217C5.24062 10.6654 5.22344 10.7951 5.22344 10.8404C5.22344 11.0717 5.275 11.2951 5.34844 11.5138C5.37969 11.606 5.40781 11.7185 5.47344 11.7935C5.56406 11.8951 5.65312 11.7701 5.725 11.7045C5.95156 11.4951 6.17812 11.2857 6.40781 11.0795C6.45625 11.0357 6.50625 10.992 6.55625 10.9482C6.66094 10.8607 6.76875 10.7763 6.875 10.6904C6.64062 11.0435 6.45625 11.4279 6.34844 11.8357C6.21719 12.3248 6.14219 12.9623 6.22031 13.4638C6.29062 13.9201 6.45781 14.4373 6.71406 14.8263C6.91562 15.131 7.25469 15.4638 7.58594 15.6263C7.80625 15.7342 8.01719 15.0795 8.06406 14.9592C8.13437 14.7717 8.18594 14.5732 8.26562 14.3888C8.32812 14.242 8.50312 13.9763 8.40781 13.8185C8.36719 13.7482 8.3125 13.6873 8.27187 13.6107C8.04375 13.1873 7.73281 12.8107 7.79219 12.292C7.85156 12.3045 7.91094 12.4045 7.94375 12.4576C8.02031 12.5857 8.08594 12.7232 8.17344 12.8435C8.25937 12.9623 8.31875 13.1013 8.425 13.2107C8.49531 13.2826 8.55312 13.3779 8.64844 13.4232C8.77344 13.4826 8.79844 13.331 8.82344 13.2435C8.86562 13.0904 8.95469 12.9607 9.01406 12.8154C9.07031 12.6795 9.14844 12.5529 9.20781 12.417C9.2625 12.292 9.37656 12.1373 9.35156 11.9935C9.3375 11.9138 9.2625 11.8482 9.225 11.7748C9.175 11.6685 9.125 11.5623 9.08125 11.4529C9.04844 11.367 9.01875 11.2779 8.99531 11.1904C8.98281 11.1451 8.98281 11.0513 8.95781 11.0217C9.00937 11.1029 9.14219 11.1717 9.21406 11.2404C9.27969 11.3013 9.50781 11.5748 9.61562 11.5092C9.76406 11.4185 9.80625 11.2123 9.87344 11.0654C9.9625 10.8623 10.0766 10.6763 10.1578 10.4732C10.2594 10.2138 10.4203 10.0076 10.5719 9.77946C10.6766 9.62009 10.8062 9.48571 10.9078 9.32634C10.9656 9.23571 11.1062 9.08728 11.1406 8.9779C11.8328 9.14509 12.5469 9.27634 13.225 9.49821C13.4969 9.58571 13.7625 9.69665 14.0312 9.79509C14.2266 9.86696 14.4344 9.88571 14.6328 9.94821C14.7453 9.98415 14.8734 10.0779 14.95 9.94353C15.0047 9.84509 15.0187 9.72165 15.0719 9.6154C15.1406 9.4779 15.1766 9.3404 15.2109 9.19196C15.2391 9.08103 15.2437 8.94978 15.2875 8.84665C15.3172 8.77946 15.3594 8.62165 15.4156 8.57634C15.5359 8.48103 15.5625 8.6904 15.5922 8.78884C15.6891 9.12009 15.6656 9.50134 15.6578 9.84353C15.6531 10.0013 15.5953 10.1576 15.6141 10.3138C15.6859 10.3123 15.7594 10.3654 15.8266 10.3873C15.9359 10.4248 16.0547 10.4482 16.1672 10.4763C16.2344 10.492 16.3672 10.5545 16.4312 10.5467C16.5172 10.5357 16.5094 10.4607 16.5531 10.392C16.6687 10.2154 16.75 10.0092 16.8234 9.80759C16.9172 9.5529 16.9344 9.27009 17.0687 9.03103C17.0734 9.02165 17.1672 9.24196 17.1734 9.26228C17.2234 9.4154 17.2578 9.53415 17.2781 9.6904C17.2891 9.76853 17.3125 9.84665 17.325 9.92478C17.3453 10.0545 17.3437 10.1826 17.3437 10.317C17.3437 10.5373 17.3203 10.7748 17.3469 10.992C17.5094 11.0154 17.6594 11.1404 17.8125 11.192C17.9297 11.231 18.9109 11.5967 18.9109 11.6263C18.9078 11.5357 18.9516 11.4404 18.9609 11.3498C18.9719 11.231 18.9844 11.117 19.0094 10.9982C19.0578 10.7342 19.0234 10.4435 19.0031 10.1748Z" fill="white"/>
    <path d="M7.26562 10.9324C7.22031 10.9605 7.19218 11.023 7.16718 11.0715C7.02343 11.3433 6.9125 11.6355 6.83437 11.934C6.71875 12.3777 6.67968 12.8449 6.74375 13.2996C6.78437 13.598 6.87343 13.8902 6.99843 14.1652C7.0625 14.3043 7.13437 14.4371 7.21562 14.5668C7.28593 14.6777 7.35625 14.8933 7.52031 14.7761C7.60937 14.7136 7.75312 14.4777 7.71406 14.3605C7.62343 14.0933 7.44843 13.8543 7.34531 13.5871C7.23437 13.3011 7.18906 12.9902 7.175 12.684C7.16406 12.4261 7.17656 12.1668 7.20781 11.9105C7.22656 11.7605 7.25 11.6136 7.27968 11.4652C7.29531 11.3855 7.31249 11.3058 7.33124 11.2277C7.34374 11.1715 7.42656 10.8324 7.26562 10.9324Z" fill="white"/>
    <path d="M6.22968 8.32716C6.21658 8.3182 6.20164 8.31228 6.18596 8.30985C6.17028 8.30742 6.15425 8.30853 6.13905 8.3131C5.8578 8.38966 5.58124 8.49435 5.31249 8.61154C4.9078 8.7881 4.51874 9.00216 4.16249 9.26466C3.75468 9.5631 3.38905 9.9256 3.11405 10.3522C2.79062 10.8569 2.58749 11.4303 2.50624 12.024C2.44374 12.4928 2.45468 12.9725 2.52655 13.4397C2.54843 13.5787 2.57655 13.7178 2.60937 13.8553C2.6328 13.9553 2.64999 14.1084 2.72655 14.1787C2.7953 14.2397 2.82655 14.1818 2.87499 14.1272C2.9578 14.035 3.04687 13.9459 3.12343 13.849C3.18124 13.7772 3.17968 13.6803 3.1578 13.5928C3.11874 13.4459 3.08905 13.2959 3.06718 13.1444C3.03593 12.9256 3.01874 12.7037 3.01874 12.4819C3.01874 12.2115 3.0453 11.9412 3.09843 11.6756C3.15935 11.3715 3.25748 11.076 3.39062 10.7959C3.54374 10.474 3.74374 10.1772 3.97968 9.91154C4.26249 9.59435 4.59374 9.32091 4.95155 9.09279C5.16265 8.95859 5.38181 8.83752 5.6078 8.73029C5.73124 8.67091 5.85624 8.61623 5.9828 8.56466C6.05155 8.53654 6.2328 8.50841 6.25937 8.42404C6.2703 8.38029 6.25624 8.34591 6.22968 8.32716Z" fill="white"/>
    <path d="M1.81719 6.86507C1.7625 6.75414 1.86094 6.64164 1.9375 6.52601C2.26875 6.0182 2.71407 5.58226 3.23125 5.26507C3.69844 4.97757 4.22188 4.7932 4.76094 4.70257C4.93594 4.67289 5.11094 4.65882 5.28594 4.64789C5.34375 4.64476 5.96563 4.59007 5.81875 4.78851C5.77969 4.84007 5.67813 4.84164 5.62032 4.84632C5.46407 4.86039 5.30782 4.88382 5.15469 4.91664C4.85313 4.9807 4.55938 5.07601 4.27813 5.20101C3.9 5.3682 3.54375 5.59007 3.22969 5.86039C3.00157 6.0557 2.80313 6.28226 2.62188 6.52132C2.51563 6.66195 2.42813 6.90101 2.25 6.96976C2.15 7.00882 1.95625 7.00882 1.87188 6.93539C1.84688 6.91195 1.82813 6.88851 1.81719 6.86507Z" fill="white"/>
    <path d="M9.04375 1.54474C9.025 1.53536 9 1.5338 8.97031 1.54474C8.90312 1.56661 8.78906 1.70724 8.74062 1.7588C8.4 2.12599 8.20625 2.64786 8.13906 3.13849C8.09844 3.42443 8.11563 3.71661 8.17813 3.99943C8.20938 4.14161 8.25313 4.28224 8.30625 4.41818C8.33438 4.49005 8.35156 4.55411 8.41094 4.60411C8.46563 4.65255 8.52344 4.64943 8.58437 4.61505C8.625 4.59161 8.68906 4.55255 8.72031 4.51661C8.78906 4.43693 8.7 4.31505 8.67344 4.23536C8.59375 4.00099 8.49375 3.76974 8.46563 3.52286C8.4375 3.27443 8.47188 3.01349 8.52813 2.76974C8.59063 2.4963 8.69219 2.23224 8.83125 1.99005C8.89844 1.87286 8.97969 1.76818 9.05469 1.65724C9.0875 1.60411 9.07656 1.56193 9.04375 1.54474Z" fill="white"/>
</svg>
