<svg width="24" height="23" viewBox="0 0 24 23" fill="none" xmlns="http://www.w3.org/2000/svg">
    <path d="M22.8749 7.45776C22.7356 7.45833 22.5981 7.42707 22.4728 7.36637L11.9076 1.97411L1.34243 7.32981C1.117 7.43646 0.858445 7.4492 0.62363 7.36521C0.388816 7.28123 0.196982 7.10741 0.0903291 6.88198C-0.0163236 6.65656 -0.0290581 6.398 0.0549266 6.16318C0.138911 5.92837 0.312736 5.73653 0.538161 5.62988L11.9076 0L23.277 5.62988C23.5167 5.68587 23.7246 5.83401 23.8559 6.04221C23.9871 6.25042 24.031 6.50194 23.9781 6.7423C23.9253 6.98266 23.7798 7.19252 23.5733 7.32643C23.3668 7.46034 23.1159 7.50752 22.8749 7.45776ZM7.33789 16.5972H1.85424V22.0808H7.33789V16.5972ZM14.6494 16.5972H9.16577V22.0808H14.6494V16.5972ZM21.961 16.5972H16.4773V22.0808H21.961V16.5972ZM18.3052 9.28565H12.8215V14.7693H18.3052V9.28565ZM10.9937 9.28565H5.51V14.7693H10.9937V9.28565Z" fill="#464C52"/>
</svg>
