<svg width="14" height="17" viewBox="0 0 14 17" fill="none" xmlns="http://www.w3.org/2000/svg">
<path d="M11.375 9C11.8723 9 12.3492 9.19754 12.7008 9.54917C13.0525 9.90081 13.25 10.3777 13.25 10.875V11.5C13.25 13.9637 10.925 16.5 7 16.5C3.075 16.5 0.75 13.9637 0.75 11.5V10.875C0.75 10.3777 0.947544 9.90081 1.29917 9.54917C1.65081 9.19754 2.12772 9 2.625 9H11.375ZM7 0.875C7.91168 0.875 8.78602 1.23716 9.43068 1.88182C10.0753 2.52648 10.4375 3.40082 10.4375 4.3125C10.4375 5.22418 10.0753 6.09852 9.43068 6.74318C8.78602 7.38784 7.91168 7.75 7 7.75C6.08832 7.75 5.21398 7.38784 4.56932 6.74318C3.92466 6.09852 3.5625 5.22418 3.5625 4.3125C3.5625 3.40082 3.92466 2.52648 4.56932 1.88182C5.21398 1.23716 6.08832 0.875 7 0.875V0.875Z" fill="#F97878"/>
</svg>
