<svg width="30" height="30" viewBox="0 0 30 30" fill="none" xmlns="http://www.w3.org/2000/svg">
    <path d="M11.6663 26.1699C6.66563 25.5999 3.75 22.1312 3.75 18.7505V17.813C3.75 17.0671 4.04632 16.3517 4.57376 15.8243C5.10121 15.2968 5.81658 15.0005 6.5625 15.0005H10.5C10.1934 15.5998 9.94654 16.2278 9.76312 16.8755H6.5625C6.31386 16.8755 6.0754 16.9743 5.89959 17.1501C5.72377 17.3259 5.625 17.5644 5.625 17.813V18.7505C5.625 20.8655 7.27875 23.1249 10.3162 24.0005C10.6762 24.7805 11.1319 25.508 11.6663 26.1699ZM18.0488 9.5049C18.3558 8.51982 18.3602 7.46528 18.0614 6.47767C17.7626 5.49005 17.1744 4.61479 16.3728 3.96507C15.5713 3.31535 14.5932 2.92106 13.5651 2.83319C12.5371 2.74532 11.5063 2.96791 10.6061 3.47217C9.70589 3.97644 8.97768 4.73918 8.51564 5.66177C8.0536 6.58436 7.87898 7.62435 8.01436 8.64724C8.14974 9.67014 8.5889 10.6289 9.27504 11.3995C9.96117 12.1701 10.8627 12.7172 11.8631 12.9699C12.4549 12.2815 13.1344 11.6738 13.8844 11.1624C13.1145 11.3464 12.304 11.2459 11.6023 10.8793C10.9007 10.5128 10.3552 9.90497 10.0665 9.16791C9.77773 8.43085 9.76517 7.61425 10.0311 6.86865C10.2971 6.12306 10.8236 5.49875 11.5136 5.11081C12.2037 4.72287 13.0107 4.59747 13.7859 4.75772C14.5611 4.91797 15.2523 5.35306 15.7319 5.98279C16.2116 6.61252 16.4474 7.39443 16.396 8.18436C16.3445 8.97429 16.0092 9.71899 15.4519 10.2812C16.2793 9.90845 17.1525 9.64742 18.0488 9.5049ZM12.4406 18.6005C12.9248 18.4767 13.3794 18.2573 13.7775 17.9553C14.1757 17.6533 14.5095 17.2747 14.7593 16.8418C15.0091 16.409 15.1699 15.9305 15.2321 15.4347C15.2944 14.9388 15.2569 14.4355 15.1219 13.9543L14.8294 12.9099C15.3056 12.5443 15.8231 12.2312 16.3706 11.978L17.0025 12.6493C17.3529 13.0211 17.7756 13.3174 18.2447 13.52C18.7138 13.7226 19.2193 13.8271 19.7302 13.8273C20.2412 13.8275 20.7467 13.7233 21.2159 13.521C21.6851 13.3187 22.1081 13.0227 22.4587 12.6512L23.0681 12.0062C23.625 12.2687 24.15 12.5968 24.6319 12.9774L24.3956 13.7705C24.2494 14.26 24.2046 14.7741 24.2642 15.2815C24.3237 15.7888 24.4863 16.2786 24.7419 16.7209C24.9976 17.1632 25.3409 17.5485 25.7508 17.8534C26.1607 18.1582 26.6285 18.3761 27.1256 18.4937L27.7819 18.6474C27.8571 19.2805 27.8634 19.9198 27.8006 20.5543L26.9363 20.7755C26.4523 20.8994 25.9979 21.1187 25.5999 21.4206C25.2018 21.7225 24.8681 22.1009 24.6184 22.5335C24.3686 22.9662 24.2078 23.4444 24.1454 23.94C24.083 24.4357 24.1203 24.9388 24.255 25.4199L24.5456 26.4643C24.0694 26.8299 23.5519 27.1449 23.0044 27.398L22.3725 26.7268C22.0222 26.3548 21.5996 26.0584 21.1306 25.8557C20.6616 25.6529 20.1561 25.5482 19.6452 25.5478C19.1342 25.5475 18.6286 25.6515 18.1594 25.8536C17.6901 26.0557 17.2671 26.3516 16.9163 26.723L16.3088 27.368C15.7516 27.1049 15.2264 26.779 14.7431 26.3968L14.9794 25.6055C15.1259 25.116 15.1709 24.6016 15.1115 24.0941C15.0521 23.5865 14.8896 23.0964 14.6339 22.654C14.3783 22.2115 14.0349 21.8259 13.6248 21.521C13.2148 21.216 12.7467 20.9981 12.2494 20.8805L11.5931 20.7268C11.5181 20.0943 11.5118 19.4556 11.5744 18.8218L12.4406 18.6005ZM21.5625 19.688C21.5625 19.1907 21.365 18.7138 21.0133 18.3622C20.6617 18.0106 20.1848 17.813 19.6875 17.813C19.1902 17.813 18.7133 18.0106 18.3617 18.3622C18.01 18.7138 17.8125 19.1907 17.8125 19.688C17.8125 20.1853 18.01 20.6622 18.3617 21.0139C18.7133 21.3655 19.1902 21.563 19.6875 21.563C20.1848 21.563 20.6617 21.3655 21.0133 21.0139C21.365 20.6622 21.5625 20.1853 21.5625 19.688Z" fill="#DBDBDB"/>
</svg>
