<svg width="30" height="30" viewBox="0 0 30 30" fill="none" xmlns="http://www.w3.org/2000/svg">
    <path d="M10.1714 25.5429H25.0286V22.5714H10.1714V25.5429ZM10.1714 16.6286H19.0857V13.6571H10.1714V16.6286ZM10.1714 4.74286V7.71429H28V4.74286H10.1714ZM4.22857 4C3.93581 4.0001 3.64594 4.05786 3.37551 4.16998C3.10507 4.2821 2.85937 4.4464 2.65243 4.65348C2.44548 4.86056 2.28136 5.10637 2.16941 5.37688C2.05747 5.64739 1.9999 5.9373 2 6.23006C2.0001 6.52281 2.05786 6.81269 2.16998 7.08312C2.2821 7.35356 2.4464 7.59926 2.65348 7.8062C2.86056 8.01314 3.10637 8.17727 3.37688 8.28922C3.64739 8.40116 3.9373 8.45873 4.23006 8.45863C4.82131 8.45843 5.38826 8.22337 5.8062 7.80515C6.22414 7.38694 6.45883 6.81982 6.45863 6.22857C6.45843 5.63732 6.22337 5.07036 5.80515 4.65243C5.38694 4.23449 4.81982 3.9998 4.22857 4ZM4.22857 12.9143C3.93581 12.9144 3.64594 12.9721 3.37551 13.0843C3.10507 13.1964 2.85937 13.3607 2.65243 13.5678C2.44548 13.7748 2.28136 14.0207 2.16941 14.2912C2.05747 14.5617 1.9999 14.8516 2 15.1443C2.0001 15.4371 2.05786 15.727 2.16998 15.9974C2.2821 16.2678 2.4464 16.5135 2.65348 16.7205C2.86056 16.9274 3.10637 17.0916 3.37688 17.2035C3.64739 17.3154 3.9373 17.373 4.23006 17.3729C4.82131 17.3727 5.38826 17.1377 5.8062 16.7194C6.22414 16.3012 6.45883 15.7341 6.45863 15.1429C6.45843 14.5516 6.22337 13.9846 5.80515 13.5667C5.38694 13.1488 4.81982 12.9141 4.22857 12.9143ZM4.22857 21.8286C3.93581 21.8287 3.64594 21.8864 3.37551 21.9986C3.10507 22.1107 2.85937 22.275 2.65243 22.482C2.44548 22.6891 2.28136 22.9349 2.16941 23.2055C2.05747 23.476 1.9999 23.7659 2 24.0586C2.0001 24.3514 2.05786 24.6413 2.16998 24.9117C2.2821 25.1821 2.4464 25.4278 2.65348 25.6348C2.86056 25.8417 3.10637 26.0058 3.37688 26.1178C3.64739 26.2297 3.9373 26.2873 4.23006 26.2872C4.82131 26.287 5.38826 26.0519 5.8062 25.6337C6.22414 25.2155 6.45883 24.6484 6.45863 24.0571C6.45843 23.4659 6.22337 22.8989 5.80515 22.481C5.38694 22.0631 4.81982 21.8284 4.22857 21.8286Z" fill="#DBDBDB"/>
</svg>
