<svg width="30" height="30" viewBox="0 0 30 30" fill="none" xmlns="http://www.w3.org/2000/svg">
    <path fill-rule="evenodd" clip-rule="evenodd" d="M24.1667 28.334C25.2717 28.334 26.3315 27.895 27.1129 27.1136C27.8943 26.3322 28.3333 25.2724 28.3333 24.1673C28.3333 23.0622 27.8943 22.0024 27.1129 21.221C26.3315 20.4396 25.2717 20.0007 24.1667 20.0007C23.0616 20.0007 22.0018 20.4396 21.2204 21.221C20.439 22.0024 20 23.0622 20 24.1673C20 25.2724 20.439 26.3322 21.2204 27.1136C22.0018 27.895 23.0616 28.334 24.1667 28.334ZM24.1667 30.0007C25.7138 30.0007 27.1975 29.3861 28.2915 28.2921C29.3854 27.1981 30 25.7144 30 24.1673C30 22.6202 29.3854 21.1365 28.2915 20.0425C27.1975 18.9486 25.7138 18.334 24.1667 18.334C22.6196 18.334 21.1358 18.9486 20.0419 20.0425C18.9479 21.1365 18.3333 22.6202 18.3333 24.1673C18.3333 25.7144 18.9479 27.1981 20.0419 28.2921C21.1358 29.3861 22.6196 30.0007 24.1667 30.0007Z" fill="#DBDBDB"/>
    <path fill-rule="evenodd" clip-rule="evenodd" d="M24.1667 21.25C24.3877 21.25 24.5996 21.3378 24.7559 21.4941C24.9122 21.6504 25 21.8623 25 22.0833V23.8217L25.5892 24.4108C25.741 24.568 25.825 24.7785 25.8231 24.997C25.8212 25.2155 25.7335 25.4245 25.579 25.579C25.4245 25.7335 25.2155 25.8212 24.997 25.8231C24.7785 25.825 24.568 25.741 24.4108 25.5892L23.3333 24.5117V22.0833C23.3333 21.8623 23.4211 21.6504 23.5774 21.4941C23.7337 21.3378 23.9456 21.25 24.1667 21.25Z" fill="#DBDBDB"/>
    <path fill-rule="evenodd" clip-rule="evenodd" d="M6.66668 14.1667H5.00001V15.8333H6.66668V14.1667ZM5.00001 12.5C4.55798 12.5 4.13406 12.6756 3.8215 12.9882C3.50894 13.3007 3.33334 13.7246 3.33334 14.1667V15.8333C3.33334 16.2754 3.50894 16.6993 3.8215 17.0118C4.13406 17.3244 4.55798 17.5 5.00001 17.5H6.66668C7.1087 17.5 7.53263 17.3244 7.84519 17.0118C8.15775 16.6993 8.33334 16.2754 8.33334 15.8333V14.1667C8.33334 13.7246 8.15775 13.3007 7.84519 12.9882C7.53263 12.6756 7.1087 12.5 6.66668 12.5H5.00001Z" fill="#DBDBDB"/>
    <path fill-rule="evenodd" clip-rule="evenodd" d="M13.3333 14.1667H11.6667V15.8333H13.3333V14.1667ZM11.6667 12.5C11.2246 12.5 10.8007 12.6756 10.4882 12.9882C10.1756 13.3007 10 13.7246 10 14.1667V15.8333C10 16.2754 10.1756 16.6993 10.4882 17.0118C10.8007 17.3244 11.2246 17.5 11.6667 17.5H13.3333C13.7754 17.5 14.1993 17.3244 14.5118 17.0118C14.8244 16.6993 15 16.2754 15 15.8333V14.1667C15 13.7246 14.8244 13.3007 14.5118 12.9882C14.1993 12.6756 13.7754 12.5 13.3333 12.5H11.6667Z" fill="#DBDBDB"/>
    <path fill-rule="evenodd" clip-rule="evenodd" d="M20 14.1667H18.3333V15.8333H20V14.1667ZM18.3333 12.5C17.8913 12.5 17.4674 12.6756 17.1548 12.9882C16.8423 13.3007 16.6667 13.7246 16.6667 14.1667V15.8333C16.6667 16.2754 16.8423 16.6993 17.1548 17.0118C17.4674 17.3244 17.8913 17.5 18.3333 17.5H20C20.442 17.5 20.866 17.3244 21.1785 17.0118C21.4911 16.6993 21.6667 16.2754 21.6667 15.8333V14.1667C21.6667 13.7246 21.4911 13.3007 21.1785 12.9882C20.866 12.6756 20.442 12.5 20 12.5H18.3333Z" fill="#DBDBDB"/>
    <path fill-rule="evenodd" clip-rule="evenodd" d="M6.66668 20.8327H5.00001V22.4993H6.66668V20.8327ZM5.00001 19.166C4.55798 19.166 4.13406 19.3416 3.8215 19.6542C3.50894 19.9667 3.33334 20.3907 3.33334 20.8327V22.4993C3.33334 22.9414 3.50894 23.3653 3.8215 23.6779C4.13406 23.9904 4.55798 24.166 5.00001 24.166H6.66668C7.1087 24.166 7.53263 23.9904 7.84519 23.6779C8.15775 23.3653 8.33334 22.9414 8.33334 22.4993V20.8327C8.33334 20.3907 8.15775 19.9667 7.84519 19.6542C7.53263 19.3416 7.1087 19.166 6.66668 19.166H5.00001Z" fill="#DBDBDB"/>
    <path fill-rule="evenodd" clip-rule="evenodd" d="M13.3333 20.8327H11.6667V22.4993H13.3333V20.8327ZM11.6667 19.166C11.2246 19.166 10.8007 19.3416 10.4882 19.6542C10.1756 19.9667 10 20.3907 10 20.8327V22.4993C10 22.9414 10.1756 23.3653 10.4882 23.6779C10.8007 23.9904 11.2246 24.166 11.6667 24.166H13.3333C13.7754 24.166 14.1993 23.9904 14.5118 23.6779C14.8244 23.3653 15 22.9414 15 22.4993V20.8327C15 20.3907 14.8244 19.9667 14.5118 19.6542C14.1993 19.3416 13.7754 19.166 13.3333 19.166H11.6667Z" fill="#DBDBDB"/>
    <path fill-rule="evenodd" clip-rule="evenodd" d="M1.66667 5C1.66667 4.77899 1.75446 4.56702 1.91074 4.41074C2.06702 4.25446 2.27899 4.16667 2.5 4.16667H6.66667V2.5H2.5C1.83696 2.5 1.20107 2.76339 0.732233 3.23223C0.263392 3.70107 0 4.33696 0 5V25C0 25.663 0.263392 26.2989 0.732233 26.7678C1.20107 27.2366 1.83696 27.5 2.5 27.5H19.3792C19.0238 26.991 18.7523 26.4283 18.575 25.8333H2.5C2.27899 25.8333 2.06702 25.7455 1.91074 25.5893C1.75446 25.433 1.66667 25.221 1.66667 25V5ZM23.3333 18.3917C23.8861 18.3126 24.4473 18.3126 25 18.3917V5C25 4.33696 24.7366 3.70107 24.2678 3.23223C23.7989 2.76339 23.163 2.5 22.5 2.5H20V4.16667H22.5C22.721 4.16667 22.933 4.25446 23.0893 4.41074C23.2455 4.56702 23.3333 4.77899 23.3333 5V18.3917ZM8.33333 4.16667H17.1358V2.5H8.33333V4.16667Z" fill="#DBDBDB"/>
    <path fill-rule="evenodd" clip-rule="evenodd" d="M25 10.0007H1.66666V8.33398H25V10.0007Z" fill="#DBDBDB"/>
    <path d="M5 0.833333C5 0.61232 5.0878 0.400358 5.24408 0.244078C5.40036 0.0877975 5.61232 0 5.83333 0C6.05435 0 6.26631 0.0877975 6.42259 0.244078C6.57887 0.400358 6.66667 0.61232 6.66667 0.833333V5C6.66667 5.22101 6.57887 5.43298 6.42259 5.58926C6.26631 5.74554 6.05435 5.83333 5.83333 5.83333C5.61232 5.83333 5.40036 5.74554 5.24408 5.58926C5.0878 5.43298 5 5.22101 5 5V0.833333Z" fill="#DBDBDB"/>
    <path d="M16.6667 0.833333C16.6667 0.61232 16.7545 0.400358 16.9107 0.244078C17.067 0.0877975 17.279 0 17.5 0C17.721 0 17.933 0.0877975 18.0893 0.244078C18.2455 0.400358 18.3333 0.61232 18.3333 0.833333V5C18.3333 5.22101 18.2455 5.43298 18.0893 5.58926C17.933 5.74554 17.721 5.83333 17.5 5.83333C17.279 5.83333 17.067 5.74554 16.9107 5.58926C16.7545 5.43298 16.6667 5.22101 16.6667 5V0.833333Z" fill="#DBDBDB"/>
</svg>
